<?xml version="1.0" encoding="UTF-8" standalone="no"?>
<!-- Created with Inkscape (http://www.inkscape.org/) -->
<svg
   xmlns:dc="http://purl.org/dc/elements/1.1/"
   xmlns:cc="http://web.resource.org/cc/"
   xmlns:rdf="http://www.w3.org/1999/02/22-rdf-syntax-ns#"
   xmlns:svg="http://www.w3.org/2000/svg"
   xmlns="http://www.w3.org/2000/svg"
   xmlns:xlink="http://www.w3.org/1999/xlink"
   xmlns:sodipodi="http://sodipodi.sourceforge.net/DTD/sodipodi-0.dtd"
   xmlns:inkscape="http://www.inkscape.org/namespaces/inkscape"
   width="372.04724"
   height="262.20471"
   id="svg3186"
   sodipodi:version="0.32"
   inkscape:version="0.45"
   inkscape:output_extension="org.inkscape.output.svg.inkscape"
   sodipodi:docbase="/home/gquesnel/git/vle/share"
   sodipodi:docname="greenvle.svg"
   version="1.0"
   sodipodi:modified="true">
  <defs
     id="defs3188">
    <radialGradient
       id="XMLID_17_"
       cx="137.4209"
       cy="355.91751"
       r="18.571301"
       gradientUnits="userSpaceOnUse">
      <stop
         offset="0"
         style="stop-color:#FFFFFF"
         id="stop570" />
      <stop
         offset="1"
         style="stop-color:#79C6C5"
         id="stop572" />
    </radialGradient>
    <clipPath
       id="XMLID_18_">
      <use
         xlink:href="#XMLID_8_"
         id="use716"
         x="0"
         y="0"
         width="744.09448"
         height="1052.3622" />
    </clipPath>
  </defs>
  <sodipodi:namedview
     id="base"
     pagecolor="#ffffff"
     bordercolor="#666666"
     borderopacity="1.0"
     inkscape:pageopacity="0.0"
     inkscape:pageshadow="2"
     inkscape:zoom="0.98994949"
     inkscape:cx="300.80113"
     inkscape:cy="102.0752"
     inkscape:document-units="px"
     inkscape:current-layer="layer1"
     inkscape:window-width="722"
     inkscape:window-height="608"
     inkscape:window-x="528"
     inkscape:window-y="301"
     width="372.04724px"
     height="262.20472px" />
  <metadata
     id="metadata3191">
    <rdf:RDF>
      <cc:Work
         rdf:about="">
        <dc:format>image/svg+xml</dc:format>
        <dc:type
           rdf:resource="http://purl.org/dc/dcmitype/StillImage" />
      </cc:Work>
    </rdf:RDF>
  </metadata>
  <g
     inkscape:label="Calque 1"
     inkscape:groupmode="layer"
     id="layer1">
    <g
       transform="translate(7.0356845,-276.19757)"
       id="g517">
      <path
         d="M 169.611,426.805 C 136.574,449.458 102.407,451.835 76.908,448.483 C 50.921,444.802 33.602,435.391 22.846,426.982 C 2.847,408.417 3.341,397.96 3,387.999"
         id="path519"
         style="fill:none;stroke:#004588;stroke-width:6;stroke-linecap:round;stroke-dasharray:0.2, 8" />
    </g>
    <g
       transform="translate(7.0356845,-276.19757)"
       id="g521">
      <path
         d="M 175.169,421.245 C 142.132,443.898 107.965,446.275 82.466,442.923 C 56.479,439.242 39.16,429.831 28.405,421.422 C 8.405,402.858 8.899,392.4 8.558,382.439"
         id="path523"
         style="fill:none;stroke:#004588;stroke-width:6;stroke-linecap:round;stroke-dasharray:0.2, 8" />
    </g>
    <g
       transform="translate(7.0356845,-276.19757)"
       id="g525">
      <path
         d="M 180.73,415.686 C 147.693,438.339 113.526,440.716 88.027,437.364 C 62.041,433.683 44.721,424.272 33.966,415.864 C 13.966,397.299 14.46,386.842 14.119,376.88"
         id="path527"
         style="fill:none;stroke:#004588;stroke-width:6;stroke-linecap:round;stroke-dasharray:0.2, 8" />
    </g>
    <g
       transform="translate(7.0356845,-276.19757)"
       id="g529">
      <path
         d="M 186.29,410.125 C 153.253,432.778 119.086,435.155 93.587,431.803 C 67.6,428.122 50.281,418.711 39.525,410.302 C 19.525,391.738 20.019,381.28 19.678,371.319"
         id="path531"
         style="fill:none;stroke:#004588;stroke-width:6;stroke-linecap:round;stroke-dasharray:0.2, 8" />
    </g>
    <g
       transform="translate(7.0356845,-276.19757)"
       id="g533">
      <path
         d="M 191.85,404.567 C 158.813,427.22 124.646,429.597 99.147,426.245 C 73.16,422.564 55.841,413.153 45.085,404.745 C 25.085,386.18 25.579,375.723 25.238,365.761"
         id="path535"
         style="fill:none;stroke:#004588;stroke-width:6;stroke-linecap:round;stroke-dasharray:0.2, 8" />
    </g>
    <g
       transform="translate(7.0356845,-276.19757)"
       id="g537">
      <path
         d="M 197.409,399.006 C 164.372,421.659 130.205,424.036 104.706,420.684 C 78.72,417.003 61.4,407.592 50.645,399.184 C 30.645,380.619 31.139,370.162 30.798,360.2"
         id="path539"
         style="fill:none;stroke:#004588;stroke-width:6;stroke-linecap:round;stroke-dasharray:0.2, 8" />
    </g>
    <g
       transform="translate(7.0356845,-276.19757)"
       id="g541">
      <path
         d="M 202.967,393.448 C 169.93,416.101 135.763,418.478 110.264,415.126 C 84.277,411.445 66.958,402.034 56.203,393.626 C 36.203,375.061 36.697,364.604 36.356,354.642"
         id="path543"
         style="fill:none;stroke:#004588;stroke-width:6;stroke-linecap:round;stroke-dasharray:0.2, 8" />
    </g>
    <g
       transform="translate(7.0356845,-276.19757)"
       id="g545">
      <path
         d="M 208.528,387.887 C 175.491,410.54 141.324,412.917 115.825,409.565 C 89.838,405.884 72.519,396.473 61.764,388.065 C 41.764,369.5 42.258,359.043 41.917,349.081"
         id="path547"
         style="fill:none;stroke:#004588;stroke-width:6;stroke-linecap:round;stroke-dasharray:0.2, 8" />
    </g>
    <g
       transform="translate(7.0356845,-276.19757)"
       id="g549">
      <path
         d="M 214.087,382.329 C 181.05,404.982 146.883,407.359 121.384,404.007 C 95.397,400.325 78.078,390.915 67.322,382.506 C 47.322,363.941 47.816,353.484 47.475,343.523"
         id="path551"
         style="fill:none;stroke:#004588;stroke-width:6;stroke-linecap:round;stroke-dasharray:0.2, 8" />
    </g>
    <g
       transform="translate(7.0356845,-276.19757)"
       id="g553">
      <path
         d="M 219.647,376.768 C 186.61,399.421 152.443,401.798 126.944,398.446 C 100.958,394.764 83.638,385.354 72.883,376.946 C 52.883,358.381 53.377,347.924 53.036,337.962"
         id="path555"
         style="fill:none;stroke:#004588;stroke-width:6;stroke-linecap:round;stroke-dasharray:0.2, 8" />
    </g>
    <g
       transform="translate(7.0356845,-276.19757)"
       id="g557">
      <path
         d="M 225.208,371.208 C 192.171,393.861 158.004,396.238 132.505,392.886 C 106.519,389.204 89.199,379.794 78.444,371.386 C 58.444,352.821 58.938,342.364 58.597,332.402"
         id="path559"
         style="fill:none;stroke:#004588;stroke-width:6;stroke-linecap:round;stroke-dasharray:0.2, 8" />
    </g>
    <g
       transform="translate(7.0356845,-276.19757)"
       id="g561">
      <path
         d="M 230.768,365.649 C 197.732,388.303 163.564,390.68 138.064,387.328 C 112.077,383.647 94.757,374.236 84.002,365.827 C 64.002,347.263 64.496,336.805 64.155,326.843"
         id="path563"
         style="fill:none;stroke:#004588;stroke-width:6;stroke-linecap:round;stroke-dasharray:0.2, 8" />
    </g>
    <g
       transform="translate(7.0356845,-276.19757)"
       id="g565">
      <path
         d="M 236.327,360.09 C 203.291,382.743 169.123,385.12 143.624,381.768 C 117.637,378.087 100.318,368.676 89.562,360.268 C 69.562,341.703 70.056,331.246 69.715,321.284"
         id="path567"
         style="fill:none;stroke:#004588;stroke-width:6;stroke-linecap:round;stroke-dasharray:0.2, 8" />
    </g>
    <circle
       transform="translate(7.0356845,-276.19757)"
       cx="122.421"
       cy="403.91699"
       r="53.5"
       id="circle574"
       style="fill:url(#XMLID_17_)"
       sodipodi:cx="122.421"
       sodipodi:cy="403.91699"
       sodipodi:rx="53.5"
       sodipodi:ry="53.5" />
    <g
       transform="translate(7.0356845,-276.19757)"
       id="g576">
      <path
         d="M 222.524,391.347 L 224.399,391.347 L 230.115,404.675 L 235.914,391.347 L 237.79,391.347 L 230.29,408.581 L 229.915,408.581 L 222.524,391.347 z "
         id="path578"
         style="fill:#ee7f00" />
      <path
         d="M 240.454,391.347 L 242.173,391.347 L 242.173,408.581 L 240.454,408.581 L 240.454,391.347 z "
         id="path580"
         style="fill:#ee7f00" />
      <path
         d="M 246.208,391.347 L 249.642,391.347 C 251.556,391.347 252.853,391.425 253.533,391.581 C 254.556,391.816 255.388,392.318 256.029,393.089 C 256.67,393.86 256.99,394.808 256.99,395.935 C 256.99,396.873 256.768,397.699 256.327,398.411 C 255.886,399.123 255.255,399.66 254.434,400.023 C 253.614,400.388 252.481,400.574 251.036,400.582 L 257.24,408.582 L 255.108,408.582 L 248.905,400.582 L 247.927,400.582 L 247.927,408.582 L 246.208,408.582 L 246.208,391.347 z M 247.926,393.035 L 247.926,398.894 L 250.898,398.917 C 252.048,398.917 252.9,398.808 253.452,398.589 C 254.004,398.37 254.435,398.021 254.744,397.54 C 255.053,397.059 255.208,396.522 255.208,395.929 C 255.208,395.351 255.051,394.825 254.738,394.353 C 254.425,393.881 254.013,393.542 253.506,393.339 C 252.996,393.136 252.151,393.034 250.969,393.034 L 247.926,393.034 L 247.926,393.035 z "
         id="path582"
         style="fill:#ee7f00" />
      <path
         d="M 259.118,393.035 L 259.118,391.347 L 268.571,391.347 L 268.571,393.035 L 264.727,393.035 L 264.727,408.582 L 262.961,408.582 L 262.961,393.035 L 259.118,393.035 z "
         id="path584"
         style="fill:#ee7f00" />
      <path
         d="M 271.102,391.347 L 272.821,391.347 L 272.821,401.753 C 272.821,402.987 272.844,403.757 272.891,404.062 C 272.977,404.742 273.176,405.31 273.489,405.767 C 273.802,406.224 274.282,406.607 274.93,406.915 C 275.578,407.223 276.231,407.378 276.887,407.378 C 277.457,407.378 278.004,407.257 278.528,407.015 C 279.052,406.773 279.489,406.437 279.84,406.007 C 280.191,405.577 280.449,405.058 280.613,404.448 C 280.73,404.01 280.789,403.112 280.789,401.753 L 280.789,391.347 L 282.508,391.347 L 282.508,401.753 C 282.508,403.292 282.358,404.536 282.058,405.485 C 281.757,406.434 281.156,407.26 280.253,407.964 C 279.352,408.667 278.261,409.019 276.981,409.019 C 275.591,409.019 274.4,408.687 273.41,408.023 C 272.418,407.359 271.754,406.48 271.418,405.386 C 271.207,404.714 271.103,403.503 271.103,401.753 L 271.103,391.347 L 271.102,391.347 z "
         id="path586"
         style="fill:#ee7f00" />
      <path
         d="M 293.801,391.347 L 301.848,408.581 L 299.988,408.581 L 297.291,402.925 L 289.833,402.925 L 287.161,408.581 L 285.239,408.581 L 293.38,391.347 L 293.801,391.347 z M 293.585,394.981 L 290.622,401.253 L 296.538,401.253 L 293.585,394.981 z "
         id="path588"
         style="fill:#ee7f00" />
      <path
         d="M 304.508,391.347 L 306.227,391.347 L 306.227,406.909 L 312.868,406.909 L 312.868,408.581 L 304.509,408.581 L 304.509,391.347 L 304.508,391.347 z "
         id="path590"
         style="fill:#ee7f00" />
      <path
         d="M 203.903,415.347 L 205.622,415.347 L 205.622,430.909 L 212.263,430.909 L 212.263,432.581 L 203.904,432.581 L 203.904,415.347 L 203.903,415.347 z "
         id="path592"
         style="fill:#ee7f00" />
      <path
         d="M 222.036,415.347 L 230.083,432.581 L 228.223,432.581 L 225.526,426.925 L 218.068,426.925 L 215.396,432.581 L 213.474,432.581 L 221.615,415.347 L 222.036,415.347 z M 221.82,418.98 L 218.857,425.253 L 224.773,425.253 L 221.82,418.98 z "
         id="path594"
         style="fill:#ee7f00" />
      <path
         d="M 232.79,415.347 L 236.191,415.347 C 237.56,415.347 238.611,415.509 239.345,415.833 C 240.081,416.157 240.661,416.654 241.087,417.325 C 241.513,417.997 241.727,418.743 241.727,419.563 C 241.727,420.328 241.54,421.024 241.167,421.653 C 240.794,422.282 240.245,422.792 239.522,423.182 C 240.417,423.487 241.105,423.844 241.587,424.254 C 242.069,424.664 242.445,425.16 242.713,425.742 C 242.983,426.324 243.116,426.955 243.116,427.635 C 243.116,429.018 242.609,430.188 241.597,431.145 C 240.585,432.102 239.228,432.581 237.523,432.581 L 232.788,432.581 L 232.788,415.347 L 232.79,415.347 z M 234.477,417.035 L 234.477,422.551 L 235.464,422.551 C 236.664,422.551 237.546,422.44 238.11,422.217 C 238.674,421.994 239.122,421.643 239.452,421.162 C 239.78,420.683 239.945,420.15 239.945,419.564 C 239.945,418.775 239.669,418.156 239.116,417.708 C 238.563,417.26 237.682,417.035 236.475,417.035 L 234.477,417.035 z M 234.477,424.285 L 234.477,430.894 L 236.615,430.894 C 237.876,430.894 238.8,430.771 239.386,430.525 C 239.974,430.279 240.445,429.894 240.802,429.371 C 241.157,428.848 241.336,428.281 241.336,427.672 C 241.336,426.906 241.085,426.238 240.585,425.668 C 240.085,425.098 239.397,424.707 238.523,424.496 C 237.935,424.355 236.912,424.285 235.453,424.285 L 234.477,424.285 L 234.477,424.285 z "
         id="path596"
         style="fill:#ee7f00" />
      <path
         d="M 254.741,414.91 C 257.351,414.91 259.535,415.781 261.293,417.523 C 263.051,419.265 263.931,421.411 263.931,423.959 C 263.931,426.482 263.053,428.623 261.299,430.382 C 259.545,432.141 257.406,433.02 254.882,433.02 C 252.326,433.02 250.17,432.145 248.412,430.394 C 246.653,428.643 245.774,426.526 245.774,424.041 C 245.774,422.385 246.174,420.849 246.976,419.434 C 247.777,418.02 248.869,416.913 250.251,416.112 C 251.633,415.311 253.13,414.91 254.741,414.91 z M 254.817,416.582 C 253.543,416.582 252.334,416.914 251.191,417.58 C 250.05,418.244 249.158,419.141 248.517,420.268 C 247.876,421.395 247.555,422.651 247.555,424.036 C 247.555,426.086 248.265,427.817 249.685,429.229 C 251.103,430.641 252.814,431.348 254.817,431.348 C 256.154,431.348 257.392,431.023 258.53,430.373 C 259.668,429.723 260.556,428.836 261.193,427.709 C 261.83,426.582 262.149,425.33 262.149,423.953 C 262.149,422.584 261.83,421.346 261.193,420.238 C 260.556,419.13 259.658,418.244 258.501,417.58 C 257.343,416.914 256.115,416.582 254.817,416.582 z "
         id="path598"
         style="fill:#ee7f00" />
      <path
         d="M 267.477,415.347 L 270.911,415.347 C 272.825,415.347 274.122,415.425 274.802,415.581 C 275.825,415.815 276.657,416.317 277.298,417.089 C 277.939,417.859 278.259,418.808 278.259,419.935 C 278.259,420.873 278.037,421.699 277.596,422.41 C 277.155,423.123 276.524,423.66 275.703,424.023 C 274.883,424.388 273.75,424.574 272.305,424.582 L 278.509,432.582 L 276.377,432.582 L 270.174,424.582 L 269.196,424.582 L 269.196,432.582 L 267.477,432.582 L 267.477,415.347 L 267.477,415.347 z M 269.196,417.035 L 269.196,422.894 L 272.168,422.917 C 273.318,422.917 274.17,422.808 274.722,422.589 C 275.274,422.37 275.705,422.021 276.014,421.54 C 276.323,421.059 276.478,420.522 276.478,419.929 C 276.478,419.351 276.321,418.825 276.008,418.353 C 275.695,417.881 275.283,417.542 274.776,417.339 C 274.266,417.136 273.421,417.034 272.239,417.034 L 269.196,417.034 L 269.196,417.035 z "
         id="path600"
         style="fill:#ee7f00" />
      <path
         d="M 288.997,415.347 L 297.044,432.581 L 295.184,432.581 L 292.487,426.925 L 285.029,426.925 L 282.357,432.581 L 280.435,432.581 L 288.576,415.347 L 288.997,415.347 z M 288.781,418.98 L 285.818,425.253 L 291.734,425.253 L 288.781,418.98 z "
         id="path602"
         style="fill:#ee7f00" />
      <path
         d="M 296.055,417.035 L 296.055,415.347 L 305.508,415.347 L 305.508,417.035 L 301.664,417.035 L 301.664,432.582 L 299.898,432.582 L 299.898,417.035 L 296.055,417.035 z "
         id="path604"
         style="fill:#ee7f00" />
      <path
         d="M 316.194,414.91 C 318.804,414.91 320.988,415.781 322.746,417.523 C 324.504,419.265 325.384,421.411 325.384,423.959 C 325.384,426.482 324.506,428.623 322.752,430.382 C 320.998,432.141 318.859,433.02 316.335,433.02 C 313.779,433.02 311.623,432.145 309.865,430.394 C 308.106,428.643 307.227,426.526 307.227,424.041 C 307.227,422.385 307.627,420.849 308.429,419.434 C 309.23,418.02 310.322,416.913 311.704,416.112 C 313.086,415.311 314.583,414.91 316.194,414.91 z M 316.27,416.582 C 314.996,416.582 313.787,416.914 312.644,417.58 C 311.503,418.244 310.611,419.141 309.97,420.268 C 309.329,421.395 309.008,422.651 309.008,424.036 C 309.008,426.086 309.718,427.817 311.138,429.229 C 312.556,430.641 314.267,431.348 316.27,431.348 C 317.607,431.348 318.845,431.023 319.983,430.373 C 321.121,429.723 322.009,428.836 322.646,427.709 C 323.283,426.582 323.602,425.33 323.602,423.953 C 323.602,422.584 323.283,421.346 322.646,420.238 C 322.009,419.13 321.111,418.244 319.954,417.58 C 318.796,416.914 317.568,416.582 316.27,416.582 z "
         id="path606"
         style="fill:#ee7f00" />
      <path
         d="M 328.93,415.347 L 332.364,415.347 C 334.278,415.347 335.575,415.425 336.255,415.581 C 337.278,415.815 338.11,416.317 338.751,417.089 C 339.392,417.859 339.712,418.808 339.712,419.935 C 339.712,420.873 339.49,421.699 339.049,422.41 C 338.608,423.123 337.977,423.66 337.156,424.023 C 336.336,424.388 335.203,424.574 333.758,424.582 L 339.962,432.582 L 337.83,432.582 L 331.627,424.582 L 330.649,424.582 L 330.649,432.582 L 328.93,432.582 L 328.93,415.347 L 328.93,415.347 z M 330.649,417.035 L 330.649,422.894 L 333.621,422.917 C 334.771,422.917 335.623,422.808 336.175,422.589 C 336.727,422.37 337.158,422.021 337.467,421.54 C 337.776,421.059 337.931,420.522 337.931,419.929 C 337.931,419.351 337.774,418.825 337.461,418.353 C 337.148,417.881 336.736,417.542 336.229,417.339 C 335.719,417.136 334.874,417.034 333.692,417.034 L 330.649,417.034 L 330.649,417.035 z "
         id="path608"
         style="fill:#ee7f00" />
      <path
         d="M 341.563,415.347 L 343.544,415.347 L 347.962,422.492 L 352.325,415.347 L 354.297,415.347 L 348.828,424.343 L 348.828,432.581 L 347.125,432.581 L 347.125,424.343 L 341.563,415.347 z "
         id="path610"
         style="fill:#ee7f00" />
      <path
         d="M 177.34,439.347 L 187.231,439.347 L 187.231,441.035 L 179.059,441.035 L 179.059,446.441 L 187.153,446.441 L 187.153,448.129 L 179.059,448.129 L 179.059,454.895 L 187.153,454.895 L 187.153,456.583 L 177.341,456.583 L 177.341,439.347 L 177.34,439.347 z "
         id="path612"
         style="fill:#ee7f00" />
      <path
         d="M 190.208,456.582 L 190.208,439.348 L 190.583,439.348 L 202.052,452.55 L 202.052,439.348 L 203.755,439.348 L 203.755,456.582 L 203.367,456.582 L 191.989,443.531 L 191.989,456.582 L 190.208,456.582 z "
         id="path614"
         style="fill:#ee7f00" />
      <path
         d="M 206.633,439.347 L 208.508,439.347 L 214.224,452.675 L 220.023,439.347 L 221.899,439.347 L 214.399,456.581 L 214.024,456.581 L 206.633,439.347 z "
         id="path616"
         style="fill:#ee7f00" />
      <path
         d="M 224.563,439.347 L 226.282,439.347 L 226.282,456.581 L 224.563,456.581 L 224.563,439.347 z "
         id="path618"
         style="fill:#ee7f00" />
      <path
         d="M 230.317,439.347 L 233.751,439.347 C 235.665,439.347 236.962,439.425 237.642,439.581 C 238.665,439.815 239.497,440.317 240.138,441.089 C 240.779,441.859 241.099,442.808 241.099,443.935 C 241.099,444.873 240.877,445.699 240.436,446.41 C 239.995,447.123 239.364,447.66 238.543,448.023 C 237.723,448.388 236.59,448.574 235.145,448.582 L 241.349,456.582 L 239.217,456.582 L 233.014,448.582 L 232.036,448.582 L 232.036,456.582 L 230.317,456.582 L 230.317,439.347 z M 232.036,441.035 L 232.036,446.894 L 235.008,446.917 C 236.158,446.917 237.01,446.808 237.562,446.589 C 238.114,446.37 238.545,446.021 238.854,445.54 C 239.163,445.059 239.318,444.522 239.318,443.929 C 239.318,443.351 239.161,442.825 238.848,442.353 C 238.535,441.881 238.123,441.542 237.616,441.339 C 237.106,441.136 236.261,441.034 235.079,441.034 L 232.036,441.034 L 232.036,441.035 z "
         id="path620"
         style="fill:#ee7f00" />
      <path
         d="M 253.006,438.91 C 255.616,438.91 257.8,439.781 259.558,441.523 C 261.316,443.265 262.196,445.411 262.196,447.959 C 262.196,450.482 261.318,452.623 259.564,454.382 C 257.81,456.141 255.671,457.02 253.147,457.02 C 250.591,457.02 248.435,456.145 246.677,454.394 C 244.918,452.643 244.039,450.526 244.039,448.041 C 244.039,446.385 244.439,444.849 245.241,443.434 C 246.042,442.02 247.134,440.913 248.516,440.112 C 249.898,439.311 251.396,438.91 253.006,438.91 z M 253.083,440.582 C 251.809,440.582 250.6,440.914 249.457,441.58 C 248.316,442.244 247.424,443.141 246.783,444.268 C 246.142,445.395 245.821,446.651 245.821,448.036 C 245.821,450.086 246.531,451.817 247.951,453.229 C 249.369,454.641 251.08,455.348 253.083,455.348 C 254.42,455.348 255.658,455.023 256.796,454.373 C 257.934,453.723 258.822,452.836 259.459,451.709 C 260.096,450.582 260.415,449.33 260.415,447.953 C 260.415,446.584 260.096,445.346 259.459,444.238 C 258.822,443.13 257.924,442.244 256.767,441.58 C 255.609,440.914 254.38,440.582 253.083,440.582 z "
         id="path622"
         style="fill:#ee7f00" />
      <path
         d="M 265.665,456.582 L 265.665,439.348 L 266.04,439.348 L 277.509,452.55 L 277.509,439.348 L 279.212,439.348 L 279.212,456.582 L 278.824,456.582 L 267.446,443.531 L 267.446,456.582 L 265.665,456.582 z "
         id="path624"
         style="fill:#ee7f00" />
      <path
         d="M 282.622,456.582 L 285.096,439.348 L 285.379,439.348 L 292.396,453.489 L 299.346,439.348 L 299.619,439.348 L 302.106,456.582 L 300.423,456.582 L 298.707,444.254 L 292.603,456.582 L 292.152,456.582 L 285.989,444.16 L 284.286,456.582 L 282.622,456.582 z "
         id="path626"
         style="fill:#ee7f00" />
      <path
         d="M 305.473,439.347 L 315.364,439.347 L 315.364,441.035 L 307.192,441.035 L 307.192,446.441 L 315.286,446.441 L 315.286,448.129 L 307.192,448.129 L 307.192,454.895 L 315.286,454.895 L 315.286,456.583 L 305.474,456.583 L 305.474,439.347 L 305.473,439.347 z "
         id="path628"
         style="fill:#ee7f00" />
      <path
         d="M 318.34,456.582 L 318.34,439.348 L 318.715,439.348 L 330.184,452.55 L 330.184,439.348 L 331.887,439.348 L 331.887,456.582 L 331.5,456.582 L 320.122,443.531 L 320.122,456.582 L 318.34,456.582 z "
         id="path630"
         style="fill:#ee7f00" />
      <path
         d="M 334.375,441.035 L 334.375,439.347 L 343.828,439.347 L 343.828,441.035 L 339.984,441.035 L 339.984,456.582 L 338.218,456.582 L 338.218,441.035 L 334.375,441.035 z "
         id="path632"
         style="fill:#ee7f00" />
    </g>
    <g
       transform="translate(7.0356845,-276.19757)"
       id="g634">
      <path
         d="M 138.984,466.08 L 138.026,466.99 C 137.374,466.304 136.641,465.961 135.826,465.961 C 135.138,465.961 134.559,466.195 134.089,466.664 C 133.618,467.132 133.382,467.709 133.382,468.395 C 133.382,468.873 133.486,469.297 133.695,469.668 C 133.903,470.039 134.198,470.33 134.58,470.541 C 134.961,470.753 135.385,470.858 135.851,470.858 C 136.248,470.858 136.612,470.784 136.941,470.636 C 137.27,470.488 137.632,470.219 138.026,469.828 L 138.955,470.797 C 138.424,471.317 137.922,471.676 137.451,471.877 C 136.978,472.077 136.44,472.178 135.834,472.178 C 134.717,472.178 133.803,471.824 133.091,471.116 C 132.38,470.409 132.024,469.502 132.024,468.396 C 132.024,467.68 132.186,467.044 132.51,466.488 C 132.834,465.931 133.298,465.484 133.903,465.146 C 134.507,464.807 135.157,464.638 135.854,464.638 C 136.447,464.638 137.018,464.763 137.566,465.013 C 138.114,465.265 138.587,465.62 138.984,466.08 z "
         id="path636"
         style="fill:#9c9d9f" />
      <path
         d="M 142.528,466.554 C 143.029,466.554 143.5,466.679 143.941,466.929 C 144.382,467.18 144.726,467.519 144.974,467.949 C 145.222,468.379 145.345,468.842 145.345,469.339 C 145.345,469.84 145.22,470.308 144.971,470.743 C 144.722,471.178 144.383,471.519 143.953,471.764 C 143.523,472.009 143.05,472.132 142.532,472.132 C 141.77,472.132 141.12,471.861 140.582,471.32 C 140.043,470.778 139.774,470.121 139.774,469.347 C 139.774,468.518 140.078,467.827 140.687,467.275 C 141.221,466.794 141.834,466.554 142.528,466.554 z M 142.545,467.812 C 142.132,467.812 141.789,467.956 141.514,468.243 C 141.24,468.529 141.102,468.896 141.102,469.344 C 141.102,469.805 141.238,470.178 141.509,470.463 C 141.78,470.748 142.124,470.891 142.54,470.891 C 142.956,470.891 143.302,470.746 143.578,470.458 C 143.854,470.17 143.993,469.798 143.993,469.344 C 143.993,468.891 143.857,468.522 143.586,468.239 C 143.315,467.954 142.968,467.812 142.545,467.812 z "
         id="path638"
         style="fill:#9c9d9f" />
      <path
         d="M 146.426,466.687 L 147.762,466.687 L 147.762,467.304 C 147.99,467.052 148.243,466.865 148.522,466.741 C 148.801,466.617 149.105,466.554 149.434,466.554 C 149.767,466.554 150.067,466.636 150.334,466.8 C 150.602,466.963 150.817,467.202 150.98,467.516 C 151.192,467.203 151.452,466.963 151.76,466.8 C 152.068,466.636 152.405,466.554 152.77,466.554 C 153.148,466.554 153.481,466.642 153.768,466.818 C 154.055,466.994 154.261,467.222 154.387,467.506 C 154.513,467.79 154.575,468.25 154.575,468.887 L 154.575,472 L 153.239,472 L 153.239,469.312 C 153.239,468.711 153.163,468.304 153.012,468.091 C 152.861,467.879 152.635,467.773 152.333,467.773 C 152.104,467.773 151.897,467.837 151.715,467.968 C 151.533,468.097 151.398,468.277 151.309,468.505 C 151.221,468.734 151.176,469.102 151.176,469.609 L 151.176,472 L 149.84,472 L 149.84,469.434 C 149.84,468.96 149.805,468.618 149.735,468.405 C 149.665,468.192 149.56,468.034 149.419,467.93 C 149.278,467.826 149.108,467.774 148.909,467.774 C 148.687,467.774 148.485,467.84 148.304,467.971 C 148.123,468.102 147.987,468.286 147.897,468.524 C 147.807,468.76 147.762,469.134 147.762,469.644 L 147.762,472 L 146.426,472 L 146.426,466.687 L 146.426,466.687 z "
         id="path640"
         style="fill:#9c9d9f" />
      <path
         d="M 157.169,466.687 L 157.169,467.269 C 157.409,467.031 157.669,466.852 157.948,466.733 C 158.227,466.614 158.526,466.554 158.844,466.554 C 159.535,466.554 160.123,466.816 160.607,467.339 C 161.091,467.862 161.333,468.533 161.333,469.353 C 161.333,470.143 161.083,470.804 160.583,471.335 C 160.083,471.866 159.49,472.132 158.805,472.132 C 158.5,472.132 158.216,472.077 157.953,471.969 C 157.69,471.86 157.429,471.682 157.169,471.435 L 157.169,473.945 L 155.833,473.945 L 155.833,466.687 L 157.169,466.687 L 157.169,466.687 z M 158.563,467.773 C 158.144,467.773 157.796,467.917 157.521,468.204 C 157.246,468.491 157.107,468.866 157.107,469.329 C 157.107,469.802 157.245,470.184 157.521,470.476 C 157.797,470.767 158.145,470.914 158.563,470.914 C 158.969,470.914 159.311,470.766 159.588,470.469 C 159.865,470.172 160.005,469.794 160.005,469.334 C 160.005,468.877 159.869,468.503 159.596,468.211 C 159.323,467.919 158.979,467.773 158.563,467.773 z "
         id="path642"
         style="fill:#9c9d9f" />
      <path
         d="M 162.294,464.632 L 163.63,464.632 L 163.63,472 L 162.294,472 L 162.294,464.632 z "
         id="path644"
         style="fill:#9c9d9f" />
      <path
         d="M 170.155,469.718 L 165.871,469.718 C 165.933,470.098 166.098,470.4 166.366,470.624 C 166.634,470.848 166.975,470.96 167.391,470.96 C 167.888,470.96 168.315,470.785 168.672,470.435 L 169.793,470.963 C 169.513,471.36 169.179,471.655 168.789,471.846 C 168.399,472.036 167.936,472.132 167.4,472.132 C 166.568,472.132 165.891,471.869 165.367,471.345 C 164.844,470.82 164.582,470.162 164.582,469.372 C 164.582,468.562 164.843,467.891 165.366,467.356 C 165.889,466.821 166.544,466.553 167.332,466.553 C 168.169,466.553 168.849,466.82 169.374,467.353 C 169.898,467.885 170.161,468.59 170.161,469.464 L 170.155,469.718 z M 168.824,468.679 C 168.736,468.388 168.562,468.151 168.303,467.968 C 168.044,467.786 167.743,467.695 167.401,467.695 C 167.029,467.695 166.703,467.798 166.423,468.003 C 166.247,468.131 166.084,468.357 165.934,468.68 L 168.824,468.68 L 168.824,468.679 z "
         id="path646"
         style="fill:#9c9d9f" />
      <path
         d="M 170.76,466.687 L 172.309,466.687 L 173.359,468.135 L 174.405,466.687 L 175.926,466.687 L 174.122,469.185 L 176.164,471.999 L 174.615,471.999 L 173.349,470.255 L 172.09,472 L 170.569,472 L 172.587,469.205 L 170.76,466.687 z "
         id="path648"
         style="fill:#9c9d9f" />
      <path
         d="M 182.882,467.433 L 182.059,468.257 C 181.724,467.924 181.421,467.757 181.148,467.757 C 180.999,467.757 180.882,467.788 180.797,467.853 C 180.712,467.915 180.671,467.995 180.671,468.089 C 180.671,468.16 180.697,468.226 180.751,468.286 C 180.805,468.346 180.937,468.429 181.148,468.532 L 181.635,468.776 C 182.15,469.03 182.502,469.288 182.695,469.551 C 182.886,469.815 182.983,470.123 182.983,470.478 C 182.983,470.95 182.809,471.342 182.463,471.659 C 182.116,471.973 181.652,472.132 181.07,472.132 C 180.296,472.132 179.677,471.829 179.216,471.222 L 180.033,470.327 C 180.189,470.509 180.372,470.656 180.581,470.768 C 180.79,470.879 180.977,470.936 181.139,470.936 C 181.314,470.936 181.455,470.894 181.563,470.809 C 181.669,470.725 181.724,470.627 181.724,470.517 C 181.724,470.313 181.531,470.113 181.144,469.918 L 180.697,469.693 C 179.84,469.261 179.412,468.721 179.412,468.072 C 179.412,467.653 179.573,467.295 179.896,466.998 C 180.219,466.701 180.632,466.553 181.136,466.553 C 181.48,466.553 181.804,466.629 182.108,466.78 C 182.414,466.933 182.67,467.15 182.882,467.433 z "
         id="path650"
         style="fill:#9c9d9f" />
      <path
         d="M 183.429,466.687 L 184.799,466.687 L 186.184,470.021 L 187.712,466.687 L 189.081,466.687 L 185.743,473.945 L 184.366,473.945 L 185.458,471.595 L 183.429,466.687 z "
         id="path652"
         style="fill:#9c9d9f" />
      <path
         d="M 193.082,467.433 L 192.26,468.257 C 191.925,467.924 191.621,467.757 191.349,467.757 C 191.2,467.757 191.082,467.788 190.998,467.853 C 190.914,467.915 190.871,467.995 190.871,468.089 C 190.871,468.16 190.898,468.226 190.952,468.286 C 191.006,468.346 191.139,468.429 191.349,468.532 L 191.837,468.776 C 192.351,469.03 192.703,469.288 192.896,469.551 C 193.087,469.815 193.183,470.123 193.183,470.478 C 193.183,470.95 193.01,471.342 192.663,471.659 C 192.317,471.973 191.852,472.132 191.27,472.132 C 190.497,472.132 189.878,471.829 189.416,471.222 L 190.234,470.327 C 190.39,470.509 190.573,470.656 190.782,470.768 C 190.992,470.879 191.178,470.936 191.34,470.936 C 191.516,470.936 191.656,470.894 191.764,470.809 C 191.871,470.725 191.924,470.627 191.924,470.517 C 191.924,470.313 191.732,470.113 191.345,469.918 L 190.897,469.693 C 190.041,469.261 189.612,468.721 189.612,468.072 C 189.612,467.653 189.774,467.295 190.097,466.998 C 190.42,466.701 190.833,466.553 191.336,466.553 C 191.681,466.553 192.005,466.629 192.309,466.78 C 192.614,466.933 192.871,467.15 193.082,467.433 z "
         id="path654"
         style="fill:#9c9d9f" />
      <path
         d="M 194.396,464.726 L 195.732,464.726 L 195.732,466.687 L 196.521,466.687 L 196.521,467.835 L 195.732,467.835 L 195.732,472 L 194.396,472 L 194.396,467.836 L 193.708,467.836 L 193.708,466.688 L 194.396,466.688 L 194.396,464.726 z "
         id="path656"
         style="fill:#9c9d9f" />
      <path
         d="M 202.552,469.718 L 198.269,469.718 C 198.33,470.098 198.496,470.4 198.763,470.624 C 199.031,470.848 199.372,470.96 199.788,470.96 C 200.285,470.96 200.712,470.785 201.069,470.435 L 202.19,470.963 C 201.91,471.36 201.575,471.655 201.185,471.846 C 200.795,472.037 200.332,472.132 199.795,472.132 C 198.963,472.132 198.286,471.869 197.763,471.345 C 197.241,470.82 196.979,470.162 196.979,469.372 C 196.979,468.562 197.24,467.891 197.762,467.356 C 198.285,466.821 198.94,466.553 199.729,466.553 C 200.565,466.553 201.246,466.82 201.77,467.353 C 202.294,467.885 202.557,468.59 202.557,469.464 L 202.552,469.718 z M 201.222,468.679 C 201.133,468.388 200.96,468.151 200.701,467.968 C 200.441,467.786 200.14,467.695 199.799,467.695 C 199.428,467.695 199.102,467.798 198.82,468.003 C 198.644,468.131 198.481,468.357 198.332,468.68 L 201.222,468.68 L 201.222,468.679 z "
         id="path658"
         style="fill:#9c9d9f" />
      <path
         d="M 203.623,466.687 L 204.959,466.687 L 204.959,467.304 C 205.188,467.052 205.441,466.865 205.72,466.741 C 205.999,466.617 206.303,466.554 206.632,466.554 C 206.965,466.554 207.265,466.636 207.531,466.8 C 207.799,466.963 208.014,467.202 208.177,467.516 C 208.389,467.203 208.649,466.963 208.956,466.8 C 209.265,466.636 209.601,466.554 209.966,466.554 C 210.345,466.554 210.677,466.642 210.964,466.818 C 211.251,466.994 211.457,467.222 211.583,467.506 C 211.708,467.789 211.771,468.25 211.771,468.887 L 211.771,472 L 210.435,472 L 210.435,469.312 C 210.435,468.711 210.36,468.304 210.208,468.091 C 210.058,467.879 209.831,467.773 209.529,467.773 C 209.3,467.773 209.093,467.837 208.911,467.968 C 208.729,468.097 208.595,468.277 208.505,468.505 C 208.417,468.734 208.372,469.102 208.372,469.609 L 208.372,472 L 207.036,472 L 207.036,469.434 C 207.036,468.96 207.001,468.618 206.931,468.405 C 206.861,468.192 206.756,468.034 206.616,467.93 C 206.475,467.826 206.305,467.774 206.106,467.774 C 205.884,467.774 205.682,467.84 205.501,467.971 C 205.32,468.102 205.184,468.286 205.094,468.524 C 205.004,468.76 204.959,469.134 204.959,469.644 L 204.959,472 L 203.623,472 L 203.623,466.687 L 203.623,466.687 z "
         id="path660"
         style="fill:#9c9d9f" />
      <path
         d="M 216.281,467.433 L 215.458,468.257 C 215.123,467.924 214.82,467.757 214.547,467.757 C 214.398,467.757 214.281,467.788 214.196,467.853 C 214.111,467.915 214.07,467.995 214.07,468.089 C 214.07,468.16 214.096,468.226 214.15,468.286 C 214.204,468.346 214.336,468.429 214.547,468.532 L 215.034,468.776 C 215.549,469.03 215.901,469.288 216.094,469.551 C 216.285,469.815 216.382,470.123 216.382,470.478 C 216.382,470.95 216.208,471.342 215.862,471.659 C 215.515,471.973 215.051,472.132 214.469,472.132 C 213.695,472.132 213.076,471.829 212.615,471.222 L 213.432,470.327 C 213.588,470.509 213.771,470.656 213.98,470.768 C 214.189,470.879 214.376,470.936 214.538,470.936 C 214.713,470.936 214.854,470.894 214.962,470.809 C 215.068,470.725 215.123,470.627 215.123,470.517 C 215.123,470.313 214.93,470.113 214.543,469.918 L 214.096,469.693 C 213.239,469.261 212.811,468.721 212.811,468.072 C 212.811,467.653 212.972,467.295 213.295,466.998 C 213.618,466.701 214.031,466.553 214.535,466.553 C 214.879,466.553 215.203,466.629 215.507,466.78 C 215.812,466.933 216.069,467.15 216.281,467.433 z "
         id="path662"
         style="fill:#9c9d9f" />
      <path
         d="M 220.22,466.687 L 221.556,466.687 L 221.556,467.304 C 221.784,467.052 222.036,466.865 222.316,466.741 C 222.596,466.617 222.899,466.554 223.228,466.554 C 223.561,466.554 223.861,466.636 224.128,466.8 C 224.396,466.963 224.61,467.202 224.774,467.516 C 224.986,467.203 225.246,466.963 225.554,466.8 C 225.862,466.636 226.199,466.554 226.564,466.554 C 226.942,466.554 227.275,466.642 227.561,466.818 C 227.848,466.994 228.054,467.222 228.179,467.506 C 228.305,467.789 228.368,468.25 228.368,468.887 L 228.368,472 L 227.032,472 L 227.032,469.312 C 227.032,468.711 226.956,468.304 226.805,468.091 C 226.654,467.879 226.427,467.773 226.125,467.773 C 225.896,467.773 225.689,467.837 225.508,467.968 C 225.325,468.097 225.19,468.277 225.102,468.505 C 225.013,468.734 224.969,469.102 224.969,469.609 L 224.969,472 L 223.633,472 L 223.633,469.434 C 223.633,468.96 223.598,468.618 223.528,468.405 C 223.458,468.192 223.352,468.034 223.212,467.93 C 223.071,467.826 222.901,467.774 222.702,467.774 C 222.479,467.774 222.278,467.84 222.097,467.971 C 221.916,468.102 221.781,468.286 221.691,468.524 C 221.601,468.76 221.556,469.134 221.556,469.644 L 221.556,472 L 220.22,472 L 220.22,466.687 L 220.22,466.687 z "
         id="path664"
         style="fill:#9c9d9f" />
      <path
         d="M 232.123,466.554 C 232.624,466.554 233.096,466.679 233.536,466.929 C 233.977,467.18 234.321,467.519 234.568,467.949 C 234.816,468.379 234.939,468.842 234.939,469.339 C 234.939,469.84 234.815,470.308 234.566,470.743 C 234.317,471.178 233.978,471.519 233.548,471.764 C 233.118,472.009 232.645,472.132 232.127,472.132 C 231.365,472.132 230.716,471.861 230.177,471.32 C 229.638,470.778 229.368,470.121 229.368,469.347 C 229.368,468.518 229.673,467.827 230.282,467.275 C 230.816,466.794 231.429,466.554 232.123,466.554 z M 232.14,467.812 C 231.728,467.812 231.384,467.956 231.109,468.243 C 230.835,468.529 230.697,468.896 230.697,469.344 C 230.697,469.805 230.834,470.178 231.104,470.463 C 231.375,470.748 231.719,470.891 232.135,470.891 C 232.551,470.891 232.897,470.746 233.173,470.458 C 233.449,470.17 233.587,469.798 233.587,469.344 C 233.587,468.891 233.452,468.522 233.181,468.239 C 232.91,467.954 232.562,467.812 232.14,467.812 z "
         id="path666"
         style="fill:#9c9d9f" />
      <path
         d="M 239.951,464.632 L 241.287,464.632 L 241.287,472 L 239.951,472 L 239.951,471.438 C 239.69,471.684 239.43,471.862 239.168,471.97 C 238.906,472.078 238.623,472.133 238.317,472.133 C 237.63,472.133 237.038,471.867 236.537,471.336 C 236.037,470.805 235.787,470.144 235.787,469.354 C 235.787,468.535 236.029,467.864 236.514,467.34 C 236.999,466.816 237.586,466.555 238.279,466.555 C 238.597,466.555 238.897,466.615 239.176,466.734 C 239.455,466.854 239.713,467.033 239.951,467.271 L 239.951,464.632 z M 238.551,467.773 C 238.138,467.773 237.796,467.919 237.523,468.211 C 237.251,468.503 237.115,468.877 237.115,469.334 C 237.115,469.794 237.254,470.172 237.531,470.469 C 237.808,470.766 238.15,470.914 238.556,470.914 C 238.975,470.914 239.323,470.768 239.599,470.476 C 239.874,470.184 240.013,469.801 240.013,469.329 C 240.013,468.866 239.874,468.491 239.599,468.204 C 239.323,467.917 238.973,467.773 238.551,467.773 z "
         id="path668"
         style="fill:#9c9d9f" />
      <path
         d="M 247.953,469.718 L 243.67,469.718 C 243.731,470.098 243.897,470.4 244.164,470.624 C 244.432,470.848 244.773,470.96 245.189,470.96 C 245.686,470.96 246.113,470.785 246.47,470.435 L 247.591,470.963 C 247.311,471.36 246.976,471.655 246.586,471.846 C 246.196,472.037 245.733,472.132 245.196,472.132 C 244.364,472.132 243.687,471.869 243.164,471.345 C 242.642,470.82 242.38,470.162 242.38,469.372 C 242.38,468.562 242.641,467.891 243.163,467.356 C 243.686,466.821 244.341,466.553 245.13,466.553 C 245.966,466.553 246.647,466.82 247.171,467.353 C 247.695,467.885 247.958,468.59 247.958,469.464 L 247.953,469.718 z M 246.623,468.679 C 246.534,468.388 246.361,468.151 246.102,467.968 C 245.842,467.786 245.541,467.695 245.2,467.695 C 244.829,467.695 244.503,467.798 244.221,468.003 C 244.045,468.131 243.882,468.357 243.733,468.68 L 246.623,468.68 L 246.623,468.679 z "
         id="path670"
         style="fill:#9c9d9f" />
      <path
         d="M 248.89,464.632 L 250.226,464.632 L 250.226,472 L 248.89,472 L 248.89,464.632 z "
         id="path672"
         style="fill:#9c9d9f" />
      <path
         d="M 251.289,464.632 L 252.625,464.632 L 252.625,472 L 251.289,472 L 251.289,464.632 z "
         id="path674"
         style="fill:#9c9d9f" />
      <path
         d="M 254.355,464.5 C 254.589,464.5 254.791,464.584 254.958,464.754 C 255.125,464.923 255.209,465.127 255.209,465.368 C 255.209,465.605 255.127,465.808 254.961,465.975 C 254.795,466.142 254.596,466.226 254.365,466.226 C 254.128,466.226 253.926,466.14 253.758,465.97 C 253.59,465.799 253.506,465.592 253.506,465.348 C 253.506,465.114 253.59,464.913 253.756,464.748 C 253.92,464.583 254.121,464.5 254.355,464.5 z M 253.685,466.687 L 255.021,466.687 L 255.021,472 L 253.685,472 L 253.685,466.687 z "
         id="path676"
         style="fill:#9c9d9f" />
      <path
         d="M 256.224,466.687 L 257.56,466.687 L 257.56,467.232 C 257.861,466.979 258.135,466.802 258.38,466.703 C 258.625,466.604 258.876,466.555 259.132,466.555 C 259.658,466.555 260.105,466.739 260.472,467.106 C 260.781,467.418 260.935,467.881 260.935,468.493 L 260.935,472 L 259.615,472 L 259.615,469.675 C 259.615,469.041 259.586,468.62 259.529,468.412 C 259.472,468.204 259.374,468.046 259.233,467.936 C 259.092,467.828 258.918,467.773 258.711,467.773 C 258.442,467.773 258.212,467.863 258.02,468.044 C 257.827,468.225 257.694,468.474 257.619,468.793 C 257.581,468.958 257.561,469.317 257.561,469.869 L 257.561,472 L 256.225,472 L 256.225,466.687 L 256.224,466.687 z "
         id="path678"
         style="fill:#9c9d9f" />
      <path
         d="M 266.162,466.687 L 267.482,466.687 L 267.482,471.237 C 267.482,472.134 267.302,472.796 266.941,473.218 C 266.455,473.791 265.724,474.077 264.748,474.077 C 264.227,474.077 263.789,474.013 263.435,473.882 C 263.08,473.752 262.78,473.562 262.536,473.31 C 262.292,473.058 262.112,472.751 261.995,472.39 L 263.468,472.39 C 263.598,472.539 263.766,472.652 263.972,472.729 C 264.177,472.805 264.42,472.843 264.701,472.843 C 265.06,472.843 265.349,472.788 265.567,472.677 C 265.786,472.567 265.94,472.424 266.029,472.248 C 266.119,472.072 266.164,471.77 266.164,471.341 C 265.93,471.575 265.684,471.743 265.426,471.846 C 265.168,471.949 264.876,471.999 264.55,471.999 C 263.836,471.999 263.233,471.742 262.739,471.228 C 262.246,470.714 262,470.064 262,469.277 C 262,468.434 262.262,467.757 262.783,467.248 C 263.256,466.785 263.82,466.555 264.476,466.555 C 264.783,466.555 265.072,466.611 265.344,466.723 C 265.616,466.834 265.89,467.018 266.163,467.274 L 266.163,466.687 L 266.162,466.687 z M 264.771,467.796 C 264.351,467.796 264.003,467.937 263.73,468.219 C 263.456,468.501 263.318,468.855 263.318,469.281 C 263.318,469.723 263.459,470.087 263.74,470.371 C 264.019,470.654 264.372,470.796 264.797,470.796 C 265.211,470.796 265.553,470.657 265.821,470.381 C 266.09,470.104 266.224,469.741 266.224,469.291 C 266.224,468.849 266.089,468.488 265.818,468.211 C 265.548,467.935 265.199,467.796 264.771,467.796 z "
         id="path680"
         style="fill:#9c9d9f" />
      <path
         d="M 275.546,466.687 L 276.882,466.687 L 276.882,472 L 275.546,472 L 275.546,471.438 C 275.285,471.684 275.025,471.862 274.763,471.97 C 274.501,472.078 274.218,472.133 273.912,472.133 C 273.225,472.133 272.633,471.867 272.132,471.336 C 271.632,470.805 271.382,470.144 271.382,469.354 C 271.382,468.535 271.624,467.864 272.109,467.34 C 272.594,466.816 273.181,466.555 273.874,466.555 C 274.192,466.555 274.492,466.615 274.771,466.734 C 275.05,466.853 275.308,467.032 275.546,467.27 L 275.546,466.687 L 275.546,466.687 z M 274.147,467.773 C 273.734,467.773 273.392,467.919 273.119,468.211 C 272.847,468.503 272.711,468.877 272.711,469.334 C 272.711,469.794 272.85,470.172 273.127,470.469 C 273.404,470.766 273.746,470.914 274.152,470.914 C 274.571,470.914 274.919,470.768 275.195,470.476 C 275.47,470.184 275.609,469.801 275.609,469.329 C 275.609,468.866 275.47,468.491 275.195,468.204 C 274.918,467.917 274.569,467.773 274.147,467.773 z "
         id="path682"
         style="fill:#9c9d9f" />
      <path
         d="M 278.226,466.687 L 279.562,466.687 L 279.562,467.232 C 279.863,466.979 280.137,466.802 280.382,466.703 C 280.627,466.604 280.878,466.555 281.134,466.555 C 281.66,466.555 282.107,466.739 282.474,467.106 C 282.783,467.418 282.937,467.881 282.937,468.493 L 282.937,472 L 281.617,472 L 281.617,469.675 C 281.617,469.041 281.588,468.62 281.531,468.412 C 281.474,468.204 281.376,468.046 281.235,467.936 C 281.094,467.828 280.92,467.773 280.713,467.773 C 280.444,467.773 280.214,467.863 280.022,468.044 C 279.829,468.225 279.696,468.474 279.621,468.793 C 279.583,468.958 279.563,469.317 279.563,469.869 L 279.563,472 L 278.227,472 L 278.227,466.687 L 278.226,466.687 z "
         id="path684"
         style="fill:#9c9d9f" />
      <path
         d="M 288.148,464.632 L 289.484,464.632 L 289.484,472 L 288.148,472 L 288.148,471.438 C 287.888,471.684 287.627,471.862 287.366,471.97 C 287.105,472.078 286.821,472.133 286.515,472.133 C 285.829,472.133 285.236,471.867 284.736,471.336 C 284.235,470.805 283.984,470.144 283.984,469.354 C 283.984,468.535 284.226,467.864 284.711,467.34 C 285.196,466.816 285.784,466.555 286.477,466.555 C 286.795,466.555 287.094,466.615 287.373,466.734 C 287.653,466.854 287.912,467.033 288.148,467.271 L 288.148,464.632 z M 286.75,467.773 C 286.338,467.773 285.995,467.919 285.723,468.211 C 285.45,468.503 285.313,468.877 285.313,469.334 C 285.313,469.794 285.452,470.172 285.73,470.469 C 286.007,470.766 286.349,470.914 286.755,470.914 C 287.174,470.914 287.522,470.768 287.797,470.476 C 288.073,470.184 288.211,469.801 288.211,469.329 C 288.211,468.866 288.073,468.491 287.797,468.204 C 287.521,467.917 287.171,467.773 286.75,467.773 z "
         id="path686"
         style="fill:#9c9d9f" />
      <path
         d="M 296.876,467.433 L 296.053,468.257 C 295.718,467.924 295.415,467.757 295.142,467.757 C 294.993,467.757 294.876,467.788 294.791,467.853 C 294.706,467.915 294.665,467.995 294.665,468.089 C 294.665,468.16 294.691,468.226 294.745,468.286 C 294.799,468.346 294.931,468.429 295.142,468.532 L 295.629,468.776 C 296.144,469.03 296.496,469.288 296.689,469.551 C 296.88,469.815 296.977,470.123 296.977,470.478 C 296.977,470.95 296.803,471.342 296.457,471.659 C 296.11,471.973 295.646,472.132 295.064,472.132 C 294.29,472.132 293.671,471.829 293.21,471.222 L 294.027,470.327 C 294.183,470.509 294.366,470.656 294.575,470.768 C 294.784,470.879 294.971,470.936 295.133,470.936 C 295.308,470.936 295.449,470.894 295.557,470.809 C 295.663,470.725 295.718,470.627 295.718,470.517 C 295.718,470.313 295.525,470.113 295.138,469.918 L 294.691,469.693 C 293.834,469.261 293.406,468.721 293.406,468.072 C 293.406,467.653 293.567,467.295 293.89,466.998 C 294.213,466.701 294.626,466.553 295.13,466.553 C 295.474,466.553 295.798,466.629 296.102,466.78 C 296.408,466.933 296.665,467.15 296.876,467.433 z "
         id="path688"
         style="fill:#9c9d9f" />
      <path
         d="M 298.554,464.5 C 298.788,464.5 298.99,464.584 299.157,464.754 C 299.324,464.923 299.408,465.127 299.408,465.368 C 299.408,465.605 299.326,465.808 299.16,465.975 C 298.994,466.142 298.795,466.226 298.564,466.226 C 298.327,466.226 298.125,466.14 297.957,465.97 C 297.789,465.799 297.705,465.592 297.705,465.348 C 297.705,465.114 297.789,464.913 297.955,464.748 C 298.12,464.583 298.32,464.5 298.554,464.5 z M 297.884,466.687 L 299.22,466.687 L 299.22,472 L 297.884,472 L 297.884,466.687 z "
         id="path690"
         style="fill:#9c9d9f" />
      <path
         d="M 300.416,466.687 L 301.752,466.687 L 301.752,467.304 C 301.98,467.052 302.232,466.865 302.512,466.741 C 302.792,466.617 303.095,466.554 303.424,466.554 C 303.757,466.554 304.057,466.636 304.324,466.8 C 304.592,466.963 304.806,467.202 304.97,467.516 C 305.182,467.203 305.442,466.963 305.75,466.8 C 306.058,466.636 306.395,466.554 306.76,466.554 C 307.138,466.554 307.471,466.642 307.757,466.818 C 308.044,466.994 308.25,467.222 308.375,467.506 C 308.501,467.789 308.564,468.25 308.564,468.887 L 308.564,472 L 307.228,472 L 307.228,469.312 C 307.228,468.711 307.152,468.304 307.001,468.091 C 306.85,467.879 306.623,467.773 306.321,467.773 C 306.092,467.773 305.885,467.837 305.704,467.968 C 305.521,468.097 305.386,468.277 305.298,468.505 C 305.209,468.734 305.165,469.102 305.165,469.609 L 305.165,472 L 303.829,472 L 303.829,469.434 C 303.829,468.96 303.794,468.618 303.724,468.405 C 303.654,468.192 303.548,468.034 303.408,467.93 C 303.267,467.826 303.097,467.774 302.898,467.774 C 302.675,467.774 302.474,467.84 302.293,467.971 C 302.112,468.102 301.977,468.286 301.887,468.524 C 301.797,468.76 301.752,469.134 301.752,469.644 L 301.752,472 L 300.416,472 L 300.416,466.687 L 300.416,466.687 z "
         id="path692"
         style="fill:#9c9d9f" />
      <path
         d="M 309.822,466.687 L 311.174,466.687 L 311.174,469.242 C 311.174,469.74 311.209,470.086 311.277,470.279 C 311.345,470.472 311.455,470.623 311.606,470.729 C 311.756,470.836 311.942,470.89 312.163,470.89 C 312.384,470.89 312.571,470.837 312.725,470.732 C 312.879,470.627 312.994,470.47 313.069,470.266 C 313.124,470.113 313.151,469.787 313.151,469.286 L 313.151,466.687 L 314.487,466.687 L 314.487,468.937 C 314.487,469.864 314.415,470.498 314.268,470.839 C 314.088,471.255 313.825,471.575 313.477,471.798 C 313.129,472.021 312.687,472.132 312.151,472.132 C 311.568,472.132 311.097,472.002 310.738,471.741 C 310.379,471.481 310.126,471.118 309.979,470.653 C 309.875,470.331 309.823,469.746 309.823,468.897 L 309.823,466.687 L 309.822,466.687 z "
         id="path694"
         style="fill:#9c9d9f" />
      <path
         d="M 315.683,464.632 L 317.019,464.632 L 317.019,472 L 315.683,472 L 315.683,464.632 z "
         id="path696"
         style="fill:#9c9d9f" />
      <path
         d="M 322.142,466.687 L 323.478,466.687 L 323.478,472 L 322.142,472 L 322.142,471.438 C 321.882,471.684 321.621,471.862 321.36,471.97 C 321.099,472.078 320.815,472.133 320.509,472.133 C 319.823,472.133 319.23,471.867 318.73,471.336 C 318.229,470.805 317.978,470.144 317.978,469.354 C 317.978,468.535 318.22,467.864 318.705,467.34 C 319.19,466.816 319.778,466.555 320.471,466.555 C 320.789,466.555 321.088,466.615 321.367,466.734 C 321.647,466.853 321.906,467.032 322.142,467.27 L 322.142,466.687 z M 320.744,467.773 C 320.332,467.773 319.989,467.919 319.717,468.211 C 319.444,468.503 319.307,468.877 319.307,469.334 C 319.307,469.794 319.446,470.172 319.724,470.469 C 320.001,470.766 320.343,470.914 320.749,470.914 C 321.168,470.914 321.516,470.768 321.791,470.476 C 322.067,470.184 322.205,469.801 322.205,469.329 C 322.205,468.866 322.067,468.491 321.791,468.204 C 321.515,467.917 321.166,467.773 320.744,467.773 z "
         id="path698"
         style="fill:#9c9d9f" />
      <path
         d="M 324.986,464.726 L 326.322,464.726 L 326.322,466.687 L 327.111,466.687 L 327.111,467.835 L 326.322,467.835 L 326.322,472 L 324.986,472 L 324.986,467.836 L 324.298,467.836 L 324.298,466.688 L 324.986,466.688 L 324.986,464.726 z "
         id="path700"
         style="fill:#9c9d9f" />
      <path
         d="M 328.349,464.5 C 328.583,464.5 328.785,464.584 328.952,464.754 C 329.119,464.923 329.203,465.127 329.203,465.368 C 329.203,465.605 329.121,465.808 328.955,465.975 C 328.789,466.142 328.59,466.226 328.359,466.226 C 328.122,466.226 327.92,466.14 327.752,465.97 C 327.584,465.799 327.5,465.592 327.5,465.348 C 327.5,465.114 327.584,464.913 327.75,464.748 C 327.915,464.583 328.115,464.5 328.349,464.5 z M 327.679,466.687 L 329.015,466.687 L 329.015,472 L 327.679,472 L 327.679,466.687 z "
         id="path702"
         style="fill:#9c9d9f" />
      <path
         d="M 332.713,466.554 C 333.214,466.554 333.685,466.679 334.126,466.929 C 334.567,467.18 334.911,467.519 335.159,467.949 C 335.406,468.379 335.53,468.842 335.53,469.339 C 335.53,469.84 335.405,470.308 335.156,470.743 C 334.907,471.178 334.567,471.519 334.138,471.764 C 333.708,472.009 333.235,472.132 332.717,472.132 C 331.955,472.132 331.305,471.861 330.767,471.32 C 330.228,470.778 329.959,470.121 329.959,469.347 C 329.959,468.518 330.263,467.827 330.871,467.275 C 331.407,466.794 332.02,466.554 332.713,466.554 z M 332.731,467.812 C 332.318,467.812 331.974,467.956 331.7,468.243 C 331.426,468.529 331.289,468.896 331.289,469.344 C 331.289,469.805 331.424,470.178 331.695,470.463 C 331.966,470.748 332.31,470.891 332.726,470.891 C 333.142,470.891 333.488,470.746 333.764,470.458 C 334.04,470.17 334.179,469.798 334.179,469.344 C 334.179,468.891 334.042,468.522 333.771,468.239 C 333.5,467.954 333.154,467.812 332.731,467.812 z "
         id="path704"
         style="fill:#9c9d9f" />
      <path
         d="M 336.619,466.687 L 337.955,466.687 L 337.955,467.232 C 338.258,466.979 338.531,466.802 338.776,466.703 C 339.021,466.604 339.271,466.555 339.528,466.555 C 340.054,466.555 340.501,466.739 340.868,467.106 C 341.176,467.418 341.33,467.881 341.33,468.493 L 341.33,472 L 340.01,472 L 340.01,469.675 C 340.01,469.041 339.983,468.62 339.926,468.412 C 339.869,468.204 339.77,468.046 339.629,467.936 C 339.488,467.828 339.315,467.773 339.108,467.773 C 338.838,467.773 338.608,467.863 338.415,468.044 C 338.223,468.225 338.089,468.474 338.015,468.793 C 337.976,468.958 337.956,469.317 337.956,469.869 L 337.956,472 L 336.62,472 L 336.62,466.687 L 336.619,466.687 z "
         id="path706"
         style="fill:#9c9d9f" />
    </g>
    <g
       transform="translate(7.0356845,-276.19757)"
       id="g708">
      <g
         id="g710">
        <defs
           id="defs712">
          <circle
             id="XMLID_8_"
             cx="122.421"
             cy="403.91699"
             r="53.5"
             sodipodi:cx="122.421"
             sodipodi:cy="403.91699"
             sodipodi:rx="53.5"
             sodipodi:ry="53.5" />
        </defs>
        <clipPath
           id="clipPath3456">
          <use
             xlink:href="#XMLID_8_"
             id="use3458"
             x="0"
             y="0"
             width="744.09448"
             height="1052.3622" />
        </clipPath>
        <g
           clip-path="url(#XMLID_18_)"
           id="g718">
          <g
             id="g720">
            <path
               d="M 169.611,426.138 C 136.574,448.791 102.407,451.168 76.908,447.816 C 50.921,444.135 33.602,434.724 22.846,426.315 C 2.847,407.75 3.341,397.293 3,387.333"
               id="path722"
               style="fill:none;stroke:#ffffff;stroke-width:6;stroke-dasharray:8, 2" />
          </g>
          <g
             id="g724">
            <path
               d="M 175.17,420.579 C 142.133,443.232 107.966,445.609 82.467,442.257 C 56.48,438.575 39.16,429.165 28.405,420.756 C 8.405,402.191 8.899,391.734 8.558,381.773"
               id="path726"
               style="fill:none;stroke:#ffffff;stroke-width:6;stroke-dasharray:8, 2" />
          </g>
          <g
             id="g728">
            <path
               d="M 180.73,415.019 C 147.693,437.672 113.526,440.049 88.027,436.697 C 62.04,433.016 44.721,423.605 33.965,415.196 C 13.965,396.632 14.459,386.175 14.118,376.214"
               id="path730"
               style="fill:none;stroke:#ffffff;stroke-width:6;stroke-dasharray:8, 2" />
          </g>
          <g
             id="g732">
            <path
               d="M 186.291,409.459 C 153.254,432.112 119.087,434.489 93.587,431.137 C 67.6,427.455 50.281,418.045 39.525,409.636 C 19.525,391.071 20.019,380.614 19.678,370.653"
               id="path734"
               style="fill:none;stroke:#ffffff;stroke-width:6;stroke-dasharray:8, 2" />
          </g>
          <g
             id="g736">
            <path
               d="M 191.85,403.9 C 158.813,426.553 124.646,428.93 99.147,425.578 C 73.16,421.897 55.841,412.486 45.085,404.078 C 25.085,385.513 25.579,375.056 25.238,365.095"
               id="path738"
               style="fill:none;stroke:#ffffff;stroke-width:6;stroke-dasharray:8, 2" />
          </g>
          <g
             id="g740">
            <path
               d="M 197.41,398.34 C 164.373,420.993 130.206,423.37 104.706,420.018 C 78.719,416.336 61.4,406.926 50.644,398.517 C 30.644,379.952 31.138,369.495 30.797,359.534"
               id="path742"
               style="fill:none;stroke:#ffffff;stroke-width:6;stroke-dasharray:8, 2" />
          </g>
          <g
             id="g744">
            <path
               d="M 202.967,392.781 C 169.93,415.434 135.763,417.811 110.264,414.459 C 84.277,410.777 66.958,401.367 56.203,392.958 C 36.203,374.394 36.697,363.937 36.356,353.976"
               id="path746"
               style="fill:none;stroke:#ffffff;stroke-width:6;stroke-dasharray:8, 2" />
          </g>
          <g
             id="g748">
            <path
               d="M 208.529,387.221 C 175.492,409.874 141.325,412.251 115.826,408.899 C 89.839,405.217 72.52,395.807 61.764,387.398 C 41.764,368.833 42.258,358.376 41.917,348.415"
               id="path750"
               style="fill:none;stroke:#ffffff;stroke-width:6;stroke-dasharray:8, 2" />
          </g>
          <g
             id="g752">
            <path
               d="M 214.087,381.662 C 181.05,404.315 146.883,406.692 121.384,403.34 C 95.397,399.658 78.078,390.248 67.322,381.839 C 47.322,363.274 47.816,352.817 47.475,342.856"
               id="path754"
               style="fill:none;stroke:#ffffff;stroke-width:6;stroke-dasharray:8, 2" />
          </g>
          <g
             id="g756">
            <path
               d="M 219.648,376.102 C 186.612,398.755 152.444,401.132 126.944,397.78 C 100.957,394.098 83.638,384.688 72.882,376.279 C 52.882,357.714 53.376,347.257 53.035,337.296"
               id="path758"
               style="fill:none;stroke:#ffffff;stroke-width:6;stroke-dasharray:8, 2" />
          </g>
          <g
             id="g760">
            <path
               d="M 225.208,370.542 C 192.171,393.195 158.004,395.572 132.504,392.22 C 106.517,388.538 89.198,379.128 78.442,370.719 C 58.442,352.154 58.936,341.697 58.595,331.736"
               id="path762"
               style="fill:none;stroke:#ffffff;stroke-width:6;stroke-dasharray:8, 2" />
          </g>
          <g
             id="g764">
            <path
               d="M 230.768,364.983 C 197.732,387.636 163.564,390.013 138.064,386.661 C 112.077,382.979 94.757,373.569 84.002,365.16 C 64.002,346.595 64.496,336.138 64.155,326.177"
               id="path766"
               style="fill:none;stroke:#ffffff;stroke-width:6;stroke-dasharray:8, 2" />
          </g>
          <g
             id="g768">
            <path
               d="M 236.327,359.423 C 203.291,382.076 169.123,384.453 143.624,381.101 C 117.637,377.42 100.318,368.009 89.562,359.601 C 69.562,341.036 70.056,330.579 69.715,320.618"
               id="path770"
               style="fill:none;stroke:#ffffff;stroke-width:6;stroke-dasharray:8, 2" />
          </g>
        </g>
      </g>
    </g>
    <circle
       transform="translate(7.0356845,-276.19757)"
       cx="122.421"
       cy="403.91699"
       r="53.5"
       id="circle772"
       sodipodi:cx="122.421"
       sodipodi:cy="403.91699"
       sodipodi:rx="53.5"
       sodipodi:ry="53.5"
       style="fill:none;stroke:#ffffff;stroke-width:3" />
  </g>
</svg>
