<?xml version="1.0" encoding="UTF-8" standalone="no"?>
<!-- Created with Inkscape (http://www.inkscape.org/) -->
<svg
   xmlns:dc="http://purl.org/dc/elements/1.1/"
   xmlns:cc="http://web.resource.org/cc/"
   xmlns:rdf="http://www.w3.org/1999/02/22-rdf-syntax-ns#"
   xmlns:svg="http://www.w3.org/2000/svg"
   xmlns="http://www.w3.org/2000/svg"
   xmlns:xlink="http://www.w3.org/1999/xlink"
   xmlns:sodipodi="http://sodipodi.sourceforge.net/DTD/sodipodi-0.dtd"
   xmlns:inkscape="http://www.inkscape.org/namespaces/inkscape"
   width="372.04724"
   height="262.20471"
   id="svg3194"
   sodipodi:version="0.32"
   inkscape:version="0.45"
   inkscape:output_extension="org.inkscape.output.svg.inkscape"
   sodipodi:docbase="/home/gquesnel/git/vle/share"
   sodipodi:docname="yellowvle.svg"
   version="1.0"
   sodipodi:modified="true">
  <defs
     id="defs3196">
    <radialGradient
       id="XMLID_13_"
       cx="137.4209"
       cy="37.632801"
       r="18.571301"
       gradientUnits="userSpaceOnUse">
      <stop
         offset="0"
         style="stop-color:#FFFFFF"
         id="stop56" />
      <stop
         offset="1"
         style="stop-color:#FFDD00"
         id="stop58" />
    </radialGradient>
    <clipPath
       id="XMLID_14_">
      <use
         xlink:href="#XMLID_2_"
         id="use202"
         x="0"
         y="0"
         width="744.09448"
         height="1052.3622" />
    </clipPath>
  </defs>
  <sodipodi:namedview
     id="base"
     pagecolor="#ffffff"
     bordercolor="#666666"
     borderopacity="1.0"
     inkscape:pageopacity="0.0"
     inkscape:pageshadow="2"
     inkscape:zoom="1.2433034"
     inkscape:cx="214.79615"
     inkscape:cy="111.23929"
     inkscape:document-units="px"
     inkscape:current-layer="layer1"
     inkscape:window-width="722"
     inkscape:window-height="608"
     inkscape:window-x="984"
     inkscape:window-y="237"
     width="372.04724px"
     height="262.20472px" />
  <metadata
     id="metadata3199">
    <rdf:RDF>
      <cc:Work
         rdf:about="">
        <dc:format>image/svg+xml</dc:format>
        <dc:type
           rdf:resource="http://purl.org/dc/dcmitype/StillImage" />
      </cc:Work>
    </rdf:RDF>
  </metadata>
  <g
     inkscape:label="Calque 1"
     inkscape:groupmode="layer"
     id="layer1">
    <g
       transform="translate(10.786867,41.36797)"
       id="g3">
      <path
         d="M 169.611,108.521 C 136.574,131.174 102.407,133.551 76.908,130.199 C 50.921,126.518 33.602,117.107 22.846,108.698 C 2.847,90.133 3.341,79.676 3,69.715"
         id="path5"
         style="fill:none;stroke:#004588;stroke-width:6;stroke-linecap:round;stroke-dasharray:0.2, 8" />
    </g>
    <g
       transform="translate(10.786867,41.36797)"
       id="g7">
      <path
         d="M 175.169,102.96 C 142.132,125.613 107.965,127.99 82.466,124.638 C 56.479,120.957 39.16,111.546 28.405,103.137 C 8.406,84.573 8.9,74.115 8.559,64.154"
         id="path9"
         style="fill:none;stroke:#004588;stroke-width:6;stroke-linecap:round;stroke-dasharray:0.2, 8" />
    </g>
    <g
       transform="translate(10.786867,41.36797)"
       id="g11">
      <path
         d="M 180.73,97.402 C 147.693,120.055 113.526,122.432 88.027,119.08 C 62.041,115.399 44.721,105.988 33.966,97.58 C 13.966,79.015 14.46,68.558 14.119,58.596"
         id="path13"
         style="fill:none;stroke:#004588;stroke-width:6;stroke-linecap:round;stroke-dasharray:0.2, 8" />
    </g>
    <g
       transform="translate(10.786867,41.36797)"
       id="g15">
      <path
         d="M 186.29,91.841 C 153.253,114.494 119.086,116.871 93.587,113.519 C 67.6,109.838 50.281,100.427 39.525,92.018 C 19.525,73.454 20.019,62.996 19.678,53.035"
         id="path17"
         style="fill:none;stroke:#004588;stroke-width:6;stroke-linecap:round;stroke-dasharray:0.2, 8" />
    </g>
    <g
       transform="translate(10.786867,41.36797)"
       id="g19">
      <path
         d="M 191.85,86.283 C 158.813,108.936 124.646,111.313 99.147,107.961 C 73.16,104.28 55.841,94.869 45.085,86.461 C 25.085,67.896 25.579,57.439 25.238,47.477"
         id="path21"
         style="fill:none;stroke:#004588;stroke-width:6;stroke-linecap:round;stroke-dasharray:0.2, 8" />
    </g>
    <g
       transform="translate(10.786867,41.36797)"
       id="g23">
      <path
         d="M 197.409,80.722 C 164.372,103.375 130.205,105.752 104.706,102.4 C 78.719,98.719 61.4,89.308 50.645,80.9 C 30.645,62.335 31.139,51.878 30.798,41.916"
         id="path25"
         style="fill:none;stroke:#004588;stroke-width:6;stroke-linecap:round;stroke-dasharray:0.2, 8" />
    </g>
    <g
       transform="translate(10.786867,41.36797)"
       id="g27">
      <path
         d="M 202.967,75.164 C 169.93,97.817 135.763,100.194 110.264,96.842 C 84.277,93.161 66.958,83.75 56.203,75.342 C 36.203,56.777 36.697,46.32 36.356,36.359"
         id="path29"
         style="fill:none;stroke:#004588;stroke-width:6;stroke-linecap:round;stroke-dasharray:0.2, 8" />
    </g>
    <g
       transform="translate(10.786867,41.36797)"
       id="g31">
      <path
         d="M 208.528,69.603 C 175.491,92.256 141.324,94.633 115.825,91.281 C 89.838,87.6 72.52,78.189 61.764,69.78 C 41.764,51.215 42.258,40.758 41.917,30.797"
         id="path33"
         style="fill:none;stroke:#004588;stroke-width:6;stroke-linecap:round;stroke-dasharray:0.2, 8" />
    </g>
    <g
       transform="translate(10.786867,41.36797)"
       id="g35">
      <path
         d="M 214.087,64.044 C 181.05,86.698 146.883,89.075 121.384,85.722 C 95.397,82.041 78.078,72.63 67.323,64.221 C 47.323,45.656 47.817,35.199 47.476,25.237"
         id="path37"
         style="fill:none;stroke:#004588;stroke-width:6;stroke-linecap:round;stroke-dasharray:0.2, 8" />
    </g>
    <g
       transform="translate(10.786867,41.36797)"
       id="g39">
      <path
         d="M 219.647,58.484 C 186.61,81.137 152.443,83.514 126.944,80.162 C 100.958,76.481 83.638,67.071 72.883,58.662 C 52.883,40.097 53.377,29.64 53.036,19.679"
         id="path41"
         style="fill:none;stroke:#004588;stroke-width:6;stroke-linecap:round;stroke-dasharray:0.2, 8" />
    </g>
    <g
       transform="translate(10.786867,41.36797)"
       id="g43">
      <path
         d="M 225.208,52.923 C 192.171,75.576 158.004,77.953 132.505,74.601 C 106.519,70.919 89.199,61.509 78.444,53.1 C 58.444,34.535 58.938,24.078 58.597,14.117"
         id="path45"
         style="fill:none;stroke:#004588;stroke-width:6;stroke-linecap:round;stroke-dasharray:0.2, 8" />
    </g>
    <g
       transform="translate(10.786867,41.36797)"
       id="g47">
      <path
         d="M 230.768,47.365 C 197.732,70.019 163.564,72.396 138.064,69.043 C 112.077,65.362 94.757,55.951 84.002,47.542 C 64.002,28.977 64.496,18.52 64.155,8.558"
         id="path49"
         style="fill:none;stroke:#004588;stroke-width:6;stroke-linecap:round;stroke-dasharray:0.2, 8" />
    </g>
    <g
       transform="translate(10.786867,41.36797)"
       id="g51">
      <path
         d="M 236.327,41.806 C 203.291,64.459 169.123,66.836 143.624,63.484 C 117.637,59.803 100.318,50.392 89.562,41.983 C 69.562,23.418 70.056,12.961 69.715,3"
         id="path53"
         style="fill:none;stroke:#004588;stroke-width:6;stroke-linecap:round;stroke-dasharray:0.2, 8" />
    </g>
    <circle
       transform="translate(10.786867,41.36797)"
       cx="122.421"
       cy="85.633003"
       r="53.5"
       id="circle60"
       style="fill:url(#XMLID_13_)"
       sodipodi:cx="122.421"
       sodipodi:cy="85.633003"
       sodipodi:rx="53.5"
       sodipodi:ry="53.5" />
    <g
       transform="translate(10.786867,41.36797)"
       id="g62">
      <path
         d="M 222.524,73.063 L 224.399,73.063 L 230.115,86.391 L 235.914,73.063 L 237.79,73.063 L 230.29,90.297 L 229.915,90.297 L 222.524,73.063 z "
         id="path64"
         style="fill:#ee7f00" />
      <path
         d="M 240.454,73.063 L 242.173,73.063 L 242.173,90.297 L 240.454,90.297 L 240.454,73.063 z "
         id="path66"
         style="fill:#ee7f00" />
      <path
         d="M 246.208,73.063 L 249.642,73.063 C 251.556,73.063 252.853,73.141 253.533,73.297 C 254.556,73.532 255.388,74.034 256.029,74.805 C 256.67,75.576 256.99,76.524 256.99,77.651 C 256.99,78.589 256.768,79.415 256.327,80.127 C 255.886,80.839 255.255,81.376 254.434,81.739 C 253.614,82.104 252.481,82.29 251.036,82.298 L 257.24,90.298 L 255.108,90.298 L 248.905,82.298 L 247.927,82.298 L 247.927,90.298 L 246.208,90.298 L 246.208,73.063 z M 247.926,74.75 L 247.926,80.609 L 250.898,80.632 C 252.048,80.632 252.9,80.523 253.452,80.304 C 254.004,80.085 254.435,79.736 254.744,79.255 C 255.053,78.774 255.208,78.237 255.208,77.644 C 255.208,77.066 255.051,76.54 254.738,76.068 C 254.425,75.596 254.013,75.257 253.506,75.054 C 252.996,74.851 252.151,74.749 250.969,74.749 L 247.926,74.749 L 247.926,74.75 z "
         id="path68"
         style="fill:#ee7f00" />
      <path
         d="M 259.118,74.75 L 259.118,73.062 L 268.571,73.062 L 268.571,74.75 L 264.727,74.75 L 264.727,90.297 L 262.961,90.297 L 262.961,74.75 L 259.118,74.75 z "
         id="path70"
         style="fill:#ee7f00" />
      <path
         d="M 271.102,73.063 L 272.821,73.063 L 272.821,83.469 C 272.821,84.703 272.844,85.473 272.891,85.778 C 272.977,86.458 273.176,87.026 273.489,87.483 C 273.802,87.94 274.282,88.323 274.93,88.631 C 275.578,88.939 276.231,89.094 276.887,89.094 C 277.457,89.094 278.004,88.973 278.528,88.731 C 279.052,88.489 279.489,88.153 279.84,87.723 C 280.191,87.293 280.449,86.774 280.613,86.164 C 280.73,85.726 280.789,84.828 280.789,83.469 L 280.789,73.063 L 282.508,73.063 L 282.508,83.469 C 282.508,85.008 282.358,86.252 282.058,87.201 C 281.757,88.15 281.156,88.976 280.253,89.68 C 279.352,90.383 278.261,90.735 276.981,90.735 C 275.591,90.735 274.4,90.403 273.41,89.739 C 272.418,89.075 271.754,88.196 271.418,87.102 C 271.207,86.43 271.103,85.219 271.103,83.469 L 271.103,73.063 L 271.102,73.063 z "
         id="path72"
         style="fill:#ee7f00" />
      <path
         d="M 293.801,73.063 L 301.848,90.297 L 299.988,90.297 L 297.291,84.641 L 289.833,84.641 L 287.161,90.297 L 285.239,90.297 L 293.38,73.063 L 293.801,73.063 L 293.801,73.063 z M 293.585,76.697 L 290.622,82.969 L 296.538,82.969 L 293.585,76.697 z "
         id="path74"
         style="fill:#ee7f00" />
      <path
         d="M 304.508,73.063 L 306.227,73.063 L 306.227,88.625 L 312.868,88.625 L 312.868,90.297 L 304.509,90.297 L 304.509,73.063 L 304.508,73.063 z "
         id="path76"
         style="fill:#ee7f00" />
      <path
         d="M 203.903,97.063 L 205.622,97.063 L 205.622,112.625 L 212.263,112.625 L 212.263,114.297 L 203.904,114.297 L 203.904,97.063 L 203.903,97.063 z "
         id="path78"
         style="fill:#ee7f00" />
      <path
         d="M 222.036,97.063 L 230.083,114.297 L 228.223,114.297 L 225.526,108.641 L 218.068,108.641 L 215.396,114.297 L 213.474,114.297 L 221.615,97.063 L 222.036,97.063 L 222.036,97.063 z M 221.82,100.696 L 218.857,106.969 L 224.773,106.969 L 221.82,100.696 z "
         id="path80"
         style="fill:#ee7f00" />
      <path
         d="M 232.79,97.063 L 236.191,97.063 C 237.56,97.063 238.611,97.225 239.345,97.549 C 240.081,97.873 240.661,98.37 241.087,99.041 C 241.513,99.713 241.727,100.459 241.727,101.279 C 241.727,102.044 241.54,102.74 241.167,103.369 C 240.794,103.998 240.245,104.508 239.522,104.898 C 240.417,105.203 241.105,105.56 241.587,105.97 C 242.069,106.38 242.445,106.876 242.713,107.458 C 242.983,108.04 243.116,108.671 243.116,109.351 C 243.116,110.734 242.609,111.904 241.597,112.861 C 240.585,113.818 239.228,114.297 237.523,114.297 L 232.788,114.297 L 232.788,97.063 L 232.79,97.063 z M 234.477,98.75 L 234.477,104.266 L 235.464,104.266 C 236.664,104.266 237.546,104.155 238.11,103.932 C 238.674,103.709 239.122,103.358 239.452,102.877 C 239.78,102.398 239.945,101.865 239.945,101.279 C 239.945,100.49 239.669,99.871 239.116,99.423 C 238.563,98.975 237.682,98.75 236.475,98.75 L 234.477,98.75 z M 234.477,106 L 234.477,112.609 L 236.615,112.609 C 237.876,112.609 238.8,112.486 239.386,112.24 C 239.974,111.994 240.445,111.609 240.802,111.086 C 241.157,110.563 241.336,109.996 241.336,109.387 C 241.336,108.621 241.085,107.953 240.585,107.383 C 240.085,106.813 239.397,106.422 238.523,106.211 C 237.935,106.07 236.912,106 235.453,106 L 234.477,106 z "
         id="path82"
         style="fill:#ee7f00" />
      <path
         d="M 254.741,96.625 C 257.351,96.625 259.535,97.496 261.293,99.238 C 263.051,100.98 263.931,103.126 263.931,105.674 C 263.931,108.197 263.053,110.338 261.299,112.097 C 259.545,113.856 257.406,114.735 254.882,114.735 C 252.326,114.735 250.17,113.86 248.412,112.109 C 246.653,110.358 245.774,108.241 245.774,105.756 C 245.774,104.1 246.174,102.564 246.976,101.149 C 247.777,99.735 248.869,98.628 250.251,97.827 C 251.633,97.026 253.13,96.625 254.741,96.625 z M 254.817,98.297 C 253.543,98.297 252.334,98.629 251.191,99.295 C 250.05,99.959 249.158,100.856 248.517,101.983 C 247.876,103.11 247.555,104.366 247.555,105.751 C 247.555,107.801 248.265,109.532 249.685,110.944 C 251.103,112.356 252.814,113.063 254.817,113.063 C 256.154,113.063 257.392,112.738 258.53,112.088 C 259.668,111.438 260.556,110.551 261.193,109.424 C 261.83,108.297 262.149,107.045 262.149,105.668 C 262.149,104.299 261.83,103.061 261.193,101.953 C 260.556,100.845 259.658,99.959 258.501,99.295 C 257.343,98.629 256.115,98.297 254.817,98.297 z "
         id="path84"
         style="fill:#ee7f00" />
      <path
         d="M 267.477,97.063 L 270.911,97.063 C 272.825,97.063 274.122,97.141 274.802,97.297 C 275.825,97.531 276.657,98.033 277.298,98.805 C 277.939,99.575 278.259,100.524 278.259,101.651 C 278.259,102.589 278.037,103.415 277.596,104.126 C 277.155,104.839 276.524,105.376 275.703,105.739 C 274.883,106.104 273.75,106.29 272.305,106.298 L 278.509,114.298 L 276.377,114.298 L 270.174,106.298 L 269.196,106.298 L 269.196,114.298 L 267.477,114.298 L 267.477,97.063 L 267.477,97.063 z M 269.196,98.75 L 269.196,104.609 L 272.168,104.632 C 273.318,104.632 274.17,104.523 274.722,104.304 C 275.274,104.085 275.705,103.736 276.014,103.255 C 276.323,102.774 276.478,102.237 276.478,101.644 C 276.478,101.066 276.321,100.54 276.008,100.068 C 275.695,99.596 275.283,99.257 274.776,99.054 C 274.266,98.851 273.421,98.749 272.239,98.749 L 269.196,98.749 L 269.196,98.75 z "
         id="path86"
         style="fill:#ee7f00" />
      <path
         d="M 288.997,97.063 L 297.044,114.297 L 295.184,114.297 L 292.487,108.641 L 285.029,108.641 L 282.357,114.297 L 280.435,114.297 L 288.576,97.063 L 288.997,97.063 L 288.997,97.063 z M 288.781,100.696 L 285.818,106.969 L 291.734,106.969 L 288.781,100.696 z "
         id="path88"
         style="fill:#ee7f00" />
      <path
         d="M 296.055,98.75 L 296.055,97.062 L 305.508,97.062 L 305.508,98.75 L 301.664,98.75 L 301.664,114.297 L 299.898,114.297 L 299.898,98.75 L 296.055,98.75 z "
         id="path90"
         style="fill:#ee7f00" />
      <path
         d="M 316.194,96.625 C 318.804,96.625 320.988,97.496 322.746,99.238 C 324.504,100.98 325.384,103.126 325.384,105.674 C 325.384,108.197 324.506,110.338 322.752,112.097 C 320.998,113.856 318.859,114.735 316.335,114.735 C 313.779,114.735 311.623,113.86 309.865,112.109 C 308.106,110.358 307.227,108.241 307.227,105.756 C 307.227,104.1 307.627,102.564 308.429,101.149 C 309.23,99.735 310.322,98.628 311.704,97.827 C 313.086,97.026 314.583,96.625 316.194,96.625 z M 316.27,98.297 C 314.996,98.297 313.787,98.629 312.644,99.295 C 311.503,99.959 310.611,100.856 309.97,101.983 C 309.329,103.11 309.008,104.366 309.008,105.751 C 309.008,107.801 309.718,109.532 311.138,110.944 C 312.556,112.356 314.267,113.063 316.27,113.063 C 317.607,113.063 318.845,112.738 319.983,112.088 C 321.121,111.438 322.009,110.551 322.646,109.424 C 323.283,108.297 323.602,107.045 323.602,105.668 C 323.602,104.299 323.283,103.061 322.646,101.953 C 322.009,100.845 321.111,99.959 319.954,99.295 C 318.796,98.629 317.568,98.297 316.27,98.297 z "
         id="path92"
         style="fill:#ee7f00" />
      <path
         d="M 328.93,97.063 L 332.364,97.063 C 334.278,97.063 335.575,97.141 336.255,97.297 C 337.278,97.531 338.11,98.033 338.751,98.805 C 339.392,99.575 339.712,100.524 339.712,101.651 C 339.712,102.589 339.49,103.415 339.049,104.126 C 338.608,104.839 337.977,105.376 337.156,105.739 C 336.336,106.104 335.203,106.29 333.758,106.298 L 339.962,114.298 L 337.83,114.298 L 331.627,106.298 L 330.649,106.298 L 330.649,114.298 L 328.93,114.298 L 328.93,97.063 L 328.93,97.063 z M 330.649,98.75 L 330.649,104.609 L 333.621,104.632 C 334.771,104.632 335.623,104.523 336.175,104.304 C 336.727,104.085 337.158,103.736 337.467,103.255 C 337.776,102.774 337.931,102.237 337.931,101.644 C 337.931,101.066 337.774,100.54 337.461,100.068 C 337.148,99.596 336.736,99.257 336.229,99.054 C 335.719,98.851 334.874,98.749 333.692,98.749 L 330.649,98.749 L 330.649,98.75 z "
         id="path94"
         style="fill:#ee7f00" />
      <path
         d="M 341.563,97.063 L 343.544,97.063 L 347.962,104.208 L 352.325,97.063 L 354.297,97.063 L 348.828,106.059 L 348.828,114.297 L 347.125,114.297 L 347.125,106.059 L 341.563,97.063 z "
         id="path96"
         style="fill:#ee7f00" />
      <path
         d="M 177.34,121.063 L 187.231,121.063 L 187.231,122.751 L 179.059,122.751 L 179.059,128.157 L 187.153,128.157 L 187.153,129.845 L 179.059,129.845 L 179.059,136.611 L 187.153,136.611 L 187.153,138.299 L 177.341,138.299 L 177.341,121.063 L 177.34,121.063 z "
         id="path98"
         style="fill:#ee7f00" />
      <path
         d="M 190.208,138.297 L 190.208,121.063 L 190.583,121.063 L 202.052,134.265 L 202.052,121.063 L 203.755,121.063 L 203.755,138.297 L 203.367,138.297 L 191.989,125.246 L 191.989,138.297 L 190.208,138.297 z "
         id="path100"
         style="fill:#ee7f00" />
      <path
         d="M 206.633,121.063 L 208.508,121.063 L 214.224,134.391 L 220.023,121.063 L 221.899,121.063 L 214.399,138.297 L 214.024,138.297 L 206.633,121.063 z "
         id="path102"
         style="fill:#ee7f00" />
      <path
         d="M 224.563,121.063 L 226.282,121.063 L 226.282,138.297 L 224.563,138.297 L 224.563,121.063 z "
         id="path104"
         style="fill:#ee7f00" />
      <path
         d="M 230.317,121.063 L 233.751,121.063 C 235.665,121.063 236.962,121.141 237.642,121.297 C 238.665,121.531 239.497,122.033 240.138,122.805 C 240.779,123.575 241.099,124.524 241.099,125.651 C 241.099,126.589 240.877,127.415 240.436,128.126 C 239.995,128.839 239.364,129.376 238.543,129.739 C 237.723,130.104 236.59,130.29 235.145,130.298 L 241.349,138.298 L 239.217,138.298 L 233.014,130.298 L 232.036,130.298 L 232.036,138.298 L 230.317,138.298 L 230.317,121.063 z M 232.036,122.75 L 232.036,128.609 L 235.008,128.632 C 236.158,128.632 237.01,128.523 237.562,128.304 C 238.114,128.085 238.545,127.736 238.854,127.255 C 239.163,126.774 239.318,126.237 239.318,125.644 C 239.318,125.066 239.161,124.54 238.848,124.068 C 238.535,123.596 238.123,123.257 237.616,123.054 C 237.106,122.851 236.261,122.749 235.079,122.749 L 232.036,122.749 L 232.036,122.75 z "
         id="path106"
         style="fill:#ee7f00" />
      <path
         d="M 253.006,120.625 C 255.616,120.625 257.8,121.496 259.558,123.238 C 261.316,124.98 262.196,127.126 262.196,129.674 C 262.196,132.197 261.318,134.338 259.564,136.097 C 257.81,137.856 255.671,138.735 253.147,138.735 C 250.591,138.735 248.435,137.86 246.677,136.109 C 244.918,134.358 244.039,132.241 244.039,129.756 C 244.039,128.1 244.439,126.564 245.241,125.149 C 246.042,123.735 247.134,122.628 248.516,121.827 C 249.898,121.026 251.396,120.625 253.006,120.625 z M 253.083,122.297 C 251.809,122.297 250.6,122.629 249.457,123.295 C 248.316,123.959 247.424,124.856 246.783,125.983 C 246.142,127.11 245.821,128.366 245.821,129.751 C 245.821,131.801 246.531,133.532 247.951,134.944 C 249.369,136.356 251.08,137.063 253.083,137.063 C 254.42,137.063 255.658,136.738 256.796,136.088 C 257.934,135.438 258.822,134.551 259.459,133.424 C 260.096,132.297 260.415,131.045 260.415,129.668 C 260.415,128.299 260.096,127.061 259.459,125.953 C 258.822,124.845 257.924,123.959 256.767,123.295 C 255.609,122.629 254.38,122.297 253.083,122.297 z "
         id="path108"
         style="fill:#ee7f00" />
      <path
         d="M 265.665,138.297 L 265.665,121.063 L 266.04,121.063 L 277.509,134.265 L 277.509,121.063 L 279.212,121.063 L 279.212,138.297 L 278.824,138.297 L 267.446,125.246 L 267.446,138.297 L 265.665,138.297 z "
         id="path110"
         style="fill:#ee7f00" />
      <path
         d="M 282.622,138.297 L 285.096,121.063 L 285.379,121.063 L 292.396,135.204 L 299.346,121.063 L 299.619,121.063 L 302.106,138.297 L 300.423,138.297 L 298.707,125.969 L 292.603,138.297 L 292.152,138.297 L 285.989,125.875 L 284.286,138.297 L 282.622,138.297 L 282.622,138.297 z "
         id="path112"
         style="fill:#ee7f00" />
      <path
         d="M 305.473,121.063 L 315.364,121.063 L 315.364,122.751 L 307.192,122.751 L 307.192,128.157 L 315.286,128.157 L 315.286,129.845 L 307.192,129.845 L 307.192,136.611 L 315.286,136.611 L 315.286,138.299 L 305.474,138.299 L 305.474,121.063 L 305.473,121.063 z "
         id="path114"
         style="fill:#ee7f00" />
      <path
         d="M 318.34,138.297 L 318.34,121.063 L 318.715,121.063 L 330.184,134.265 L 330.184,121.063 L 331.887,121.063 L 331.887,138.297 L 331.5,138.297 L 320.122,125.246 L 320.122,138.297 L 318.34,138.297 z "
         id="path116"
         style="fill:#ee7f00" />
      <path
         d="M 334.375,122.75 L 334.375,121.062 L 343.828,121.062 L 343.828,122.75 L 339.984,122.75 L 339.984,138.297 L 338.218,138.297 L 338.218,122.75 L 334.375,122.75 z "
         id="path118"
         style="fill:#ee7f00" />
    </g>
    <g
       transform="translate(10.786867,41.36797)"
       id="g120">
      <path
         d="M 138.984,147.795 L 138.026,148.705 C 137.374,148.019 136.641,147.676 135.826,147.676 C 135.138,147.676 134.559,147.91 134.089,148.379 C 133.618,148.847 133.382,149.424 133.382,150.11 C 133.382,150.588 133.486,151.012 133.695,151.383 C 133.903,151.754 134.198,152.045 134.58,152.256 C 134.961,152.468 135.385,152.573 135.851,152.573 C 136.248,152.573 136.612,152.499 136.941,152.351 C 137.27,152.203 137.632,151.934 138.026,151.543 L 138.955,152.512 C 138.424,153.032 137.922,153.391 137.451,153.592 C 136.978,153.792 136.44,153.893 135.834,153.893 C 134.717,153.893 133.803,153.539 133.091,152.831 C 132.38,152.124 132.024,151.217 132.024,150.111 C 132.024,149.395 132.186,148.759 132.51,148.203 C 132.834,147.646 133.298,147.199 133.903,146.861 C 134.507,146.522 135.157,146.353 135.854,146.353 C 136.447,146.353 137.018,146.478 137.566,146.728 C 138.114,146.981 138.587,147.335 138.984,147.795 z "
         id="path122"
         style="fill:#9c9d9f" />
      <path
         d="M 142.528,148.27 C 143.029,148.27 143.5,148.395 143.941,148.645 C 144.382,148.896 144.726,149.235 144.974,149.665 C 145.222,150.095 145.345,150.558 145.345,151.055 C 145.345,151.556 145.22,152.024 144.971,152.459 C 144.722,152.894 144.383,153.235 143.953,153.48 C 143.523,153.725 143.05,153.848 142.532,153.848 C 141.77,153.848 141.12,153.577 140.582,153.036 C 140.043,152.494 139.774,151.837 139.774,151.063 C 139.774,150.234 140.078,149.543 140.687,148.991 C 141.221,148.51 141.834,148.27 142.528,148.27 z M 142.545,149.528 C 142.132,149.528 141.789,149.672 141.514,149.959 C 141.24,150.245 141.102,150.612 141.102,151.06 C 141.102,151.521 141.238,151.894 141.509,152.179 C 141.78,152.464 142.124,152.607 142.54,152.607 C 142.956,152.607 143.302,152.462 143.578,152.174 C 143.854,151.886 143.993,151.514 143.993,151.06 C 143.993,150.607 143.857,150.238 143.586,149.955 C 143.315,149.669 142.968,149.528 142.545,149.528 z "
         id="path124"
         style="fill:#9c9d9f" />
      <path
         d="M 146.426,148.403 L 147.762,148.403 L 147.762,149.02 C 147.99,148.768 148.243,148.581 148.522,148.457 C 148.801,148.333 149.105,148.27 149.434,148.27 C 149.767,148.27 150.067,148.352 150.334,148.516 C 150.602,148.679 150.817,148.918 150.98,149.232 C 151.192,148.919 151.452,148.679 151.76,148.516 C 152.068,148.352 152.405,148.27 152.77,148.27 C 153.148,148.27 153.481,148.358 153.768,148.534 C 154.055,148.71 154.261,148.938 154.387,149.222 C 154.513,149.506 154.575,149.966 154.575,150.603 L 154.575,153.716 L 153.239,153.716 L 153.239,151.028 C 153.239,150.427 153.163,150.02 153.012,149.807 C 152.861,149.595 152.635,149.489 152.333,149.489 C 152.104,149.489 151.897,149.553 151.715,149.684 C 151.533,149.813 151.398,149.993 151.309,150.221 C 151.221,150.45 151.176,150.818 151.176,151.325 L 151.176,153.716 L 149.84,153.716 L 149.84,151.15 C 149.84,150.676 149.805,150.334 149.735,150.121 C 149.665,149.908 149.56,149.75 149.419,149.646 C 149.278,149.542 149.108,149.49 148.909,149.49 C 148.687,149.49 148.485,149.556 148.304,149.687 C 148.123,149.818 147.987,150.002 147.897,150.24 C 147.807,150.476 147.762,150.85 147.762,151.36 L 147.762,153.716 L 146.426,153.716 L 146.426,148.403 L 146.426,148.403 z "
         id="path126"
         style="fill:#9c9d9f" />
      <path
         d="M 157.169,148.403 L 157.169,148.985 C 157.409,148.747 157.669,148.568 157.948,148.449 C 158.227,148.33 158.526,148.27 158.844,148.27 C 159.535,148.27 160.123,148.532 160.607,149.055 C 161.091,149.578 161.333,150.249 161.333,151.069 C 161.333,151.859 161.083,152.52 160.583,153.051 C 160.083,153.582 159.49,153.848 158.805,153.848 C 158.5,153.848 158.216,153.793 157.953,153.685 C 157.69,153.576 157.429,153.398 157.169,153.151 L 157.169,155.661 L 155.833,155.661 L 155.833,148.403 L 157.169,148.403 L 157.169,148.403 z M 158.563,149.489 C 158.144,149.489 157.796,149.633 157.521,149.92 C 157.246,150.207 157.107,150.582 157.107,151.045 C 157.107,151.518 157.245,151.9 157.521,152.192 C 157.797,152.483 158.145,152.63 158.563,152.63 C 158.969,152.63 159.311,152.482 159.588,152.185 C 159.865,151.888 160.005,151.51 160.005,151.05 C 160.005,150.593 159.869,150.219 159.596,149.927 C 159.323,149.635 158.979,149.489 158.563,149.489 z "
         id="path128"
         style="fill:#9c9d9f" />
      <path
         d="M 162.294,146.348 L 163.63,146.348 L 163.63,153.715 L 162.294,153.715 L 162.294,146.348 z "
         id="path130"
         style="fill:#9c9d9f" />
      <path
         d="M 170.155,151.434 L 165.871,151.434 C 165.933,151.814 166.098,152.116 166.366,152.34 C 166.634,152.564 166.975,152.676 167.391,152.676 C 167.888,152.676 168.315,152.501 168.672,152.151 L 169.793,152.679 C 169.513,153.076 169.179,153.371 168.789,153.562 C 168.399,153.752 167.936,153.848 167.4,153.848 C 166.568,153.848 165.891,153.585 165.367,153.061 C 164.844,152.536 164.582,151.878 164.582,151.088 C 164.582,150.278 164.843,149.607 165.366,149.072 C 165.889,148.537 166.544,148.269 167.332,148.269 C 168.169,148.269 168.849,148.536 169.374,149.069 C 169.898,149.601 170.161,150.306 170.161,151.18 L 170.155,151.434 z M 168.824,150.395 C 168.736,150.104 168.562,149.867 168.303,149.684 C 168.044,149.502 167.743,149.411 167.401,149.411 C 167.029,149.411 166.703,149.514 166.423,149.719 C 166.247,149.847 166.084,150.073 165.934,150.396 L 168.824,150.396 L 168.824,150.395 z "
         id="path132"
         style="fill:#9c9d9f" />
      <path
         d="M 170.76,148.403 L 172.309,148.403 L 173.359,149.851 L 174.405,148.403 L 175.926,148.403 L 174.122,150.901 L 176.164,153.715 L 174.615,153.715 L 173.349,151.971 L 172.09,153.715 L 170.569,153.715 L 172.587,150.92 L 170.76,148.403 z "
         id="path134"
         style="fill:#9c9d9f" />
      <path
         d="M 182.882,149.149 L 182.059,149.973 C 181.724,149.64 181.421,149.473 181.148,149.473 C 180.999,149.473 180.882,149.504 180.797,149.569 C 180.712,149.631 180.671,149.711 180.671,149.805 C 180.671,149.876 180.697,149.942 180.751,150.002 C 180.805,150.062 180.937,150.145 181.148,150.248 L 181.635,150.492 C 182.15,150.746 182.502,151.004 182.695,151.267 C 182.886,151.531 182.983,151.839 182.983,152.194 C 182.983,152.666 182.809,153.058 182.463,153.375 C 182.116,153.689 181.652,153.848 181.07,153.848 C 180.296,153.848 179.677,153.545 179.216,152.938 L 180.033,152.043 C 180.189,152.225 180.372,152.372 180.581,152.484 C 180.79,152.595 180.977,152.652 181.139,152.652 C 181.314,152.652 181.455,152.61 181.563,152.525 C 181.669,152.441 181.724,152.343 181.724,152.233 C 181.724,152.029 181.531,151.829 181.144,151.634 L 180.697,151.409 C 179.84,150.977 179.412,150.437 179.412,149.788 C 179.412,149.369 179.573,149.011 179.896,148.714 C 180.219,148.417 180.632,148.269 181.136,148.269 C 181.48,148.269 181.804,148.345 182.108,148.496 C 182.414,148.649 182.67,148.866 182.882,149.149 z "
         id="path136"
         style="fill:#9c9d9f" />
      <path
         d="M 183.429,148.403 L 184.799,148.403 L 186.184,151.737 L 187.712,148.403 L 189.081,148.403 L 185.743,155.661 L 184.366,155.661 L 185.458,153.311 L 183.429,148.403 z "
         id="path138"
         style="fill:#9c9d9f" />
      <path
         d="M 193.082,149.149 L 192.26,149.973 C 191.925,149.64 191.621,149.473 191.349,149.473 C 191.2,149.473 191.082,149.504 190.998,149.569 C 190.914,149.631 190.871,149.711 190.871,149.805 C 190.871,149.876 190.898,149.942 190.952,150.002 C 191.006,150.062 191.139,150.145 191.349,150.248 L 191.837,150.492 C 192.351,150.746 192.703,151.004 192.896,151.267 C 193.087,151.531 193.183,151.839 193.183,152.194 C 193.183,152.666 193.01,153.058 192.663,153.375 C 192.317,153.689 191.852,153.848 191.27,153.848 C 190.497,153.848 189.878,153.545 189.416,152.938 L 190.234,152.043 C 190.39,152.225 190.573,152.372 190.782,152.484 C 190.992,152.595 191.178,152.652 191.34,152.652 C 191.516,152.652 191.656,152.61 191.764,152.525 C 191.871,152.441 191.924,152.343 191.924,152.233 C 191.924,152.029 191.732,151.829 191.345,151.634 L 190.897,151.409 C 190.041,150.977 189.612,150.437 189.612,149.788 C 189.612,149.369 189.774,149.011 190.097,148.714 C 190.42,148.417 190.833,148.269 191.336,148.269 C 191.681,148.269 192.005,148.345 192.309,148.496 C 192.614,148.649 192.871,148.866 193.082,149.149 z "
         id="path140"
         style="fill:#9c9d9f" />
      <path
         d="M 194.396,146.442 L 195.732,146.442 L 195.732,148.403 L 196.521,148.403 L 196.521,149.551 L 195.732,149.551 L 195.732,153.715 L 194.396,153.715 L 194.396,149.551 L 193.708,149.551 L 193.708,148.403 L 194.396,148.403 L 194.396,146.442 z "
         id="path142"
         style="fill:#9c9d9f" />
      <path
         d="M 202.552,151.434 L 198.269,151.434 C 198.33,151.814 198.496,152.116 198.763,152.34 C 199.031,152.564 199.372,152.676 199.788,152.676 C 200.285,152.676 200.712,152.501 201.069,152.151 L 202.19,152.679 C 201.91,153.076 201.575,153.371 201.185,153.562 C 200.795,153.753 200.332,153.848 199.795,153.848 C 198.963,153.848 198.286,153.585 197.763,153.061 C 197.241,152.536 196.979,151.878 196.979,151.088 C 196.979,150.278 197.24,149.607 197.762,149.072 C 198.285,148.537 198.94,148.269 199.729,148.269 C 200.565,148.269 201.246,148.536 201.77,149.069 C 202.294,149.601 202.557,150.306 202.557,151.18 L 202.552,151.434 z M 201.222,150.395 C 201.133,150.104 200.96,149.867 200.701,149.684 C 200.441,149.502 200.14,149.411 199.799,149.411 C 199.428,149.411 199.102,149.514 198.82,149.719 C 198.644,149.847 198.481,150.073 198.332,150.396 L 201.222,150.396 L 201.222,150.395 z "
         id="path144"
         style="fill:#9c9d9f" />
      <path
         d="M 203.623,148.403 L 204.959,148.403 L 204.959,149.02 C 205.188,148.768 205.441,148.581 205.72,148.457 C 205.999,148.333 206.303,148.27 206.632,148.27 C 206.965,148.27 207.265,148.352 207.531,148.516 C 207.799,148.679 208.014,148.918 208.177,149.232 C 208.389,148.919 208.649,148.679 208.956,148.516 C 209.265,148.352 209.601,148.27 209.966,148.27 C 210.345,148.27 210.677,148.358 210.964,148.534 C 211.251,148.71 211.457,148.938 211.583,149.222 C 211.708,149.505 211.771,149.966 211.771,150.603 L 211.771,153.716 L 210.435,153.716 L 210.435,151.028 C 210.435,150.427 210.36,150.02 210.208,149.807 C 210.058,149.595 209.831,149.489 209.529,149.489 C 209.3,149.489 209.093,149.553 208.911,149.684 C 208.729,149.813 208.595,149.993 208.505,150.221 C 208.417,150.45 208.372,150.818 208.372,151.325 L 208.372,153.716 L 207.036,153.716 L 207.036,151.15 C 207.036,150.676 207.001,150.334 206.931,150.121 C 206.861,149.908 206.756,149.75 206.616,149.646 C 206.475,149.542 206.305,149.49 206.106,149.49 C 205.884,149.49 205.682,149.556 205.501,149.687 C 205.32,149.818 205.184,150.002 205.094,150.24 C 205.004,150.476 204.959,150.85 204.959,151.36 L 204.959,153.716 L 203.623,153.716 L 203.623,148.403 L 203.623,148.403 z "
         id="path146"
         style="fill:#9c9d9f" />
      <path
         d="M 216.281,149.149 L 215.458,149.973 C 215.123,149.64 214.82,149.473 214.547,149.473 C 214.398,149.473 214.281,149.504 214.196,149.569 C 214.111,149.631 214.07,149.711 214.07,149.805 C 214.07,149.876 214.096,149.942 214.15,150.002 C 214.204,150.062 214.336,150.145 214.547,150.248 L 215.034,150.492 C 215.549,150.746 215.901,151.004 216.094,151.267 C 216.285,151.531 216.382,151.839 216.382,152.194 C 216.382,152.666 216.208,153.058 215.862,153.375 C 215.515,153.689 215.051,153.848 214.469,153.848 C 213.695,153.848 213.076,153.545 212.615,152.938 L 213.432,152.043 C 213.588,152.225 213.771,152.372 213.98,152.484 C 214.189,152.595 214.376,152.652 214.538,152.652 C 214.713,152.652 214.854,152.61 214.962,152.525 C 215.068,152.441 215.123,152.343 215.123,152.233 C 215.123,152.029 214.93,151.829 214.543,151.634 L 214.096,151.409 C 213.239,150.977 212.811,150.437 212.811,149.788 C 212.811,149.369 212.972,149.011 213.295,148.714 C 213.618,148.417 214.031,148.269 214.535,148.269 C 214.879,148.269 215.203,148.345 215.507,148.496 C 215.812,148.649 216.069,148.866 216.281,149.149 z "
         id="path148"
         style="fill:#9c9d9f" />
      <path
         d="M 220.22,148.403 L 221.556,148.403 L 221.556,149.02 C 221.784,148.768 222.036,148.581 222.316,148.457 C 222.596,148.333 222.899,148.27 223.228,148.27 C 223.561,148.27 223.861,148.352 224.128,148.516 C 224.396,148.679 224.61,148.918 224.774,149.232 C 224.986,148.919 225.246,148.679 225.554,148.516 C 225.862,148.352 226.199,148.27 226.564,148.27 C 226.942,148.27 227.275,148.358 227.561,148.534 C 227.848,148.71 228.054,148.938 228.179,149.222 C 228.305,149.505 228.368,149.966 228.368,150.603 L 228.368,153.716 L 227.032,153.716 L 227.032,151.028 C 227.032,150.427 226.956,150.02 226.805,149.807 C 226.654,149.595 226.427,149.489 226.125,149.489 C 225.896,149.489 225.689,149.553 225.508,149.684 C 225.325,149.813 225.19,149.993 225.102,150.221 C 225.013,150.45 224.969,150.818 224.969,151.325 L 224.969,153.716 L 223.633,153.716 L 223.633,151.15 C 223.633,150.676 223.598,150.334 223.528,150.121 C 223.458,149.908 223.352,149.75 223.212,149.646 C 223.071,149.542 222.901,149.49 222.702,149.49 C 222.479,149.49 222.278,149.556 222.097,149.687 C 221.916,149.818 221.781,150.002 221.691,150.24 C 221.601,150.476 221.556,150.85 221.556,151.36 L 221.556,153.716 L 220.22,153.716 L 220.22,148.403 L 220.22,148.403 z "
         id="path150"
         style="fill:#9c9d9f" />
      <path
         d="M 232.123,148.27 C 232.624,148.27 233.096,148.395 233.536,148.645 C 233.977,148.896 234.321,149.235 234.568,149.665 C 234.816,150.095 234.939,150.558 234.939,151.055 C 234.939,151.556 234.815,152.024 234.566,152.459 C 234.317,152.894 233.978,153.235 233.548,153.48 C 233.118,153.725 232.645,153.848 232.127,153.848 C 231.365,153.848 230.716,153.577 230.177,153.036 C 229.638,152.494 229.368,151.837 229.368,151.063 C 229.368,150.234 229.673,149.543 230.282,148.991 C 230.816,148.51 231.429,148.27 232.123,148.27 z M 232.14,149.528 C 231.728,149.528 231.384,149.672 231.109,149.959 C 230.835,150.245 230.697,150.612 230.697,151.06 C 230.697,151.521 230.834,151.894 231.104,152.179 C 231.375,152.464 231.719,152.607 232.135,152.607 C 232.551,152.607 232.897,152.462 233.173,152.174 C 233.449,151.886 233.587,151.514 233.587,151.06 C 233.587,150.607 233.452,150.238 233.181,149.955 C 232.91,149.669 232.562,149.528 232.14,149.528 z "
         id="path152"
         style="fill:#9c9d9f" />
      <path
         d="M 239.951,146.348 L 241.287,146.348 L 241.287,153.715 L 239.951,153.715 L 239.951,153.153 C 239.69,153.399 239.43,153.577 239.168,153.685 C 238.906,153.793 238.623,153.848 238.317,153.848 C 237.63,153.848 237.038,153.582 236.537,153.051 C 236.037,152.52 235.787,151.859 235.787,151.069 C 235.787,150.25 236.029,149.579 236.514,149.055 C 236.999,148.531 237.586,148.27 238.279,148.27 C 238.597,148.27 238.897,148.33 239.176,148.449 C 239.455,148.569 239.713,148.748 239.951,148.986 L 239.951,146.348 z M 238.551,149.489 C 238.138,149.489 237.796,149.635 237.523,149.927 C 237.251,150.219 237.115,150.593 237.115,151.05 C 237.115,151.51 237.254,151.888 237.531,152.185 C 237.808,152.482 238.15,152.63 238.556,152.63 C 238.975,152.63 239.323,152.484 239.599,152.192 C 239.874,151.9 240.013,151.517 240.013,151.045 C 240.013,150.582 239.874,150.207 239.599,149.92 C 239.323,149.632 238.973,149.489 238.551,149.489 z "
         id="path154"
         style="fill:#9c9d9f" />
      <path
         d="M 247.953,151.434 L 243.67,151.434 C 243.731,151.814 243.897,152.116 244.164,152.34 C 244.432,152.564 244.773,152.676 245.189,152.676 C 245.686,152.676 246.113,152.501 246.47,152.151 L 247.591,152.679 C 247.311,153.076 246.976,153.371 246.586,153.562 C 246.196,153.753 245.733,153.848 245.196,153.848 C 244.364,153.848 243.687,153.585 243.164,153.061 C 242.642,152.536 242.38,151.878 242.38,151.088 C 242.38,150.278 242.641,149.607 243.163,149.072 C 243.686,148.537 244.341,148.269 245.13,148.269 C 245.966,148.269 246.647,148.536 247.171,149.069 C 247.695,149.601 247.958,150.306 247.958,151.18 L 247.953,151.434 z M 246.623,150.395 C 246.534,150.104 246.361,149.867 246.102,149.684 C 245.842,149.502 245.541,149.411 245.2,149.411 C 244.829,149.411 244.503,149.514 244.221,149.719 C 244.045,149.847 243.882,150.073 243.733,150.396 L 246.623,150.396 L 246.623,150.395 z "
         id="path156"
         style="fill:#9c9d9f" />
      <path
         d="M 248.89,146.348 L 250.226,146.348 L 250.226,153.715 L 248.89,153.715 L 248.89,146.348 z "
         id="path158"
         style="fill:#9c9d9f" />
      <path
         d="M 251.289,146.348 L 252.625,146.348 L 252.625,153.715 L 251.289,153.715 L 251.289,146.348 z "
         id="path160"
         style="fill:#9c9d9f" />
      <path
         d="M 254.355,146.215 C 254.589,146.215 254.791,146.299 254.958,146.469 C 255.125,146.638 255.209,146.842 255.209,147.083 C 255.209,147.32 255.127,147.523 254.961,147.69 C 254.795,147.857 254.596,147.941 254.365,147.941 C 254.128,147.941 253.926,147.855 253.758,147.685 C 253.59,147.514 253.506,147.307 253.506,147.063 C 253.506,146.829 253.59,146.628 253.756,146.463 C 253.92,146.298 254.121,146.215 254.355,146.215 z M 253.685,148.403 L 255.021,148.403 L 255.021,153.715 L 253.685,153.715 L 253.685,148.403 z "
         id="path162"
         style="fill:#9c9d9f" />
      <path
         d="M 256.224,148.403 L 257.56,148.403 L 257.56,148.948 C 257.861,148.695 258.135,148.518 258.38,148.419 C 258.625,148.32 258.876,148.271 259.132,148.271 C 259.658,148.271 260.105,148.455 260.472,148.822 C 260.781,149.134 260.935,149.597 260.935,150.209 L 260.935,153.717 L 259.615,153.717 L 259.615,151.392 C 259.615,150.758 259.586,150.337 259.529,150.129 C 259.472,149.921 259.374,149.763 259.233,149.653 C 259.092,149.545 258.918,149.49 258.711,149.49 C 258.442,149.49 258.212,149.58 258.02,149.761 C 257.827,149.942 257.694,150.191 257.619,150.51 C 257.581,150.675 257.561,151.034 257.561,151.586 L 257.561,153.717 L 256.225,153.717 L 256.225,148.403 L 256.224,148.403 z "
         id="path164"
         style="fill:#9c9d9f" />
      <path
         d="M 266.162,148.403 L 267.482,148.403 L 267.482,152.953 C 267.482,153.85 267.302,154.512 266.941,154.934 C 266.455,155.507 265.724,155.793 264.748,155.793 C 264.227,155.793 263.789,155.729 263.435,155.598 C 263.08,155.468 262.78,155.278 262.536,155.026 C 262.292,154.774 262.112,154.467 261.995,154.106 L 263.468,154.106 C 263.598,154.255 263.766,154.368 263.972,154.445 C 264.177,154.521 264.42,154.559 264.701,154.559 C 265.06,154.559 265.349,154.504 265.567,154.393 C 265.786,154.283 265.94,154.14 266.029,153.964 C 266.119,153.788 266.164,153.486 266.164,153.057 C 265.93,153.291 265.684,153.459 265.426,153.562 C 265.168,153.665 264.876,153.715 264.55,153.715 C 263.836,153.715 263.233,153.458 262.739,152.944 C 262.246,152.43 262,151.78 262,150.993 C 262,150.15 262.262,149.473 262.783,148.964 C 263.256,148.501 263.82,148.271 264.476,148.271 C 264.783,148.271 265.072,148.327 265.344,148.439 C 265.616,148.55 265.89,148.734 266.163,148.99 L 266.163,148.403 L 266.162,148.403 z M 264.771,149.512 C 264.351,149.512 264.003,149.653 263.73,149.935 C 263.456,150.217 263.318,150.571 263.318,150.997 C 263.318,151.439 263.459,151.803 263.74,152.087 C 264.019,152.37 264.372,152.512 264.797,152.512 C 265.211,152.512 265.553,152.373 265.821,152.097 C 266.09,151.82 266.224,151.457 266.224,151.007 C 266.224,150.565 266.089,150.204 265.818,149.927 C 265.548,149.651 265.199,149.512 264.771,149.512 z "
         id="path166"
         style="fill:#9c9d9f" />
      <path
         d="M 275.546,148.403 L 276.882,148.403 L 276.882,153.715 L 275.546,153.715 L 275.546,153.153 C 275.285,153.399 275.025,153.577 274.763,153.685 C 274.501,153.793 274.218,153.848 273.912,153.848 C 273.225,153.848 272.633,153.582 272.132,153.051 C 271.632,152.52 271.382,151.859 271.382,151.069 C 271.382,150.25 271.624,149.579 272.109,149.055 C 272.594,148.531 273.181,148.27 273.874,148.27 C 274.192,148.27 274.492,148.33 274.771,148.449 C 275.05,148.568 275.308,148.747 275.546,148.985 L 275.546,148.403 L 275.546,148.403 z M 274.147,149.489 C 273.734,149.489 273.392,149.635 273.119,149.927 C 272.847,150.219 272.711,150.593 272.711,151.05 C 272.711,151.51 272.85,151.888 273.127,152.185 C 273.404,152.482 273.746,152.63 274.152,152.63 C 274.571,152.63 274.919,152.484 275.195,152.192 C 275.47,151.9 275.609,151.517 275.609,151.045 C 275.609,150.582 275.47,150.207 275.195,149.92 C 274.918,149.632 274.569,149.489 274.147,149.489 z "
         id="path168"
         style="fill:#9c9d9f" />
      <path
         d="M 278.226,148.403 L 279.562,148.403 L 279.562,148.948 C 279.863,148.695 280.137,148.518 280.382,148.419 C 280.627,148.32 280.878,148.271 281.134,148.271 C 281.66,148.271 282.107,148.455 282.474,148.822 C 282.783,149.134 282.937,149.597 282.937,150.209 L 282.937,153.717 L 281.617,153.717 L 281.617,151.392 C 281.617,150.758 281.588,150.337 281.531,150.129 C 281.474,149.921 281.376,149.763 281.235,149.653 C 281.094,149.545 280.92,149.49 280.713,149.49 C 280.444,149.49 280.214,149.58 280.022,149.761 C 279.829,149.942 279.696,150.191 279.621,150.51 C 279.583,150.675 279.563,151.034 279.563,151.586 L 279.563,153.717 L 278.227,153.717 L 278.227,148.403 L 278.226,148.403 z "
         id="path170"
         style="fill:#9c9d9f" />
      <path
         d="M 288.148,146.348 L 289.484,146.348 L 289.484,153.715 L 288.148,153.715 L 288.148,153.153 C 287.888,153.399 287.627,153.577 287.366,153.685 C 287.105,153.793 286.821,153.848 286.515,153.848 C 285.829,153.848 285.236,153.582 284.736,153.051 C 284.235,152.52 283.984,151.859 283.984,151.069 C 283.984,150.25 284.226,149.579 284.711,149.055 C 285.196,148.531 285.784,148.27 286.477,148.27 C 286.795,148.27 287.094,148.33 287.373,148.449 C 287.653,148.569 287.912,148.748 288.148,148.986 L 288.148,146.348 z M 286.75,149.489 C 286.338,149.489 285.995,149.635 285.723,149.927 C 285.45,150.219 285.313,150.593 285.313,151.05 C 285.313,151.51 285.452,151.888 285.73,152.185 C 286.007,152.482 286.349,152.63 286.755,152.63 C 287.174,152.63 287.522,152.484 287.797,152.192 C 288.073,151.9 288.211,151.517 288.211,151.045 C 288.211,150.582 288.073,150.207 287.797,149.92 C 287.521,149.632 287.171,149.489 286.75,149.489 z "
         id="path172"
         style="fill:#9c9d9f" />
      <path
         d="M 296.876,149.149 L 296.053,149.973 C 295.718,149.64 295.415,149.473 295.142,149.473 C 294.993,149.473 294.876,149.504 294.791,149.569 C 294.706,149.631 294.665,149.711 294.665,149.805 C 294.665,149.876 294.691,149.942 294.745,150.002 C 294.799,150.062 294.931,150.145 295.142,150.248 L 295.629,150.492 C 296.144,150.746 296.496,151.004 296.689,151.267 C 296.88,151.531 296.977,151.839 296.977,152.194 C 296.977,152.666 296.803,153.058 296.457,153.375 C 296.11,153.689 295.646,153.848 295.064,153.848 C 294.29,153.848 293.671,153.545 293.21,152.938 L 294.027,152.043 C 294.183,152.225 294.366,152.372 294.575,152.484 C 294.784,152.595 294.971,152.652 295.133,152.652 C 295.308,152.652 295.449,152.61 295.557,152.525 C 295.663,152.441 295.718,152.343 295.718,152.233 C 295.718,152.029 295.525,151.829 295.138,151.634 L 294.691,151.409 C 293.834,150.977 293.406,150.437 293.406,149.788 C 293.406,149.369 293.567,149.011 293.89,148.714 C 294.213,148.417 294.626,148.269 295.13,148.269 C 295.474,148.269 295.798,148.345 296.102,148.496 C 296.408,148.649 296.665,148.866 296.876,149.149 z "
         id="path174"
         style="fill:#9c9d9f" />
      <path
         d="M 298.554,146.215 C 298.788,146.215 298.99,146.299 299.157,146.469 C 299.324,146.638 299.408,146.842 299.408,147.083 C 299.408,147.32 299.326,147.523 299.16,147.69 C 298.994,147.857 298.795,147.941 298.564,147.941 C 298.327,147.941 298.125,147.855 297.957,147.685 C 297.789,147.514 297.705,147.307 297.705,147.063 C 297.705,146.829 297.789,146.628 297.955,146.463 C 298.12,146.298 298.32,146.215 298.554,146.215 z M 297.884,148.403 L 299.22,148.403 L 299.22,153.715 L 297.884,153.715 L 297.884,148.403 z "
         id="path176"
         style="fill:#9c9d9f" />
      <path
         d="M 300.416,148.403 L 301.752,148.403 L 301.752,149.02 C 301.98,148.768 302.232,148.581 302.512,148.457 C 302.792,148.333 303.095,148.27 303.424,148.27 C 303.757,148.27 304.057,148.352 304.324,148.516 C 304.592,148.679 304.806,148.918 304.97,149.232 C 305.182,148.919 305.442,148.679 305.75,148.516 C 306.058,148.352 306.395,148.27 306.76,148.27 C 307.138,148.27 307.471,148.358 307.757,148.534 C 308.044,148.71 308.25,148.938 308.375,149.222 C 308.501,149.505 308.564,149.966 308.564,150.603 L 308.564,153.716 L 307.228,153.716 L 307.228,151.028 C 307.228,150.427 307.152,150.02 307.001,149.807 C 306.85,149.595 306.623,149.489 306.321,149.489 C 306.092,149.489 305.885,149.553 305.704,149.684 C 305.521,149.813 305.386,149.993 305.298,150.221 C 305.209,150.45 305.165,150.818 305.165,151.325 L 305.165,153.716 L 303.829,153.716 L 303.829,151.15 C 303.829,150.676 303.794,150.334 303.724,150.121 C 303.654,149.908 303.548,149.75 303.408,149.646 C 303.267,149.542 303.097,149.49 302.898,149.49 C 302.675,149.49 302.474,149.556 302.293,149.687 C 302.112,149.818 301.977,150.002 301.887,150.24 C 301.797,150.476 301.752,150.85 301.752,151.36 L 301.752,153.716 L 300.416,153.716 L 300.416,148.403 L 300.416,148.403 z "
         id="path178"
         style="fill:#9c9d9f" />
      <path
         d="M 309.822,148.403 L 311.174,148.403 L 311.174,150.958 C 311.174,151.456 311.209,151.802 311.277,151.995 C 311.345,152.188 311.455,152.339 311.606,152.445 C 311.756,152.552 311.942,152.606 312.163,152.606 C 312.384,152.606 312.571,152.553 312.725,152.448 C 312.879,152.343 312.994,152.186 313.069,151.982 C 313.124,151.829 313.151,151.503 313.151,151.002 L 313.151,148.403 L 314.487,148.403 L 314.487,150.653 C 314.487,151.58 314.415,152.214 314.268,152.555 C 314.088,152.971 313.825,153.291 313.477,153.514 C 313.129,153.737 312.687,153.848 312.151,153.848 C 311.568,153.848 311.097,153.718 310.738,153.457 C 310.379,153.197 310.126,152.834 309.979,152.369 C 309.875,152.047 309.823,151.462 309.823,150.613 L 309.823,148.403 L 309.822,148.403 z "
         id="path180"
         style="fill:#9c9d9f" />
      <path
         d="M 315.683,146.348 L 317.019,146.348 L 317.019,153.715 L 315.683,153.715 L 315.683,146.348 z "
         id="path182"
         style="fill:#9c9d9f" />
      <path
         d="M 322.142,148.403 L 323.478,148.403 L 323.478,153.715 L 322.142,153.715 L 322.142,153.153 C 321.882,153.399 321.621,153.577 321.36,153.685 C 321.099,153.793 320.815,153.848 320.509,153.848 C 319.823,153.848 319.23,153.582 318.73,153.051 C 318.229,152.52 317.978,151.859 317.978,151.069 C 317.978,150.25 318.22,149.579 318.705,149.055 C 319.19,148.531 319.778,148.27 320.471,148.27 C 320.789,148.27 321.088,148.33 321.367,148.449 C 321.647,148.568 321.906,148.747 322.142,148.985 L 322.142,148.403 z M 320.744,149.489 C 320.332,149.489 319.989,149.635 319.717,149.927 C 319.444,150.219 319.307,150.593 319.307,151.05 C 319.307,151.51 319.446,151.888 319.724,152.185 C 320.001,152.482 320.343,152.63 320.749,152.63 C 321.168,152.63 321.516,152.484 321.791,152.192 C 322.067,151.9 322.205,151.517 322.205,151.045 C 322.205,150.582 322.067,150.207 321.791,149.92 C 321.515,149.632 321.166,149.489 320.744,149.489 z "
         id="path184"
         style="fill:#9c9d9f" />
      <path
         d="M 324.986,146.442 L 326.322,146.442 L 326.322,148.403 L 327.111,148.403 L 327.111,149.551 L 326.322,149.551 L 326.322,153.715 L 324.986,153.715 L 324.986,149.551 L 324.298,149.551 L 324.298,148.403 L 324.986,148.403 L 324.986,146.442 z "
         id="path186"
         style="fill:#9c9d9f" />
      <path
         d="M 328.349,146.215 C 328.583,146.215 328.785,146.299 328.952,146.469 C 329.119,146.638 329.203,146.842 329.203,147.083 C 329.203,147.32 329.121,147.523 328.955,147.69 C 328.789,147.857 328.59,147.941 328.359,147.941 C 328.122,147.941 327.92,147.855 327.752,147.685 C 327.584,147.514 327.5,147.307 327.5,147.063 C 327.5,146.829 327.584,146.628 327.75,146.463 C 327.915,146.298 328.115,146.215 328.349,146.215 z M 327.679,148.403 L 329.015,148.403 L 329.015,153.715 L 327.679,153.715 L 327.679,148.403 z "
         id="path188"
         style="fill:#9c9d9f" />
      <path
         d="M 332.713,148.27 C 333.214,148.27 333.685,148.395 334.126,148.645 C 334.567,148.896 334.911,149.235 335.159,149.665 C 335.406,150.095 335.53,150.558 335.53,151.055 C 335.53,151.556 335.405,152.024 335.156,152.459 C 334.907,152.894 334.567,153.235 334.138,153.48 C 333.708,153.725 333.235,153.848 332.717,153.848 C 331.955,153.848 331.305,153.577 330.767,153.036 C 330.228,152.494 329.959,151.837 329.959,151.063 C 329.959,150.234 330.263,149.543 330.871,148.991 C 331.407,148.51 332.02,148.27 332.713,148.27 z M 332.731,149.528 C 332.318,149.528 331.974,149.672 331.7,149.959 C 331.426,150.245 331.289,150.612 331.289,151.06 C 331.289,151.521 331.424,151.894 331.695,152.179 C 331.966,152.464 332.31,152.607 332.726,152.607 C 333.142,152.607 333.488,152.462 333.764,152.174 C 334.04,151.886 334.179,151.514 334.179,151.06 C 334.179,150.607 334.042,150.238 333.771,149.955 C 333.5,149.669 333.154,149.528 332.731,149.528 z "
         id="path190"
         style="fill:#9c9d9f" />
      <path
         d="M 336.619,148.403 L 337.955,148.403 L 337.955,148.948 C 338.258,148.695 338.531,148.518 338.776,148.419 C 339.021,148.32 339.271,148.271 339.528,148.271 C 340.054,148.271 340.501,148.455 340.868,148.822 C 341.176,149.134 341.33,149.597 341.33,150.209 L 341.33,153.717 L 340.01,153.717 L 340.01,151.392 C 340.01,150.758 339.983,150.337 339.926,150.129 C 339.869,149.921 339.77,149.763 339.629,149.653 C 339.488,149.545 339.315,149.49 339.108,149.49 C 338.838,149.49 338.608,149.58 338.415,149.761 C 338.223,149.942 338.089,150.191 338.015,150.51 C 337.976,150.675 337.956,151.034 337.956,151.586 L 337.956,153.717 L 336.62,153.717 L 336.62,148.403 L 336.619,148.403 z "
         id="path192"
         style="fill:#9c9d9f" />
    </g>
    <g
       transform="translate(10.786867,41.36797)"
       id="g194">
      <g
         id="g196">
        <defs
           id="defs198">
          <circle
             id="XMLID_2_"
             cx="122.421"
             cy="85.633003"
             r="53.5"
             sodipodi:cx="122.421"
             sodipodi:cy="85.633003"
             sodipodi:rx="53.5"
             sodipodi:ry="53.5" />
        </defs>
        <clipPath
           id="clipPath3304">
          <use
             xlink:href="#XMLID_2_"
             id="use3306"
             x="0"
             y="0"
             width="744.09448"
             height="1052.3622" />
        </clipPath>
        <g
           clip-path="url(#XMLID_14_)"
           id="g204">
          <g
             id="g206">
            <path
               d="M 169.611,107.854 C 136.574,130.507 102.407,132.884 76.908,129.532 C 50.921,125.85 33.602,116.44 22.846,108.031 C 2.847,89.466 3.341,79.009 3,69.048"
               id="path208"
               style="fill:none;stroke:#ffffff;stroke-width:6;stroke-dasharray:8, 2" />
          </g>
          <g
             id="g210">
            <path
               d="M 175.17,102.294 C 142.133,124.947 107.966,127.324 82.467,123.972 C 56.48,120.29 39.16,110.88 28.405,102.471 C 8.405,83.906 8.899,73.449 8.558,63.487"
               id="path212"
               style="fill:none;stroke:#ffffff;stroke-width:6;stroke-dasharray:8, 2" />
          </g>
          <g
             id="g214">
            <path
               d="M 180.73,96.735 C 147.693,119.388 113.526,121.765 88.027,118.413 C 62.04,114.731 44.721,105.321 33.965,96.912 C 13.965,78.347 14.459,67.89 14.118,57.929"
               id="path216"
               style="fill:none;stroke:#ffffff;stroke-width:6;stroke-dasharray:8, 2" />
          </g>
          <g
             id="g218">
            <path
               d="M 186.291,91.175 C 153.254,113.828 119.087,116.205 93.587,112.853 C 67.6,109.171 50.281,99.761 39.525,91.352 C 19.525,72.787 20.019,62.33 19.678,52.368"
               id="path220"
               style="fill:none;stroke:#ffffff;stroke-width:6;stroke-dasharray:8, 2" />
          </g>
          <g
             id="g222">
            <path
               d="M 191.85,85.616 C 158.813,108.269 124.646,110.646 99.147,107.294 C 73.16,103.613 55.841,94.202 45.085,85.793 C 25.085,67.228 25.579,56.771 25.238,46.81"
               id="path224"
               style="fill:none;stroke:#ffffff;stroke-width:6;stroke-dasharray:8, 2" />
          </g>
          <g
             id="g226">
            <path
               d="M 197.41,80.056 C 164.373,102.71 130.206,105.087 104.706,101.734 C 78.719,98.053 61.4,88.642 50.644,80.233 C 30.644,61.668 31.138,51.211 30.797,41.249"
               id="path228"
               style="fill:none;stroke:#ffffff;stroke-width:6;stroke-dasharray:8, 2" />
          </g>
          <g
             id="g230">
            <path
               d="M 202.967,74.497 C 169.93,97.15 135.763,99.527 110.264,96.175 C 84.277,92.494 66.958,83.083 56.203,74.675 C 36.203,56.11 36.697,45.653 36.356,35.692"
               id="path232"
               style="fill:none;stroke:#ffffff;stroke-width:6;stroke-dasharray:8, 2" />
          </g>
          <g
             id="g234">
            <path
               d="M 208.529,68.937 C 175.492,91.59 141.325,93.967 115.826,90.615 C 89.839,86.934 72.52,77.523 61.764,69.114 C 41.764,50.549 42.258,40.092 41.917,30.13"
               id="path236"
               style="fill:none;stroke:#ffffff;stroke-width:6;stroke-dasharray:8, 2" />
          </g>
          <g
             id="g238">
            <path
               d="M 214.087,63.377 C 181.05,86.03 146.883,88.407 121.384,85.055 C 95.397,81.373 78.078,71.963 67.322,63.554 C 47.322,44.989 47.816,34.532 47.475,24.57"
               id="path240"
               style="fill:none;stroke:#ffffff;stroke-width:6;stroke-dasharray:8, 2" />
          </g>
          <g
             id="g242">
            <path
               d="M 219.648,57.817 C 186.612,80.47 152.444,82.847 126.944,79.495 C 100.957,75.814 83.638,66.403 72.882,57.994 C 52.882,39.429 53.376,28.972 53.035,19.01"
               id="path244"
               style="fill:none;stroke:#ffffff;stroke-width:6;stroke-dasharray:8, 2" />
          </g>
          <g
             id="g246">
            <path
               d="M 225.208,52.257 C 192.171,74.911 158.004,77.288 132.504,73.935 C 106.517,70.254 89.198,60.843 78.442,52.434 C 58.442,33.869 58.936,23.412 58.595,13.45"
               id="path248"
               style="fill:none;stroke:#ffffff;stroke-width:6;stroke-dasharray:8, 2" />
          </g>
          <g
             id="g250">
            <path
               d="M 230.768,46.698 C 197.732,69.352 163.564,71.729 138.064,68.376 C 112.077,64.695 94.757,55.284 84.002,46.875 C 64.002,28.31 64.496,17.853 64.155,7.891"
               id="path252"
               style="fill:none;stroke:#ffffff;stroke-width:6;stroke-dasharray:8, 2" />
          </g>
          <g
             id="g254">
            <path
               d="M 236.327,41.139 C 203.291,63.792 169.123,66.169 143.624,62.817 C 117.637,59.136 100.318,49.725 89.562,41.316 C 69.562,22.751 70.056,12.294 69.715,2.333"
               id="path256"
               style="fill:none;stroke:#ffffff;stroke-width:6;stroke-dasharray:8, 2" />
          </g>
        </g>
      </g>
    </g>
    <circle
       transform="translate(10.786867,41.36797)"
       cx="122.421"
       cy="85.633003"
       r="53.5"
       id="circle258"
       sodipodi:cx="122.421"
       sodipodi:cy="85.633003"
       sodipodi:rx="53.5"
       sodipodi:ry="53.5"
       style="fill:none;stroke:#ffffff;stroke-width:3" />
  </g>
</svg>
