<?xml version="1.0" encoding="UTF-8" standalone="no"?>
<!-- Created with Inkscape (http://www.inkscape.org/) -->

<svg
   xmlns:dc="http://purl.org/dc/elements/1.1/"
   xmlns:cc="http://creativecommons.org/ns#"
   xmlns:rdf="http://www.w3.org/1999/02/22-rdf-syntax-ns#"
   xmlns:svg="http://www.w3.org/2000/svg"
   xmlns="http://www.w3.org/2000/svg"
   xmlns:xlink="http://www.w3.org/1999/xlink"
   xmlns:sodipodi="http://sodipodi.sourceforge.net/DTD/sodipodi-0.dtd"
   xmlns:inkscape="http://www.inkscape.org/namespaces/inkscape"
   width="354.297"
   height="155.793"
   id="svg3194"
   sodipodi:version="0.32"
   inkscape:version="0.47 r22583"
   inkscape:output_extension="org.inkscape.output.svg.inkscape"
   sodipodi:docname="yellowvle.svg"
   version="1.0"
   sodipodi:modified="true">
  <defs
     id="defs3196">
    <inkscape:perspective
       sodipodi:type="inkscape:persp3d"
       inkscape:vp_x="0 : 131.10236 : 1"
       inkscape:vp_y="0 : 1000 : 0"
       inkscape:vp_z="372.04724 : 131.10236 : 1"
       inkscape:persp3d-origin="186.02362 : 87.401571 : 1"
       id="perspective139" />
    <radialGradient
       id="XMLID_13_"
       cx="137.4209"
       cy="37.632801"
       r="18.571301"
       gradientUnits="userSpaceOnUse">
      <stop
         offset="0"
         style="stop-color:#FFFFFF"
         id="stop56" />
      <stop
         offset="1"
         style="stop-color:#FFDD00"
         id="stop58" />
    </radialGradient>
    <clipPath
       id="XMLID_14_">
      <use
         xlink:href="#XMLID_2_"
         id="use202"
         x="0"
         y="0"
         width="744.09448"
         height="1052.3622" />
    </clipPath>
  </defs>
  <sodipodi:namedview
     id="base"
     pagecolor="#ffffff"
     bordercolor="#666666"
     borderopacity="1.0"
     inkscape:pageopacity="0.0"
     inkscape:pageshadow="2"
     inkscape:zoom="1.2433034"
     inkscape:cx="204.00928"
     inkscape:cy="44.58693"
     inkscape:document-units="px"
     inkscape:current-layer="layer1"
     inkscape:window-width="722"
     inkscape:window-height="608"
     inkscape:window-x="683"
     inkscape:window-y="237"
     width="372.04724px"
     height="262.20472px"
     showgrid="false"
     inkscape:window-maximized="0" />
  <metadata
     id="metadata3199">
    <rdf:RDF>
      <cc:Work
         rdf:about="">
        <dc:format>image/svg+xml</dc:format>
        <dc:type
           rdf:resource="http://purl.org/dc/dcmitype/StillImage" />
      </cc:Work>
    </rdf:RDF>
  </metadata>
  <g
     inkscape:label="Calque 1"
     inkscape:groupmode="layer"
     id="layer1"
     transform="translate(-10.786867,-41.36797)">
    <g
       transform="translate(10.786867,41.36797)"
       id="g3">
      <path
         d="m 169.611,108.521 c -33.037,22.653 -67.204,25.03 -92.703,21.678 C 50.921,126.518 33.602,117.107 22.846,108.698 2.847,90.133 3.341,79.676 3,69.715"
         id="path5"
         style="fill:none;stroke:#004588;stroke-width:6;stroke-linecap:round;stroke-dasharray:0.2, 8" />
    </g>
    <g
       transform="translate(10.786867,41.36797)"
       id="g7">
      <path
         d="M 175.169,102.96 C 142.132,125.613 107.965,127.99 82.466,124.638 56.479,120.957 39.16,111.546 28.405,103.137 8.406,84.573 8.9,74.115 8.559,64.154"
         id="path9"
         style="fill:none;stroke:#004588;stroke-width:6;stroke-linecap:round;stroke-dasharray:0.2, 8" />
    </g>
    <g
       transform="translate(10.786867,41.36797)"
       id="g11">
      <path
         d="M 180.73,97.402 C 147.693,120.055 113.526,122.432 88.027,119.08 62.041,115.399 44.721,105.988 33.966,97.58 13.966,79.015 14.46,68.558 14.119,58.596"
         id="path13"
         style="fill:none;stroke:#004588;stroke-width:6;stroke-linecap:round;stroke-dasharray:0.2, 8" />
    </g>
    <g
       transform="translate(10.786867,41.36797)"
       id="g15">
      <path
         d="m 186.29,91.841 c -33.037,22.653 -67.204,25.03 -92.703,21.678 C 67.6,109.838 50.281,100.427 39.525,92.018 19.525,73.454 20.019,62.996 19.678,53.035"
         id="path17"
         style="fill:none;stroke:#004588;stroke-width:6;stroke-linecap:round;stroke-dasharray:0.2, 8" />
    </g>
    <g
       transform="translate(10.786867,41.36797)"
       id="g19">
      <path
         d="m 191.85,86.283 c -33.037,22.653 -67.204,25.03 -92.703,21.678 C 73.16,104.28 55.841,94.869 45.085,86.461 25.085,67.896 25.579,57.439 25.238,47.477"
         id="path21"
         style="fill:none;stroke:#004588;stroke-width:6;stroke-linecap:round;stroke-dasharray:0.2, 8" />
    </g>
    <g
       transform="translate(10.786867,41.36797)"
       id="g23">
      <path
         d="M 197.409,80.722 C 164.372,103.375 130.205,105.752 104.706,102.4 78.719,98.719 61.4,89.308 50.645,80.9 30.645,62.335 31.139,51.878 30.798,41.916"
         id="path25"
         style="fill:none;stroke:#004588;stroke-width:6;stroke-linecap:round;stroke-dasharray:0.2, 8" />
    </g>
    <g
       transform="translate(10.786867,41.36797)"
       id="g27">
      <path
         d="M 202.967,75.164 C 169.93,97.817 135.763,100.194 110.264,96.842 84.277,93.161 66.958,83.75 56.203,75.342 36.203,56.777 36.697,46.32 36.356,36.359"
         id="path29"
         style="fill:none;stroke:#004588;stroke-width:6;stroke-linecap:round;stroke-dasharray:0.2, 8" />
    </g>
    <g
       transform="translate(10.786867,41.36797)"
       id="g31">
      <path
         d="M 208.528,69.603 C 175.491,92.256 141.324,94.633 115.825,91.281 89.838,87.6 72.52,78.189 61.764,69.78 41.764,51.215 42.258,40.758 41.917,30.797"
         id="path33"
         style="fill:none;stroke:#004588;stroke-width:6;stroke-linecap:round;stroke-dasharray:0.2, 8" />
    </g>
    <g
       transform="translate(10.786867,41.36797)"
       id="g35">
      <path
         d="M 214.087,64.044 C 181.05,86.698 146.883,89.075 121.384,85.722 95.397,82.041 78.078,72.63 67.323,64.221 47.323,45.656 47.817,35.199 47.476,25.237"
         id="path37"
         style="fill:none;stroke:#004588;stroke-width:6;stroke-linecap:round;stroke-dasharray:0.2, 8" />
    </g>
    <g
       transform="translate(10.786867,41.36797)"
       id="g39">
      <path
         d="M 219.647,58.484 C 186.61,81.137 152.443,83.514 126.944,80.162 100.958,76.481 83.638,67.071 72.883,58.662 52.883,40.097 53.377,29.64 53.036,19.679"
         id="path41"
         style="fill:none;stroke:#004588;stroke-width:6;stroke-linecap:round;stroke-dasharray:0.2, 8" />
    </g>
    <g
       transform="translate(10.786867,41.36797)"
       id="g43">
      <path
         d="M 225.208,52.923 C 192.171,75.576 158.004,77.953 132.505,74.601 106.519,70.919 89.199,61.509 78.444,53.1 58.444,34.535 58.938,24.078 58.597,14.117"
         id="path45"
         style="fill:none;stroke:#004588;stroke-width:6;stroke-linecap:round;stroke-dasharray:0.2, 8" />
    </g>
    <g
       transform="translate(10.786867,41.36797)"
       id="g47">
      <path
         d="M 230.768,47.365 C 197.732,70.019 163.564,72.396 138.064,69.043 112.077,65.362 94.757,55.951 84.002,47.542 64.002,28.977 64.496,18.52 64.155,8.558"
         id="path49"
         style="fill:none;stroke:#004588;stroke-width:6;stroke-linecap:round;stroke-dasharray:0.2, 8" />
    </g>
    <g
       transform="translate(10.786867,41.36797)"
       id="g51">
      <path
         d="M 236.327,41.806 C 203.291,64.459 169.123,66.836 143.624,63.484 117.637,59.803 100.318,50.392 89.562,41.983 69.562,23.418 70.056,12.961 69.715,3"
         id="path53"
         style="fill:none;stroke:#004588;stroke-width:6;stroke-linecap:round;stroke-dasharray:0.2, 8" />
    </g>
    <circle
       transform="translate(10.786867,41.36797)"
       cx="122.421"
       cy="85.633003"
       r="53.5"
       id="circle60"
       style="fill:url(#XMLID_13_)"
       sodipodi:cx="122.421"
       sodipodi:cy="85.633003"
       sodipodi:rx="53.5"
       sodipodi:ry="53.5"
       d="m 175.921,85.633003 c 0,29.547237 -23.95277,53.499997 -53.5,53.499997 -29.547236,0 -53.500002,-23.95276 -53.500002,-53.499997 0,-29.547234 23.952766,-53.5 53.500002,-53.5 29.54723,0 53.5,23.952766 53.5,53.5 z" />
    <g
       transform="translate(10.786867,41.36797)"
       id="g62">
      <path
         d="m 222.524,73.063 1.875,0 5.716,13.328 5.799,-13.328 1.876,0 -7.5,17.234 -0.375,0 -7.391,-17.234 z"
         id="path64"
         style="fill:#ee7f00" />
      <path
         d="m 240.454,73.063 1.719,0 0,17.234 -1.719,0 0,-17.234 z"
         id="path66"
         style="fill:#ee7f00" />
      <path
         d="m 246.208,73.063 3.434,0 c 1.914,0 3.211,0.078 3.891,0.234 1.023,0.235 1.855,0.737 2.496,1.508 0.641,0.771 0.961,1.719 0.961,2.846 0,0.938 -0.222,1.764 -0.663,2.476 -0.441,0.712 -1.072,1.249 -1.893,1.612 -0.82,0.365 -1.953,0.551 -3.398,0.559 l 6.204,8 -2.132,0 -6.203,-8 -0.978,0 0,8 -1.719,0 0,-17.235 z m 1.718,1.687 0,5.859 2.972,0.023 c 1.15,0 2.002,-0.109 2.554,-0.328 0.552,-0.219 0.983,-0.568 1.292,-1.049 0.309,-0.481 0.464,-1.018 0.464,-1.611 0,-0.578 -0.157,-1.104 -0.47,-1.576 -0.313,-0.472 -0.725,-0.811 -1.232,-1.014 -0.51,-0.203 -1.355,-0.305 -2.537,-0.305 l -3.043,0 0,0.001 z"
         id="path68"
         style="fill:#ee7f00" />
      <path
         d="m 259.118,74.75 0,-1.688 9.453,0 0,1.688 -3.844,0 0,15.547 -1.766,0 0,-15.547 -3.843,0 z"
         id="path70"
         style="fill:#ee7f00" />
      <path
         d="m 271.102,73.063 1.719,0 0,10.406 c 0,1.234 0.023,2.004 0.07,2.309 0.086,0.68 0.285,1.248 0.598,1.705 0.313,0.457 0.793,0.84 1.441,1.148 0.648,0.308 1.301,0.463 1.957,0.463 0.57,0 1.117,-0.121 1.641,-0.363 0.524,-0.242 0.961,-0.578 1.312,-1.008 0.351,-0.43 0.609,-0.949 0.773,-1.559 0.117,-0.438 0.176,-1.336 0.176,-2.695 l 0,-10.406 1.719,0 0,10.406 c 0,1.539 -0.15,2.783 -0.45,3.732 -0.301,0.949 -0.902,1.775 -1.805,2.479 -0.901,0.703 -1.992,1.055 -3.272,1.055 -1.39,0 -2.581,-0.332 -3.571,-0.996 -0.992,-0.664 -1.656,-1.543 -1.992,-2.637 -0.211,-0.672 -0.315,-1.883 -0.315,-3.633 l 0,-10.406 -0.001,0 z"
         id="path72"
         style="fill:#ee7f00" />
      <path
         d="m 293.801,73.063 8.047,17.234 -1.86,0 -2.697,-5.656 -7.458,0 -2.672,5.656 -1.922,0 8.141,-17.234 0.421,0 0,0 z m -0.216,3.634 -2.963,6.272 5.916,0 -2.953,-6.272 z"
         id="path74"
         style="fill:#ee7f00" />
      <path
         d="m 304.508,73.063 1.719,0 0,15.562 6.641,0 0,1.672 -8.359,0 0,-17.234 -0.001,0 z"
         id="path76"
         style="fill:#ee7f00" />
      <path
         d="m 203.903,97.063 1.719,0 0,15.562 6.641,0 0,1.672 -8.359,0 0,-17.234 -0.001,0 z"
         id="path78"
         style="fill:#ee7f00" />
      <path
         d="m 222.036,97.063 8.047,17.234 -1.86,0 -2.697,-5.656 -7.458,0 -2.672,5.656 -1.922,0 8.141,-17.234 0.421,0 0,0 z m -0.216,3.633 -2.963,6.273 5.916,0 -2.953,-6.273 z"
         id="path80"
         style="fill:#ee7f00" />
      <path
         d="m 232.79,97.063 3.401,0 c 1.369,0 2.42,0.162 3.154,0.486 0.736,0.324 1.316,0.821 1.742,1.492 0.426,0.672 0.64,1.418 0.64,2.238 0,0.765 -0.187,1.461 -0.56,2.09 -0.373,0.629 -0.922,1.139 -1.645,1.529 0.895,0.305 1.583,0.662 2.065,1.072 0.482,0.41 0.858,0.906 1.126,1.488 0.27,0.582 0.403,1.213 0.403,1.893 0,1.383 -0.507,2.553 -1.519,3.51 -1.012,0.957 -2.369,1.436 -4.074,1.436 l -4.735,0 0,-17.234 0.002,0 z m 1.687,1.687 0,5.516 0.987,0 c 1.2,0 2.082,-0.111 2.646,-0.334 0.564,-0.223 1.012,-0.574 1.342,-1.055 0.328,-0.479 0.493,-1.012 0.493,-1.598 0,-0.789 -0.276,-1.408 -0.829,-1.856 -0.553,-0.448 -1.434,-0.673 -2.641,-0.673 l -1.998,0 z m 0,7.25 0,6.609 2.138,0 c 1.261,0 2.185,-0.123 2.771,-0.369 0.588,-0.246 1.059,-0.631 1.416,-1.154 0.355,-0.523 0.534,-1.09 0.534,-1.699 0,-0.766 -0.251,-1.434 -0.751,-2.004 -0.5,-0.57 -1.188,-0.961 -2.062,-1.172 -0.588,-0.141 -1.611,-0.211 -3.07,-0.211 l -0.976,0 z"
         id="path82"
         style="fill:#ee7f00" />
      <path
         d="m 254.741,96.625 c 2.61,0 4.794,0.871 6.552,2.613 1.758,1.742 2.638,3.888 2.638,6.436 0,2.523 -0.878,4.664 -2.632,6.423 -1.754,1.759 -3.893,2.638 -6.417,2.638 -2.556,0 -4.712,-0.875 -6.47,-2.626 -1.759,-1.751 -2.638,-3.868 -2.638,-6.353 0,-1.656 0.4,-3.192 1.202,-4.607 0.801,-1.414 1.893,-2.521 3.275,-3.322 1.382,-0.801 2.879,-1.202 4.49,-1.202 z m 0.076,1.672 c -1.274,0 -2.483,0.332 -3.626,0.998 -1.141,0.664 -2.033,1.561 -2.674,2.688 -0.641,1.127 -0.962,2.383 -0.962,3.768 0,2.05 0.71,3.781 2.13,5.193 1.418,1.412 3.129,2.119 5.132,2.119 1.337,0 2.575,-0.325 3.713,-0.975 1.138,-0.65 2.026,-1.537 2.663,-2.664 0.637,-1.127 0.956,-2.379 0.956,-3.756 0,-1.369 -0.319,-2.607 -0.956,-3.715 -0.637,-1.108 -1.535,-1.994 -2.692,-2.658 -1.158,-0.666 -2.386,-0.998 -3.684,-0.998 z"
         id="path84"
         style="fill:#ee7f00" />
      <path
         d="m 267.477,97.063 3.434,0 c 1.914,0 3.211,0.078 3.891,0.234 1.023,0.234 1.855,0.736 2.496,1.508 0.641,0.77 0.961,1.719 0.961,2.846 0,0.938 -0.222,1.764 -0.663,2.475 -0.441,0.713 -1.072,1.25 -1.893,1.613 -0.82,0.365 -1.953,0.551 -3.398,0.559 l 6.204,8 -2.132,0 -6.203,-8 -0.978,0 0,8 -1.719,0 0,-17.235 0,0 z m 1.719,1.687 0,5.859 2.972,0.023 c 1.15,0 2.002,-0.109 2.554,-0.328 0.552,-0.219 0.983,-0.568 1.292,-1.049 0.309,-0.481 0.464,-1.018 0.464,-1.611 0,-0.578 -0.157,-1.104 -0.47,-1.576 -0.313,-0.472 -0.725,-0.811 -1.232,-1.014 -0.51,-0.203 -1.355,-0.305 -2.537,-0.305 l -3.043,0 0,0.001 z"
         id="path86"
         style="fill:#ee7f00" />
      <path
         d="m 288.997,97.063 8.047,17.234 -1.86,0 -2.697,-5.656 -7.458,0 -2.672,5.656 -1.922,0 8.141,-17.234 0.421,0 0,0 z m -0.216,3.633 -2.963,6.273 5.916,0 -2.953,-6.273 z"
         id="path88"
         style="fill:#ee7f00" />
      <path
         d="m 296.055,98.75 0,-1.688 9.453,0 0,1.688 -3.844,0 0,15.547 -1.766,0 0,-15.547 -3.843,0 z"
         id="path90"
         style="fill:#ee7f00" />
      <path
         d="m 316.194,96.625 c 2.61,0 4.794,0.871 6.552,2.613 1.758,1.742 2.638,3.888 2.638,6.436 0,2.523 -0.878,4.664 -2.632,6.423 -1.754,1.759 -3.893,2.638 -6.417,2.638 -2.556,0 -4.712,-0.875 -6.47,-2.626 -1.759,-1.751 -2.638,-3.868 -2.638,-6.353 0,-1.656 0.4,-3.192 1.202,-4.607 0.801,-1.414 1.893,-2.521 3.275,-3.322 1.382,-0.801 2.879,-1.202 4.49,-1.202 z m 0.076,1.672 c -1.274,0 -2.483,0.332 -3.626,0.998 -1.141,0.664 -2.033,1.561 -2.674,2.688 -0.641,1.127 -0.962,2.383 -0.962,3.768 0,2.05 0.71,3.781 2.13,5.193 1.418,1.412 3.129,2.119 5.132,2.119 1.337,0 2.575,-0.325 3.713,-0.975 1.138,-0.65 2.026,-1.537 2.663,-2.664 0.637,-1.127 0.956,-2.379 0.956,-3.756 0,-1.369 -0.319,-2.607 -0.956,-3.715 -0.637,-1.108 -1.535,-1.994 -2.692,-2.658 -1.158,-0.666 -2.386,-0.998 -3.684,-0.998 z"
         id="path92"
         style="fill:#ee7f00" />
      <path
         d="m 328.93,97.063 3.434,0 c 1.914,0 3.211,0.078 3.891,0.234 1.023,0.234 1.855,0.736 2.496,1.508 0.641,0.77 0.961,1.719 0.961,2.846 0,0.938 -0.222,1.764 -0.663,2.475 -0.441,0.713 -1.072,1.25 -1.893,1.613 -0.82,0.365 -1.953,0.551 -3.398,0.559 l 6.204,8 -2.132,0 -6.203,-8 -0.978,0 0,8 -1.719,0 0,-17.235 0,0 z m 1.719,1.687 0,5.859 2.972,0.023 c 1.15,0 2.002,-0.109 2.554,-0.328 0.552,-0.219 0.983,-0.568 1.292,-1.049 0.309,-0.481 0.464,-1.018 0.464,-1.611 0,-0.578 -0.157,-1.104 -0.47,-1.576 -0.313,-0.472 -0.725,-0.811 -1.232,-1.014 -0.51,-0.203 -1.355,-0.305 -2.537,-0.305 l -3.043,0 0,0.001 z"
         id="path94"
         style="fill:#ee7f00" />
      <path
         d="m 341.563,97.063 1.981,0 4.418,7.145 4.363,-7.145 1.972,0 -5.469,8.996 0,8.238 -1.703,0 0,-8.238 -5.562,-8.996 z"
         id="path96"
         style="fill:#ee7f00" />
      <path
         d="m 177.34,121.063 9.891,0 0,1.688 -8.172,0 0,5.406 8.094,0 0,1.688 -8.094,0 0,6.766 8.094,0 0,1.688 -9.812,0 0,-17.236 -0.001,0 z"
         id="path98"
         style="fill:#ee7f00" />
      <path
         d="m 190.208,138.297 0,-17.234 0.375,0 11.469,13.202 0,-13.202 1.703,0 0,17.234 -0.388,0 -11.378,-13.051 0,13.051 -1.781,0 z"
         id="path100"
         style="fill:#ee7f00" />
      <path
         d="m 206.633,121.063 1.875,0 5.716,13.328 5.799,-13.328 1.876,0 -7.5,17.234 -0.375,0 -7.391,-17.234 z"
         id="path102"
         style="fill:#ee7f00" />
      <path
         d="m 224.563,121.063 1.719,0 0,17.234 -1.719,0 0,-17.234 z"
         id="path104"
         style="fill:#ee7f00" />
      <path
         d="m 230.317,121.063 3.434,0 c 1.914,0 3.211,0.078 3.891,0.234 1.023,0.234 1.855,0.736 2.496,1.508 0.641,0.77 0.961,1.719 0.961,2.846 0,0.938 -0.222,1.764 -0.663,2.475 -0.441,0.713 -1.072,1.25 -1.893,1.613 -0.82,0.365 -1.953,0.551 -3.398,0.559 l 6.204,8 -2.132,0 -6.203,-8 -0.978,0 0,8 -1.719,0 0,-17.235 z m 1.719,1.687 0,5.859 2.972,0.023 c 1.15,0 2.002,-0.109 2.554,-0.328 0.552,-0.219 0.983,-0.568 1.292,-1.049 0.309,-0.481 0.464,-1.018 0.464,-1.611 0,-0.578 -0.157,-1.104 -0.47,-1.576 -0.313,-0.472 -0.725,-0.811 -1.232,-1.014 -0.51,-0.203 -1.355,-0.305 -2.537,-0.305 l -3.043,0 0,0.001 z"
         id="path106"
         style="fill:#ee7f00" />
      <path
         d="m 253.006,120.625 c 2.61,0 4.794,0.871 6.552,2.613 1.758,1.742 2.638,3.888 2.638,6.436 0,2.523 -0.878,4.664 -2.632,6.423 -1.754,1.759 -3.893,2.638 -6.417,2.638 -2.556,0 -4.712,-0.875 -6.47,-2.626 -1.759,-1.751 -2.638,-3.868 -2.638,-6.353 0,-1.656 0.4,-3.192 1.202,-4.607 0.801,-1.414 1.893,-2.521 3.275,-3.322 1.382,-0.801 2.88,-1.202 4.49,-1.202 z m 0.077,1.672 c -1.274,0 -2.483,0.332 -3.626,0.998 -1.141,0.664 -2.033,1.561 -2.674,2.688 -0.641,1.127 -0.962,2.383 -0.962,3.768 0,2.05 0.71,3.781 2.13,5.193 1.418,1.412 3.129,2.119 5.132,2.119 1.337,0 2.575,-0.325 3.713,-0.975 1.138,-0.65 2.026,-1.537 2.663,-2.664 0.637,-1.127 0.956,-2.379 0.956,-3.756 0,-1.369 -0.319,-2.607 -0.956,-3.715 -0.637,-1.108 -1.535,-1.994 -2.692,-2.658 -1.158,-0.666 -2.387,-0.998 -3.684,-0.998 z"
         id="path108"
         style="fill:#ee7f00" />
      <path
         d="m 265.665,138.297 0,-17.234 0.375,0 11.469,13.202 0,-13.202 1.703,0 0,17.234 -0.388,0 -11.378,-13.051 0,13.051 -1.781,0 z"
         id="path110"
         style="fill:#ee7f00" />
      <path
         d="m 282.622,138.297 2.474,-17.234 0.283,0 7.017,14.141 6.95,-14.141 0.273,0 2.487,17.234 -1.683,0 -1.716,-12.328 -6.104,12.328 -0.451,0 -6.163,-12.422 -1.703,12.422 -1.664,0 0,0 z"
         id="path112"
         style="fill:#ee7f00" />
      <path
         d="m 305.473,121.063 9.891,0 0,1.688 -8.172,0 0,5.406 8.094,0 0,1.688 -8.094,0 0,6.766 8.094,0 0,1.688 -9.812,0 0,-17.236 -10e-4,0 z"
         id="path114"
         style="fill:#ee7f00" />
      <path
         d="m 318.34,138.297 0,-17.234 0.375,0 11.469,13.202 0,-13.202 1.703,0 0,17.234 -0.387,0 -11.378,-13.051 0,13.051 -1.782,0 z"
         id="path116"
         style="fill:#ee7f00" />
      <path
         d="m 334.375,122.75 0,-1.688 9.453,0 0,1.688 -3.844,0 0,15.547 -1.766,0 0,-15.547 -3.843,0 z"
         id="path118"
         style="fill:#ee7f00" />
    </g>
    <g
       transform="translate(10.786867,41.36797)"
       id="g120">
      <path
         d="m 138.984,147.795 -0.958,0.91 c -0.652,-0.686 -1.385,-1.029 -2.2,-1.029 -0.688,0 -1.267,0.234 -1.737,0.703 -0.471,0.468 -0.707,1.045 -0.707,1.731 0,0.478 0.104,0.902 0.313,1.273 0.208,0.371 0.503,0.662 0.885,0.873 0.381,0.212 0.805,0.317 1.271,0.317 0.397,0 0.761,-0.074 1.09,-0.222 0.329,-0.148 0.691,-0.417 1.085,-0.808 l 0.929,0.969 c -0.531,0.52 -1.033,0.879 -1.504,1.08 -0.473,0.2 -1.011,0.301 -1.617,0.301 -1.117,0 -2.031,-0.354 -2.743,-1.062 -0.711,-0.707 -1.067,-1.614 -1.067,-2.72 0,-0.716 0.162,-1.352 0.486,-1.908 0.324,-0.557 0.788,-1.004 1.393,-1.342 0.604,-0.339 1.254,-0.508 1.951,-0.508 0.593,0 1.164,0.125 1.712,0.375 0.548,0.253 1.021,0.607 1.418,1.067 z"
         id="path122"
         style="fill:#9c9d9f" />
      <path
         d="m 142.528,148.27 c 0.501,0 0.972,0.125 1.413,0.375 0.441,0.251 0.785,0.59 1.033,1.02 0.248,0.43 0.371,0.893 0.371,1.39 0,0.501 -0.125,0.969 -0.374,1.404 -0.249,0.435 -0.588,0.776 -1.018,1.021 -0.43,0.245 -0.903,0.368 -1.421,0.368 -0.762,0 -1.412,-0.271 -1.95,-0.812 -0.539,-0.542 -0.808,-1.199 -0.808,-1.973 0,-0.829 0.304,-1.52 0.913,-2.072 0.534,-0.481 1.147,-0.721 1.841,-0.721 z m 0.017,1.258 c -0.413,0 -0.756,0.144 -1.031,0.431 -0.274,0.286 -0.412,0.653 -0.412,1.101 0,0.461 0.136,0.834 0.407,1.119 0.271,0.285 0.615,0.428 1.031,0.428 0.416,0 0.762,-0.145 1.038,-0.433 0.276,-0.288 0.415,-0.66 0.415,-1.114 0,-0.453 -0.136,-0.822 -0.407,-1.105 -0.271,-0.286 -0.618,-0.427 -1.041,-0.427 z"
         id="path124"
         style="fill:#9c9d9f" />
      <path
         d="m 146.426,148.403 1.336,0 0,0.617 c 0.228,-0.252 0.481,-0.439 0.76,-0.563 0.279,-0.124 0.583,-0.187 0.912,-0.187 0.333,0 0.633,0.082 0.9,0.246 0.268,0.163 0.483,0.402 0.646,0.716 0.212,-0.313 0.472,-0.553 0.78,-0.716 0.308,-0.164 0.645,-0.246 1.01,-0.246 0.378,0 0.711,0.088 0.998,0.264 0.287,0.176 0.493,0.404 0.619,0.688 0.126,0.284 0.188,0.744 0.188,1.381 l 0,3.113 -1.336,0 0,-2.688 c 0,-0.601 -0.076,-1.008 -0.227,-1.221 -0.151,-0.212 -0.377,-0.318 -0.679,-0.318 -0.229,0 -0.436,0.064 -0.618,0.195 -0.182,0.129 -0.317,0.309 -0.406,0.537 -0.088,0.229 -0.133,0.597 -0.133,1.104 l 0,2.391 -1.336,0 0,-2.566 c 0,-0.474 -0.035,-0.816 -0.105,-1.029 -0.07,-0.213 -0.175,-0.371 -0.316,-0.475 -0.141,-0.104 -0.311,-0.156 -0.51,-0.156 -0.222,0 -0.424,0.066 -0.605,0.197 -0.181,0.131 -0.317,0.315 -0.407,0.553 -0.09,0.236 -0.135,0.61 -0.135,1.12 l 0,2.356 -1.336,0 0,-5.313 0,0 z"
         id="path126"
         style="fill:#9c9d9f" />
      <path
         d="m 157.169,148.403 0,0.582 c 0.24,-0.238 0.5,-0.417 0.779,-0.536 0.279,-0.119 0.578,-0.179 0.896,-0.179 0.691,0 1.279,0.262 1.763,0.785 0.484,0.523 0.726,1.194 0.726,2.014 0,0.79 -0.25,1.451 -0.75,1.982 -0.5,0.531 -1.093,0.797 -1.778,0.797 -0.305,0 -0.589,-0.055 -0.852,-0.163 -0.263,-0.109 -0.524,-0.287 -0.784,-0.534 l 0,2.51 -1.336,0 0,-7.258 1.336,0 0,0 z m 1.394,1.086 c -0.419,0 -0.767,0.144 -1.042,0.431 -0.275,0.287 -0.414,0.662 -0.414,1.125 0,0.473 0.138,0.855 0.414,1.147 0.276,0.291 0.624,0.438 1.042,0.438 0.406,0 0.748,-0.148 1.025,-0.445 0.277,-0.297 0.417,-0.675 0.417,-1.135 0,-0.457 -0.136,-0.831 -0.409,-1.123 -0.273,-0.292 -0.617,-0.438 -1.033,-0.438 z"
         id="path128"
         style="fill:#9c9d9f" />
      <path
         d="m 162.294,146.348 1.336,0 0,7.367 -1.336,0 0,-7.367 z"
         id="path130"
         style="fill:#9c9d9f" />
      <path
         d="m 170.155,151.434 -4.284,0 c 0.062,0.38 0.227,0.682 0.495,0.906 0.268,0.224 0.609,0.336 1.025,0.336 0.497,0 0.924,-0.175 1.281,-0.525 l 1.121,0.528 c -0.28,0.397 -0.614,0.692 -1.004,0.883 -0.39,0.19 -0.853,0.286 -1.389,0.286 -0.832,0 -1.509,-0.263 -2.033,-0.787 -0.523,-0.525 -0.785,-1.183 -0.785,-1.973 0,-0.81 0.261,-1.481 0.784,-2.016 0.523,-0.535 1.178,-0.803 1.966,-0.803 0.837,0 1.517,0.267 2.042,0.8 0.524,0.532 0.787,1.237 0.787,2.111 l -0.006,0.254 z m -1.331,-1.039 c -0.088,-0.291 -0.262,-0.528 -0.521,-0.711 -0.259,-0.182 -0.56,-0.273 -0.902,-0.273 -0.372,0 -0.698,0.103 -0.978,0.308 -0.176,0.128 -0.339,0.354 -0.489,0.677 l 2.89,0 0,-10e-4 z"
         id="path132"
         style="fill:#9c9d9f" />
      <path
         d="m 170.76,148.403 1.549,0 1.05,1.448 1.046,-1.448 1.521,0 -1.804,2.498 2.042,2.814 -1.549,0 -1.266,-1.744 -1.259,1.744 -1.521,0 2.018,-2.795 -1.827,-2.517 z"
         id="path134"
         style="fill:#9c9d9f" />
      <path
         d="m 182.882,149.149 -0.823,0.824 c -0.335,-0.333 -0.638,-0.5 -0.911,-0.5 -0.149,0 -0.266,0.031 -0.351,0.096 -0.085,0.062 -0.126,0.142 -0.126,0.236 0,0.071 0.026,0.137 0.08,0.197 0.054,0.06 0.186,0.143 0.397,0.246 l 0.487,0.244 c 0.515,0.254 0.867,0.512 1.06,0.775 0.191,0.264 0.288,0.572 0.288,0.927 0,0.472 -0.174,0.864 -0.52,1.181 -0.347,0.314 -0.811,0.473 -1.393,0.473 -0.774,0 -1.393,-0.303 -1.854,-0.91 l 0.817,-0.895 c 0.156,0.182 0.339,0.329 0.548,0.441 0.209,0.111 0.396,0.168 0.558,0.168 0.175,0 0.316,-0.042 0.424,-0.127 0.106,-0.084 0.161,-0.182 0.161,-0.292 0,-0.204 -0.193,-0.404 -0.58,-0.599 l -0.447,-0.225 c -0.857,-0.432 -1.285,-0.972 -1.285,-1.621 0,-0.419 0.161,-0.777 0.484,-1.074 0.323,-0.297 0.736,-0.445 1.24,-0.445 0.344,0 0.668,0.076 0.972,0.227 0.306,0.153 0.562,0.37 0.774,0.653 z"
         id="path136"
         style="fill:#9c9d9f" />
      <path
         d="m 183.429,148.403 1.37,0 1.385,3.334 1.528,-3.334 1.369,0 -3.338,7.258 -1.377,0 1.092,-2.35 -2.029,-4.908 z"
         id="path138"
         style="fill:#9c9d9f" />
      <path
         d="m 193.082,149.149 -0.822,0.824 c -0.335,-0.333 -0.639,-0.5 -0.911,-0.5 -0.149,0 -0.267,0.031 -0.351,0.096 -0.084,0.062 -0.127,0.142 -0.127,0.236 0,0.071 0.027,0.137 0.081,0.197 0.054,0.06 0.187,0.143 0.397,0.246 l 0.488,0.244 c 0.514,0.254 0.866,0.512 1.059,0.775 0.191,0.264 0.287,0.572 0.287,0.927 0,0.472 -0.173,0.864 -0.52,1.181 -0.346,0.314 -0.811,0.473 -1.393,0.473 -0.773,0 -1.392,-0.303 -1.854,-0.91 l 0.818,-0.895 c 0.156,0.182 0.339,0.329 0.548,0.441 0.21,0.111 0.396,0.168 0.558,0.168 0.176,0 0.316,-0.042 0.424,-0.127 0.107,-0.084 0.16,-0.182 0.16,-0.292 0,-0.204 -0.192,-0.404 -0.579,-0.599 l -0.448,-0.225 c -0.856,-0.432 -1.285,-0.972 -1.285,-1.621 0,-0.419 0.162,-0.777 0.485,-1.074 0.323,-0.297 0.736,-0.445 1.239,-0.445 0.345,0 0.669,0.076 0.973,0.227 0.305,0.153 0.562,0.37 0.773,0.653 z"
         id="path140"
         style="fill:#9c9d9f" />
      <path
         d="m 194.396,146.442 1.336,0 0,1.961 0.789,0 0,1.148 -0.789,0 0,4.164 -1.336,0 0,-4.164 -0.688,0 0,-1.148 0.688,0 0,-1.961 z"
         id="path142"
         style="fill:#9c9d9f" />
      <path
         d="m 202.552,151.434 -4.283,0 c 0.061,0.38 0.227,0.682 0.494,0.906 0.268,0.224 0.609,0.336 1.025,0.336 0.497,0 0.924,-0.175 1.281,-0.525 l 1.121,0.528 c -0.28,0.397 -0.615,0.692 -1.005,0.883 -0.39,0.191 -0.853,0.286 -1.39,0.286 -0.832,0 -1.509,-0.263 -2.032,-0.787 -0.522,-0.525 -0.784,-1.183 -0.784,-1.973 0,-0.81 0.261,-1.481 0.783,-2.016 0.523,-0.535 1.178,-0.803 1.967,-0.803 0.836,0 1.517,0.267 2.041,0.8 0.524,0.532 0.787,1.237 0.787,2.111 l -0.005,0.254 z m -1.33,-1.039 c -0.089,-0.291 -0.262,-0.528 -0.521,-0.711 -0.26,-0.182 -0.561,-0.273 -0.902,-0.273 -0.371,0 -0.697,0.103 -0.979,0.308 -0.176,0.128 -0.339,0.354 -0.488,0.677 l 2.89,0 0,-10e-4 z"
         id="path144"
         style="fill:#9c9d9f" />
      <path
         d="m 203.623,148.403 1.336,0 0,0.617 c 0.229,-0.252 0.482,-0.439 0.761,-0.563 0.279,-0.124 0.583,-0.187 0.912,-0.187 0.333,0 0.633,0.082 0.899,0.246 0.268,0.163 0.483,0.402 0.646,0.716 0.212,-0.313 0.472,-0.553 0.779,-0.716 0.309,-0.164 0.645,-0.246 1.01,-0.246 0.379,0 0.711,0.088 0.998,0.264 0.287,0.176 0.493,0.404 0.619,0.688 0.125,0.283 0.188,0.744 0.188,1.381 l 0,3.113 -1.336,0 0,-2.688 c 0,-0.601 -0.075,-1.008 -0.227,-1.221 -0.15,-0.212 -0.377,-0.318 -0.679,-0.318 -0.229,0 -0.436,0.064 -0.618,0.195 -0.182,0.129 -0.316,0.309 -0.406,0.537 -0.088,0.229 -0.133,0.597 -0.133,1.104 l 0,2.391 -1.336,0 0,-2.566 c 0,-0.474 -0.035,-0.816 -0.105,-1.029 -0.07,-0.213 -0.175,-0.371 -0.315,-0.475 -0.141,-0.104 -0.311,-0.156 -0.51,-0.156 -0.222,0 -0.424,0.066 -0.605,0.197 -0.181,0.131 -0.317,0.315 -0.407,0.553 -0.09,0.236 -0.135,0.61 -0.135,1.12 l 0,2.356 -1.336,0 0,-5.313 0,0 z"
         id="path146"
         style="fill:#9c9d9f" />
      <path
         d="m 216.281,149.149 -0.823,0.824 c -0.335,-0.333 -0.638,-0.5 -0.911,-0.5 -0.149,0 -0.266,0.031 -0.351,0.096 -0.085,0.062 -0.126,0.142 -0.126,0.236 0,0.071 0.026,0.137 0.08,0.197 0.054,0.06 0.186,0.143 0.397,0.246 l 0.487,0.244 c 0.515,0.254 0.867,0.512 1.06,0.775 0.191,0.264 0.288,0.572 0.288,0.927 0,0.472 -0.174,0.864 -0.52,1.181 -0.347,0.314 -0.811,0.473 -1.393,0.473 -0.774,0 -1.393,-0.303 -1.854,-0.91 l 0.817,-0.895 c 0.156,0.182 0.339,0.329 0.548,0.441 0.209,0.111 0.396,0.168 0.558,0.168 0.175,0 0.316,-0.042 0.424,-0.127 0.106,-0.084 0.161,-0.182 0.161,-0.292 0,-0.204 -0.193,-0.404 -0.58,-0.599 l -0.447,-0.225 c -0.857,-0.432 -1.285,-0.972 -1.285,-1.621 0,-0.419 0.161,-0.777 0.484,-1.074 0.323,-0.297 0.736,-0.445 1.24,-0.445 0.344,0 0.668,0.076 0.972,0.227 0.305,0.153 0.562,0.37 0.774,0.653 z"
         id="path148"
         style="fill:#9c9d9f" />
      <path
         d="m 220.22,148.403 1.336,0 0,0.617 c 0.228,-0.252 0.48,-0.439 0.76,-0.563 0.28,-0.124 0.583,-0.187 0.912,-0.187 0.333,0 0.633,0.082 0.9,0.246 0.268,0.163 0.482,0.402 0.646,0.716 0.212,-0.313 0.472,-0.553 0.78,-0.716 0.308,-0.164 0.645,-0.246 1.01,-0.246 0.378,0 0.711,0.088 0.997,0.264 0.287,0.176 0.493,0.404 0.618,0.688 0.126,0.283 0.189,0.744 0.189,1.381 l 0,3.113 -1.336,0 0,-2.688 c 0,-0.601 -0.076,-1.008 -0.227,-1.221 -0.151,-0.212 -0.378,-0.318 -0.68,-0.318 -0.229,0 -0.436,0.064 -0.617,0.195 -0.183,0.129 -0.318,0.309 -0.406,0.537 -0.089,0.229 -0.133,0.597 -0.133,1.104 l 0,2.391 -1.336,0 0,-2.566 c 0,-0.474 -0.035,-0.816 -0.105,-1.029 -0.07,-0.213 -0.176,-0.371 -0.316,-0.475 -0.141,-0.104 -0.311,-0.156 -0.51,-0.156 -0.223,0 -0.424,0.066 -0.605,0.197 -0.181,0.131 -0.316,0.315 -0.406,0.553 -0.09,0.236 -0.135,0.61 -0.135,1.12 l 0,2.356 -1.336,0 0,-5.313 0,0 z"
         id="path150"
         style="fill:#9c9d9f" />
      <path
         d="m 232.123,148.27 c 0.501,0 0.973,0.125 1.413,0.375 0.441,0.251 0.785,0.59 1.032,1.02 0.248,0.43 0.371,0.893 0.371,1.39 0,0.501 -0.124,0.969 -0.373,1.404 -0.249,0.435 -0.588,0.776 -1.018,1.021 -0.43,0.245 -0.903,0.368 -1.421,0.368 -0.762,0 -1.411,-0.271 -1.95,-0.812 -0.539,-0.542 -0.809,-1.199 -0.809,-1.973 0,-0.829 0.305,-1.52 0.914,-2.072 0.534,-0.481 1.147,-0.721 1.841,-0.721 z m 0.017,1.258 c -0.412,0 -0.756,0.144 -1.031,0.431 -0.274,0.286 -0.412,0.653 -0.412,1.101 0,0.461 0.137,0.834 0.407,1.119 0.271,0.285 0.615,0.428 1.031,0.428 0.416,0 0.762,-0.145 1.038,-0.433 0.276,-0.288 0.414,-0.66 0.414,-1.114 0,-0.453 -0.135,-0.822 -0.406,-1.105 -0.271,-0.286 -0.619,-0.427 -1.041,-0.427 z"
         id="path152"
         style="fill:#9c9d9f" />
      <path
         d="m 239.951,146.348 1.336,0 0,7.367 -1.336,0 0,-0.562 c -0.261,0.246 -0.521,0.424 -0.783,0.532 -0.262,0.108 -0.545,0.163 -0.851,0.163 -0.687,0 -1.279,-0.266 -1.78,-0.797 -0.5,-0.531 -0.75,-1.192 -0.75,-1.982 0,-0.819 0.242,-1.49 0.727,-2.014 0.485,-0.524 1.072,-0.785 1.765,-0.785 0.318,0 0.618,0.06 0.897,0.179 0.279,0.12 0.537,0.299 0.775,0.537 l 0,-2.638 z m -1.4,3.141 c -0.413,0 -0.755,0.146 -1.028,0.438 -0.272,0.292 -0.408,0.666 -0.408,1.123 0,0.46 0.139,0.838 0.416,1.135 0.277,0.297 0.619,0.445 1.025,0.445 0.419,0 0.767,-0.146 1.043,-0.438 0.275,-0.292 0.414,-0.675 0.414,-1.147 0,-0.463 -0.139,-0.838 -0.414,-1.125 -0.276,-0.288 -0.626,-0.431 -1.048,-0.431 z"
         id="path154"
         style="fill:#9c9d9f" />
      <path
         d="m 247.953,151.434 -4.283,0 c 0.061,0.38 0.227,0.682 0.494,0.906 0.268,0.224 0.609,0.336 1.025,0.336 0.497,0 0.924,-0.175 1.281,-0.525 l 1.121,0.528 c -0.28,0.397 -0.615,0.692 -1.005,0.883 -0.39,0.191 -0.853,0.286 -1.39,0.286 -0.832,0 -1.509,-0.263 -2.032,-0.787 -0.522,-0.525 -0.784,-1.183 -0.784,-1.973 0,-0.81 0.261,-1.481 0.783,-2.016 0.523,-0.535 1.178,-0.803 1.967,-0.803 0.836,0 1.517,0.267 2.041,0.8 0.524,0.532 0.787,1.237 0.787,2.111 l -0.005,0.254 z m -1.33,-1.039 c -0.089,-0.291 -0.262,-0.528 -0.521,-0.711 -0.26,-0.182 -0.561,-0.273 -0.902,-0.273 -0.371,0 -0.697,0.103 -0.979,0.308 -0.176,0.128 -0.339,0.354 -0.488,0.677 l 2.89,0 0,-10e-4 z"
         id="path156"
         style="fill:#9c9d9f" />
      <path
         d="m 248.89,146.348 1.336,0 0,7.367 -1.336,0 0,-7.367 z"
         id="path158"
         style="fill:#9c9d9f" />
      <path
         d="m 251.289,146.348 1.336,0 0,7.367 -1.336,0 0,-7.367 z"
         id="path160"
         style="fill:#9c9d9f" />
      <path
         d="m 254.355,146.215 c 0.234,0 0.436,0.084 0.603,0.254 0.167,0.169 0.251,0.373 0.251,0.614 0,0.237 -0.082,0.44 -0.248,0.607 -0.166,0.167 -0.365,0.251 -0.596,0.251 -0.237,0 -0.439,-0.086 -0.607,-0.256 -0.168,-0.171 -0.252,-0.378 -0.252,-0.622 0,-0.234 0.084,-0.435 0.25,-0.6 0.164,-0.165 0.365,-0.248 0.599,-0.248 z m -0.67,2.188 1.336,0 0,5.312 -1.336,0 0,-5.312 z"
         id="path162"
         style="fill:#9c9d9f" />
      <path
         d="m 256.224,148.403 1.336,0 0,0.545 c 0.301,-0.253 0.575,-0.43 0.82,-0.529 0.245,-0.099 0.496,-0.148 0.752,-0.148 0.526,0 0.973,0.184 1.34,0.551 0.309,0.312 0.463,0.775 0.463,1.387 l 0,3.508 -1.32,0 0,-2.325 c 0,-0.634 -0.029,-1.055 -0.086,-1.263 -0.057,-0.208 -0.155,-0.366 -0.296,-0.476 -0.141,-0.108 -0.315,-0.163 -0.522,-0.163 -0.269,0 -0.499,0.09 -0.691,0.271 -0.193,0.181 -0.326,0.43 -0.401,0.749 -0.038,0.165 -0.058,0.524 -0.058,1.076 l 0,2.131 -1.336,0 0,-5.314 -0.001,0 z"
         id="path164"
         style="fill:#9c9d9f" />
      <path
         d="m 266.162,148.403 1.32,0 0,4.55 c 0,0.897 -0.18,1.559 -0.541,1.981 -0.486,0.573 -1.217,0.859 -2.193,0.859 -0.521,0 -0.959,-0.064 -1.313,-0.195 -0.355,-0.13 -0.655,-0.32 -0.899,-0.572 -0.244,-0.252 -0.424,-0.559 -0.541,-0.92 l 1.473,0 c 0.13,0.149 0.298,0.262 0.504,0.339 0.205,0.076 0.448,0.114 0.729,0.114 0.359,0 0.648,-0.055 0.866,-0.166 0.219,-0.11 0.373,-0.253 0.462,-0.429 0.09,-0.176 0.135,-0.478 0.135,-0.907 -0.234,0.234 -0.48,0.402 -0.738,0.505 -0.258,0.103 -0.55,0.153 -0.876,0.153 -0.714,0 -1.317,-0.257 -1.811,-0.771 -0.493,-0.514 -0.739,-1.164 -0.739,-1.951 0,-0.843 0.262,-1.52 0.783,-2.029 0.473,-0.463 1.037,-0.693 1.693,-0.693 0.307,0 0.596,0.056 0.868,0.168 0.272,0.111 0.546,0.295 0.819,0.551 l 0,-0.587 -0.001,0 z m -1.391,1.109 c -0.42,0 -0.768,0.141 -1.041,0.423 -0.274,0.282 -0.412,0.636 -0.412,1.062 0,0.442 0.141,0.806 0.422,1.09 0.279,0.283 0.632,0.425 1.057,0.425 0.414,0 0.756,-0.139 1.024,-0.415 0.269,-0.277 0.403,-0.64 0.403,-1.09 0,-0.442 -0.135,-0.803 -0.406,-1.08 -0.27,-0.276 -0.619,-0.415 -1.047,-0.415 z"
         id="path166"
         style="fill:#9c9d9f" />
      <path
         d="m 275.546,148.403 1.336,0 0,5.312 -1.336,0 0,-0.562 c -0.261,0.246 -0.521,0.424 -0.783,0.532 -0.262,0.108 -0.545,0.163 -0.851,0.163 -0.687,0 -1.279,-0.266 -1.78,-0.797 -0.5,-0.531 -0.75,-1.192 -0.75,-1.982 0,-0.819 0.242,-1.49 0.727,-2.014 0.485,-0.524 1.072,-0.785 1.765,-0.785 0.318,0 0.618,0.06 0.897,0.179 0.279,0.119 0.537,0.298 0.775,0.536 l 0,-0.582 0,0 z m -1.399,1.086 c -0.413,0 -0.755,0.146 -1.028,0.438 -0.272,0.292 -0.408,0.666 -0.408,1.123 0,0.46 0.139,0.838 0.416,1.135 0.277,0.297 0.619,0.445 1.025,0.445 0.419,0 0.767,-0.146 1.043,-0.438 0.275,-0.292 0.414,-0.675 0.414,-1.147 0,-0.463 -0.139,-0.838 -0.414,-1.125 -0.277,-0.288 -0.626,-0.431 -1.048,-0.431 z"
         id="path168"
         style="fill:#9c9d9f" />
      <path
         d="m 278.226,148.403 1.336,0 0,0.545 c 0.301,-0.253 0.575,-0.43 0.82,-0.529 0.245,-0.099 0.496,-0.148 0.752,-0.148 0.526,0 0.973,0.184 1.34,0.551 0.309,0.312 0.463,0.775 0.463,1.387 l 0,3.508 -1.32,0 0,-2.325 c 0,-0.634 -0.029,-1.055 -0.086,-1.263 -0.057,-0.208 -0.155,-0.366 -0.296,-0.476 -0.141,-0.108 -0.315,-0.163 -0.522,-0.163 -0.269,0 -0.499,0.09 -0.691,0.271 -0.193,0.181 -0.326,0.43 -0.401,0.749 -0.038,0.165 -0.058,0.524 -0.058,1.076 l 0,2.131 -1.336,0 0,-5.314 -10e-4,0 z"
         id="path170"
         style="fill:#9c9d9f" />
      <path
         d="m 288.148,146.348 1.336,0 0,7.367 -1.336,0 0,-0.562 c -0.26,0.246 -0.521,0.424 -0.782,0.532 -0.261,0.108 -0.545,0.163 -0.851,0.163 -0.686,0 -1.279,-0.266 -1.779,-0.797 -0.501,-0.531 -0.752,-1.192 -0.752,-1.982 0,-0.819 0.242,-1.49 0.727,-2.014 0.485,-0.524 1.073,-0.785 1.766,-0.785 0.318,0 0.617,0.06 0.896,0.179 0.28,0.12 0.539,0.299 0.775,0.537 l 0,-2.638 z m -1.398,3.141 c -0.412,0 -0.755,0.146 -1.027,0.438 -0.273,0.292 -0.41,0.666 -0.41,1.123 0,0.46 0.139,0.838 0.417,1.135 0.277,0.297 0.619,0.445 1.025,0.445 0.419,0 0.767,-0.146 1.042,-0.438 0.276,-0.292 0.414,-0.675 0.414,-1.147 0,-0.463 -0.138,-0.838 -0.414,-1.125 -0.276,-0.288 -0.626,-0.431 -1.047,-0.431 z"
         id="path172"
         style="fill:#9c9d9f" />
      <path
         d="m 296.876,149.149 -0.823,0.824 c -0.335,-0.333 -0.638,-0.5 -0.911,-0.5 -0.149,0 -0.266,0.031 -0.351,0.096 -0.085,0.062 -0.126,0.142 -0.126,0.236 0,0.071 0.026,0.137 0.08,0.197 0.054,0.06 0.186,0.143 0.397,0.246 l 0.487,0.244 c 0.515,0.254 0.867,0.512 1.06,0.775 0.191,0.264 0.288,0.572 0.288,0.927 0,0.472 -0.174,0.864 -0.52,1.181 -0.347,0.314 -0.811,0.473 -1.393,0.473 -0.774,0 -1.393,-0.303 -1.854,-0.91 l 0.817,-0.895 c 0.156,0.182 0.339,0.329 0.548,0.441 0.209,0.111 0.396,0.168 0.558,0.168 0.175,0 0.316,-0.042 0.424,-0.127 0.106,-0.084 0.161,-0.182 0.161,-0.292 0,-0.204 -0.193,-0.404 -0.58,-0.599 l -0.447,-0.225 c -0.857,-0.432 -1.285,-0.972 -1.285,-1.621 0,-0.419 0.161,-0.777 0.484,-1.074 0.323,-0.297 0.736,-0.445 1.24,-0.445 0.344,0 0.668,0.076 0.972,0.227 0.306,0.153 0.563,0.37 0.774,0.653 z"
         id="path174"
         style="fill:#9c9d9f" />
      <path
         d="m 298.554,146.215 c 0.234,0 0.436,0.084 0.603,0.254 0.167,0.169 0.251,0.373 0.251,0.614 0,0.237 -0.082,0.44 -0.248,0.607 -0.166,0.167 -0.365,0.251 -0.596,0.251 -0.237,0 -0.439,-0.086 -0.607,-0.256 -0.168,-0.171 -0.252,-0.378 -0.252,-0.622 0,-0.234 0.084,-0.435 0.25,-0.6 0.165,-0.165 0.365,-0.248 0.599,-0.248 z m -0.67,2.188 1.336,0 0,5.312 -1.336,0 0,-5.312 z"
         id="path176"
         style="fill:#9c9d9f" />
      <path
         d="m 300.416,148.403 1.336,0 0,0.617 c 0.228,-0.252 0.48,-0.439 0.76,-0.563 0.28,-0.124 0.583,-0.187 0.912,-0.187 0.333,0 0.633,0.082 0.9,0.246 0.268,0.163 0.482,0.402 0.646,0.716 0.212,-0.313 0.472,-0.553 0.78,-0.716 0.308,-0.164 0.645,-0.246 1.01,-0.246 0.378,0 0.711,0.088 0.997,0.264 0.287,0.176 0.493,0.404 0.618,0.688 0.126,0.283 0.189,0.744 0.189,1.381 l 0,3.113 -1.336,0 0,-2.688 c 0,-0.601 -0.076,-1.008 -0.227,-1.221 -0.151,-0.212 -0.378,-0.318 -0.68,-0.318 -0.229,0 -0.436,0.064 -0.617,0.195 -0.183,0.129 -0.318,0.309 -0.406,0.537 -0.089,0.229 -0.133,0.597 -0.133,1.104 l 0,2.391 -1.336,0 0,-2.566 c 0,-0.474 -0.035,-0.816 -0.105,-1.029 -0.07,-0.213 -0.176,-0.371 -0.316,-0.475 -0.141,-0.104 -0.311,-0.156 -0.51,-0.156 -0.223,0 -0.424,0.066 -0.605,0.197 -0.181,0.131 -0.316,0.315 -0.406,0.553 -0.09,0.236 -0.135,0.61 -0.135,1.12 l 0,2.356 -1.336,0 0,-5.313 0,0 z"
         id="path178"
         style="fill:#9c9d9f" />
      <path
         d="m 309.822,148.403 1.352,0 0,2.555 c 0,0.498 0.035,0.844 0.103,1.037 0.068,0.193 0.178,0.344 0.329,0.45 0.15,0.107 0.336,0.161 0.557,0.161 0.221,0 0.408,-0.053 0.562,-0.158 0.154,-0.105 0.269,-0.262 0.344,-0.466 0.055,-0.153 0.082,-0.479 0.082,-0.98 l 0,-2.599 1.336,0 0,2.25 c 0,0.927 -0.072,1.561 -0.219,1.902 -0.18,0.416 -0.443,0.736 -0.791,0.959 -0.348,0.223 -0.79,0.334 -1.326,0.334 -0.583,0 -1.054,-0.13 -1.413,-0.391 -0.359,-0.26 -0.612,-0.623 -0.759,-1.088 -0.104,-0.322 -0.156,-0.907 -0.156,-1.756 l 0,-2.21 -10e-4,0 z"
         id="path180"
         style="fill:#9c9d9f" />
      <path
         d="m 315.683,146.348 1.336,0 0,7.367 -1.336,0 0,-7.367 z"
         id="path182"
         style="fill:#9c9d9f" />
      <path
         d="m 322.142,148.403 1.336,0 0,5.312 -1.336,0 0,-0.562 c -0.26,0.246 -0.521,0.424 -0.782,0.532 -0.261,0.108 -0.545,0.163 -0.851,0.163 -0.686,0 -1.279,-0.266 -1.779,-0.797 -0.501,-0.531 -0.752,-1.192 -0.752,-1.982 0,-0.819 0.242,-1.49 0.727,-2.014 0.485,-0.524 1.073,-0.785 1.766,-0.785 0.318,0 0.617,0.06 0.896,0.179 0.28,0.119 0.539,0.298 0.775,0.536 l 0,-0.582 z m -1.398,1.086 c -0.412,0 -0.755,0.146 -1.027,0.438 -0.273,0.292 -0.41,0.666 -0.41,1.123 0,0.46 0.139,0.838 0.417,1.135 0.277,0.297 0.619,0.445 1.025,0.445 0.419,0 0.767,-0.146 1.042,-0.438 0.276,-0.292 0.414,-0.675 0.414,-1.147 0,-0.463 -0.138,-0.838 -0.414,-1.125 -0.276,-0.288 -0.625,-0.431 -1.047,-0.431 z"
         id="path184"
         style="fill:#9c9d9f" />
      <path
         d="m 324.986,146.442 1.336,0 0,1.961 0.789,0 0,1.148 -0.789,0 0,4.164 -1.336,0 0,-4.164 -0.688,0 0,-1.148 0.688,0 0,-1.961 z"
         id="path186"
         style="fill:#9c9d9f" />
      <path
         d="m 328.349,146.215 c 0.234,0 0.436,0.084 0.603,0.254 0.167,0.169 0.251,0.373 0.251,0.614 0,0.237 -0.082,0.44 -0.248,0.607 -0.166,0.167 -0.365,0.251 -0.596,0.251 -0.237,0 -0.439,-0.086 -0.607,-0.256 -0.168,-0.171 -0.252,-0.378 -0.252,-0.622 0,-0.234 0.084,-0.435 0.25,-0.6 0.165,-0.165 0.365,-0.248 0.599,-0.248 z m -0.67,2.188 1.336,0 0,5.312 -1.336,0 0,-5.312 z"
         id="path188"
         style="fill:#9c9d9f" />
      <path
         d="m 332.713,148.27 c 0.501,0 0.972,0.125 1.413,0.375 0.441,0.251 0.785,0.59 1.033,1.02 0.247,0.43 0.371,0.893 0.371,1.39 0,0.501 -0.125,0.969 -0.374,1.404 -0.249,0.435 -0.589,0.776 -1.018,1.021 -0.43,0.245 -0.903,0.368 -1.421,0.368 -0.762,0 -1.412,-0.271 -1.95,-0.812 -0.539,-0.542 -0.808,-1.199 -0.808,-1.973 0,-0.829 0.304,-1.52 0.912,-2.072 0.536,-0.481 1.149,-0.721 1.842,-0.721 z m 0.018,1.258 c -0.413,0 -0.757,0.144 -1.031,0.431 -0.274,0.286 -0.411,0.653 -0.411,1.101 0,0.461 0.135,0.834 0.406,1.119 0.271,0.285 0.615,0.428 1.031,0.428 0.416,0 0.762,-0.145 1.038,-0.433 0.276,-0.288 0.415,-0.66 0.415,-1.114 0,-0.453 -0.137,-0.822 -0.408,-1.105 -0.271,-0.286 -0.617,-0.427 -1.04,-0.427 z"
         id="path190"
         style="fill:#9c9d9f" />
      <path
         d="m 336.619,148.403 1.336,0 0,0.545 c 0.303,-0.253 0.576,-0.43 0.821,-0.529 0.245,-0.099 0.495,-0.148 0.752,-0.148 0.526,0 0.973,0.184 1.34,0.551 0.308,0.312 0.462,0.775 0.462,1.387 l 0,3.508 -1.32,0 0,-2.325 c 0,-0.634 -0.027,-1.055 -0.084,-1.263 -0.057,-0.208 -0.156,-0.366 -0.297,-0.476 -0.141,-0.108 -0.314,-0.163 -0.521,-0.163 -0.27,0 -0.5,0.09 -0.693,0.271 -0.192,0.181 -0.326,0.43 -0.4,0.749 -0.039,0.165 -0.059,0.524 -0.059,1.076 l 0,2.131 -1.336,0 0,-5.314 -10e-4,0 z"
         id="path192"
         style="fill:#9c9d9f" />
    </g>
    <g
       transform="translate(10.786867,41.36797)"
       id="g194">
      <g
         id="g196">
        <defs
           id="defs198">
          <circle
             id="XMLID_2_"
             cx="122.421"
             cy="85.633003"
             r="53.5"
             sodipodi:cx="122.421"
             sodipodi:cy="85.633003"
             sodipodi:rx="53.5"
             sodipodi:ry="53.5" />
        </defs>
        <clipPath
           id="clipPath3304">
          <use
             xlink:href="#XMLID_2_"
             id="use3306"
             x="0"
             y="0"
             width="744.09448"
             height="1052.3622" />
        </clipPath>
        <g
           clip-path="url(#XMLID_14_)"
           id="g204">
          <g
             id="g206">
            <path
               d="m 169.611,107.854 c -33.037,22.653 -67.204,25.03 -92.703,21.678 C 50.921,125.85 33.602,116.44 22.846,108.031 2.847,89.466 3.341,79.009 3,69.048"
               id="path208"
               style="fill:none;stroke:#ffffff;stroke-width:6;stroke-dasharray:8, 2" />
          </g>
          <g
             id="g210">
            <path
               d="m 175.17,102.294 c -33.037,22.653 -67.204,25.03 -92.703,21.678 C 56.48,120.29 39.16,110.88 28.405,102.471 8.405,83.906 8.899,73.449 8.558,63.487"
               id="path212"
               style="fill:none;stroke:#ffffff;stroke-width:6;stroke-dasharray:8, 2" />
          </g>
          <g
             id="g214">
            <path
               d="m 180.73,96.735 c -33.037,22.653 -67.204,25.03 -92.703,21.678 C 62.04,114.731 44.721,105.321 33.965,96.912 13.965,78.347 14.459,67.89 14.118,57.929"
               id="path216"
               style="fill:none;stroke:#ffffff;stroke-width:6;stroke-dasharray:8, 2" />
          </g>
          <g
             id="g218">
            <path
               d="m 186.291,91.175 c -33.037,22.653 -67.204,25.03 -92.704,21.678 C 67.6,109.171 50.281,99.761 39.525,91.352 19.525,72.787 20.019,62.33 19.678,52.368"
               id="path220"
               style="fill:none;stroke:#ffffff;stroke-width:6;stroke-dasharray:8, 2" />
          </g>
          <g
             id="g222">
            <path
               d="m 191.85,85.616 c -33.037,22.653 -67.204,25.03 -92.703,21.678 C 73.16,103.613 55.841,94.202 45.085,85.793 25.085,67.228 25.579,56.771 25.238,46.81"
               id="path224"
               style="fill:none;stroke:#ffffff;stroke-width:6;stroke-dasharray:8, 2" />
          </g>
          <g
             id="g226">
            <path
               d="M 197.41,80.056 C 164.373,102.71 130.206,105.087 104.706,101.734 78.719,98.053 61.4,88.642 50.644,80.233 30.644,61.668 31.138,51.211 30.797,41.249"
               id="path228"
               style="fill:none;stroke:#ffffff;stroke-width:6;stroke-dasharray:8, 2" />
          </g>
          <g
             id="g230">
            <path
               d="M 202.967,74.497 C 169.93,97.15 135.763,99.527 110.264,96.175 84.277,92.494 66.958,83.083 56.203,74.675 36.203,56.11 36.697,45.653 36.356,35.692"
               id="path232"
               style="fill:none;stroke:#ffffff;stroke-width:6;stroke-dasharray:8, 2" />
          </g>
          <g
             id="g234">
            <path
               d="M 208.529,68.937 C 175.492,91.59 141.325,93.967 115.826,90.615 89.839,86.934 72.52,77.523 61.764,69.114 41.764,50.549 42.258,40.092 41.917,30.13"
               id="path236"
               style="fill:none;stroke:#ffffff;stroke-width:6;stroke-dasharray:8, 2" />
          </g>
          <g
             id="g238">
            <path
               d="M 214.087,63.377 C 181.05,86.03 146.883,88.407 121.384,85.055 95.397,81.373 78.078,71.963 67.322,63.554 47.322,44.989 47.816,34.532 47.475,24.57"
               id="path240"
               style="fill:none;stroke:#ffffff;stroke-width:6;stroke-dasharray:8, 2" />
          </g>
          <g
             id="g242">
            <path
               d="M 219.648,57.817 C 186.612,80.47 152.444,82.847 126.944,79.495 100.957,75.814 83.638,66.403 72.882,57.994 52.882,39.429 53.376,28.972 53.035,19.01"
               id="path244"
               style="fill:none;stroke:#ffffff;stroke-width:6;stroke-dasharray:8, 2" />
          </g>
          <g
             id="g246">
            <path
               d="M 225.208,52.257 C 192.171,74.911 158.004,77.288 132.504,73.935 106.517,70.254 89.198,60.843 78.442,52.434 58.442,33.869 58.936,23.412 58.595,13.45"
               id="path248"
               style="fill:none;stroke:#ffffff;stroke-width:6;stroke-dasharray:8, 2" />
          </g>
          <g
             id="g250">
            <path
               d="M 230.768,46.698 C 197.732,69.352 163.564,71.729 138.064,68.376 112.077,64.695 94.757,55.284 84.002,46.875 64.002,28.31 64.496,17.853 64.155,7.891"
               id="path252"
               style="fill:none;stroke:#ffffff;stroke-width:6;stroke-dasharray:8, 2" />
          </g>
          <g
             id="g254">
            <path
               d="M 236.327,41.139 C 203.291,63.792 169.123,66.169 143.624,62.817 117.637,59.136 100.318,49.725 89.562,41.316 69.562,22.751 70.056,12.294 69.715,2.333"
               id="path256"
               style="fill:none;stroke:#ffffff;stroke-width:6;stroke-dasharray:8, 2" />
          </g>
        </g>
      </g>
    </g>
    <circle
       transform="translate(10.786867,41.36797)"
       cx="122.421"
       cy="85.633003"
       r="53.5"
       id="circle258"
       sodipodi:cx="122.421"
       sodipodi:cy="85.633003"
       sodipodi:rx="53.5"
       sodipodi:ry="53.5"
       style="fill:none;stroke:#ffffff;stroke-width:3"
       d="m 175.921,85.633003 c 0,29.547237 -23.95277,53.499997 -53.5,53.499997 -29.547236,0 -53.500002,-23.95276 -53.500002,-53.499997 0,-29.547234 23.952766,-53.5 53.500002,-53.5 29.54723,0 53.5,23.952766 53.5,53.5 z" />
  </g>
</svg>
